<svg xmlns="http://www.w3.org/2000/svg" width="24" height="24" viewBox="0 0 24 24">
  <g id="transfer" transform="translate(-262 -8.001)">
    <path id="Path_15432" data-name="Path 15432" d="M278.984,26.886a.984.984,0,1,0,0,1.967h18.885a.984.984,0,1,0,0-1.967h-.59V17.738h.59a.984.984,0,0,0,.984-.984V15.279a.984.984,0,0,0-.438-.818l-9.443-6.3a.984.984,0,0,0-1.091,0l-9.443,6.3a.984.984,0,0,0-.438.818v1.475a.984.984,0,0,0,.984.984h.59v9.148Zm5.7-9.049h7.475v9.049h-7.475Zm9.443,9.049V17.837h1.18v9.049Zm-5.7-16.719,8.407,5.6H280.019Zm-6.885,7.67h1.18v9.049h-1.18Z" transform="translate(-14.426)" fill="#203152"/>
    <path id="Path_15433" data-name="Path 15433" d="M285.016,232H262.984a.984.984,0,0,0,0,1.967h22.033a.984.984,0,0,0,0-1.967Z" transform="translate(0 -201.967)" fill="#203152"/>
  </g>
</svg>
