<svg id="Group_6172" data-name="Group 6172" xmlns="http://www.w3.org/2000/svg" width="20" height="19.999" viewBox="0 0 20 19.999">
  <g id="Group_6171" data-name="Group 6171">
    <path id="Path_15447" data-name="Path 15447" d="M19.991,4.356a.638.638,0,0,0-.031-.191.561.561,0,0,0-.059-.094c-.014-.022-.024-.042-.039-.062a.6.6,0,0,0-.26-.2s-.005,0-.009-.006L9.594.053a.611.611,0,0,0-.465.009L.379,3.81c-.009,0-.012.014-.021.017a.605.605,0,0,0-.219.184.653.653,0,0,0-.047.068.509.509,0,0,0-.041.06A.627.627,0,0,0,0,4.384H0v11.25a.626.626,0,0,0,.379.575l8.75,3.75h0a.622.622,0,0,0,.245.05.634.634,0,0,0,.22-.04l.023-.009h0L19.6,16.22a.625.625,0,0,0,.4-.585V4.385C20,4.374,19.991,4.366,19.991,4.356ZM8.75,18.436l-7.5-3.214V5.334l7.5,3.214ZM9.39,7.461,2.212,4.385,9.39,1.31,17.6,4.385l-1.956.734L12.131,3.548a.614.614,0,0,0-.549.021L9.131,4.61a.627.627,0,0,0,.006,1.156l2.274.939Zm4.36-.3L15,6.693V9.739l-1.25.469Zm-.623-1.1L10.99,5.179l.885-.376,2.1.94ZM18.75,15.2,10,18.483V8.568l2.5-.937v3.48a.625.625,0,0,0,.625.625.639.639,0,0,0,.22-.04l2.5-.937a.626.626,0,0,0,.405-.585V6.224l2.5-.937Z" transform="translate(0 -0.011)" fill="#1f4282"/>
  </g>
</svg>
