<svg xmlns="http://www.w3.org/2000/svg" width="18.65" height="16.392" viewBox="0 0 18.65 16.392">
  <g id="commerce-and-shopping_1_" data-name="commerce-and-shopping (1)" transform="translate(0 0)">
    <path id="Path_14141" data-name="Path 14141" d="M6.009,10.928h9.91a.547.547,0,0,0,.525-.4l2.186-7.65a.546.546,0,0,0-.525-.7H4.749L4.358.428A.547.547,0,0,0,3.825,0H.546a.546.546,0,0,0,0,1.093h2.84L5.359,9.971a1.639,1.639,0,0,0,.651,3.143h9.908a.546.546,0,0,0,0-1.093H6.01a.546.546,0,0,1,0-1.093ZM17.38,3.279,15.506,9.835H6.449L4.991,3.279Zm0,0" fill="#1f4282"/>
    <path id="Path_14142" data-name="Path 14142" d="M150,361.639A1.639,1.639,0,1,0,151.639,360,1.641,1.641,0,0,0,150,361.639Zm1.639-.546a.546.546,0,1,1-.546.546A.547.547,0,0,1,151.639,361.093Zm0,0" transform="translate(-144.536 -346.886)" fill="#1f4282"/>
    <path id="Path_14143" data-name="Path 14143" d="M362,361.639A1.639,1.639,0,1,0,363.639,360,1.641,1.641,0,0,0,362,361.639Zm1.639-.546a.546.546,0,1,1-.546.546A.547.547,0,0,1,363.639,361.093Zm0,0" transform="translate(-348.814 -346.886)" fill="#1f4282"/>
  </g>
</svg>
