<svg xmlns="http://www.w3.org/2000/svg" width="133" height="85.306" viewBox="0 0 133 85.306">
  <g id="Group_6179" data-name="Group 6179" transform="translate(-125 -189.001)">
    <g id="Group_6178" data-name="Group 6178" transform="translate(-2970.816 -1099.908)">
      <path id="Path_15448" data-name="Path 15448" d="M3130.814,1540.15l-13.724,35.683h-16.3l-.089-.6-4.889-32.172,16.953-1.411Z" transform="translate(0 -205.818)" fill="#ffc080"/>
      <path id="Path_15449" data-name="Path 15449" d="M3152.965,1540.15l-13.724,35.683h-16.3l-.089-.6c5.085-1.893,13.546-8.76,12.064-33.583Z" transform="translate(-22.15 -205.817)" fill="#c98a4d"/>
      <g id="Group_6176" data-name="Group 6176" transform="translate(3167.214 1325.465)">
        <path id="Path_15450" data-name="Path 15450" d="M3544.325,1504.483a179.746,179.746,0,0,0-6.332,26.7c-.1.713-.155,1.1-.155,1.1l-15.706,2.564-18.964-.914-9.4-.45c1.847-20.347-3.042-33.489-3.042-33.489,4.528-.726,8.728-1.509,12.548-2.3a203.261,203.261,0,0,0,24.949-6.59l1.238,1.026Z" transform="translate(-3490.723 -1491.101)" fill="#c98a4d"/>
      </g>
      <path id="Path_15451" data-name="Path 15451" d="M3586.367,1531.185c-.1.713-.155,1.1-.155,1.1l-15.707,2.564-18.964-.914c-2.259-9.44-2.489-25.723.1-36.24a203.239,203.239,0,0,0,24.949-6.59l1.237,1.026C3577.522,1497.7,3577,1519.177,3586.367,1531.185Z" transform="translate(-371.884 -165.636)" fill="#b5743f"/>
      <path id="Path_15452" data-name="Path 15452" d="M3358.275,1288.913s-16.664,5.984-44.684,12.015v71.714l32.807,1.576,30.626-5a341.343,341.343,0,0,1,12.655-54.211Z" transform="translate(-178.401 -0.003)" fill="#c98a4d"/>
      <path id="Path_15453" data-name="Path 15453" d="M3229.439,1288.909l-.789,5.644-11.086,79.659-55.309-2.657c.2-2.2.357-4.349.479-6.46,2.091-35.975-6.413-58.842-6.413-58.842a506.17,506.17,0,0,0,60.832-13.466c7.634-2.225,11.936-3.749,12.266-3.87Z" transform="translate(-49.566)" fill="#f5b87b"/>
      <path id="Path_15454" data-name="Path 15454" d="M3224.139,1356.064a48.606,48.606,0,0,1-16.534,36.569l-2.077-.128a.392.392,0,0,0-.418.364l-.122,1.915a49.041,49.041,0,0,1-42.254,8.443c2.091-35.975-6.413-58.842-6.413-58.842l32.611,23.925,30.642-32.853c.4.856.776,1.726,1.126,2.61A48.528,48.528,0,0,1,3224.139,1356.064Z" transform="translate(-49.566 -38.131)" fill="#ffc080"/>
      <path id="Path_15455" data-name="Path 15455" d="M3224.577,1640.6l.508,1.758,10.976-.156.351-1.8Z" transform="translate(-105.481 -287.947)" fill="#c98a4d"/>
      <path id="Path_15456" data-name="Path 15456" d="M3224.577,1681.432l.508,1.758,10.976-.156.351-1.8Z" transform="translate(-105.481 -321.396)" fill="#c98a4d"/>
      <rect id="Rectangle_4293" data-name="Rectangle 4293" width="4.453" height="7.499" transform="translate(3163.815 1317.276) rotate(-71.573)" fill="#eb7e78"/>
      <g id="Group_6177" data-name="Group 6177" transform="translate(3155.205 1354.372)">
        <path id="Path_15457" data-name="Path 15457" d="M3428.115,1651.119c-.844.748-1.72,1.463-2.616,2.151l.121-1.915a.392.392,0,0,1,.418-.364Z" transform="translate(-3425.282 -1650.99)" fill="#e0a972"/>
        <path id="Path_15458" data-name="Path 15458" d="M3432.246,1652.418l-.33,5.246a3.773,3.773,0,0,1-4,3.533l-.074-.007a3.777,3.777,0,0,1-3.533-4l.209-3.338c.9-.688,1.774-1.4,2.616-2.151l4.74.3A.394.394,0,0,1,3432.246,1652.418Z" transform="translate(-3424.302 -1651.574)" fill="#c98a4d"/>
        <rect id="Rectangle_4294" data-name="Rectangle 4294" width="8.483" height="1.414" transform="translate(2.486 15.769) rotate(-86.434)" fill="#c98a4d"/>
        <path id="Path_15459" data-name="Path 15459" d="M3431.1,1736.424l-4.715-.294a.55.55,0,0,1,.068-1.1l4.715.294a.55.55,0,0,1-.068,1.1Z" transform="translate(-3425.594 -1719.837)" fill="#c98a4d"/>
      </g>
      <path id="Path_15460" data-name="Path 15460" d="M3219.573,1314.886c0,.007-30.642,32.86-30.642,32.86l-32.611-23.925a506.151,506.151,0,0,0,60.832-13.466A48.516,48.516,0,0,1,3219.573,1314.886Z" transform="translate(-49.566 -17.569)" fill="#ffce9c"/>
      <path id="Path_15461" data-name="Path 15461" d="M3230.767,1294.553h-4.808l-5.259,5.381-31.181,31.882-33.2-25.564,32.611,23.925,30.642-32.853c0-.007,6.622-7.107,6.622-7.107l3.243-1.308Z" transform="translate(-49.566)" fill="#c98a4d"/>
    </g>
    <g id="Component_97_4" data-name="Component 97 – 4" transform="translate(214 230)">
      <circle id="Ellipse_706" data-name="Ellipse 706" cx="22" cy="22" r="22" fill="#6abf4b"/>
      <path id="Shape" d="M12.14,27.835a2.273,2.273,0,1,0,2.993,3.421L24.224,23.3a2.273,2.273,0,0,0,.064-3.363L3.833.62a2.273,2.273,0,0,0-3.121,3.3l18.637,17.6Z" transform="translate(37.818 10) rotate(90)" fill="#fff"/>
    </g>
  </g>
</svg>
