<svg xmlns="http://www.w3.org/2000/svg" width="20" height="20" viewBox="0 0 20 20">
  <path id="Path_15434" data-name="Path 15434" d="M13.125,10.625H6.875a.625.625,0,0,0,0,1.25h6.25a.625.625,0,0,0,0-1.25Zm1.25-3.75H5.625a.625.625,0,0,0,0,1.25h8.75a.625.625,0,0,0,0-1.25ZM10,0C4.478,0,0,3.917,0,8.75a8.375,8.375,0,0,0,3.75,6.824V20l4.381-2.658A11.467,11.467,0,0,0,10,17.5c5.523,0,10-3.917,10-8.75S15.523,0,10,0Zm0,16.25a10.114,10.114,0,0,1-2.113-.229L4.945,17.789l.039-2.9A7.247,7.247,0,0,1,1.25,8.75c0-4.142,3.917-7.5,8.75-7.5s8.75,3.358,8.75,7.5S14.833,16.25,10,16.25Z" fill="#00041d"/>
</svg>
