<svg xmlns="http://www.w3.org/2000/svg" width="20" height="26.155" viewBox="0 0 20 26.155">
  <g id="company_1_" data-name="company (1)" transform="translate(-15.062)">
    <path id="Path_15473" data-name="Path 15473" d="M34.7,23.55H33.121V3.957a1.176,1.176,0,0,0-1.175-1.175H25.42V.357A.358.358,0,0,0,25.062,0H19.085a.358.358,0,0,0-.358.357V2.782h-.549A1.176,1.176,0,0,0,17,3.957V23.55H15.42a.358.358,0,0,0-.358.358V25.8a.358.358,0,0,0,.358.358H34.7a.358.358,0,0,0,.358-.358v-1.89a.358.358,0,0,0-.358-.358ZM19.443.715H24.7V2.782H19.443ZM17.718,3.957a.46.46,0,0,1,.46-.46H31.946a.46.46,0,0,1,.46.46V23.55H27.719V19.668h.893a.358.358,0,0,0,.358-.358V17.7a.358.358,0,0,0-.358-.358h-7.1a.358.358,0,0,0-.358.358V19.31a.358.358,0,0,0,.358.358h.894V23.55H17.718Zm4.151,14.994v-.893h6.386v.893Zm1.251.715H27v3.883H23.121ZM34.347,25.44H15.777V24.266h18.57Z" transform="translate(0 0)" fill="#fff"/>
    <path id="Path_15474" data-name="Path 15474" d="M34.92,26.3H39.07a.358.358,0,0,0,.358-.358v-1.97a.357.357,0,0,0-.358-.358H34.92a.358.358,0,0,0-.358.358v1.97a.358.358,0,0,0,.358.358Zm.358-1.97h3.436v1.255H35.277Z" transform="translate(-15.515 -18.79)" fill="#fff"/>
    <path id="Path_15475" data-name="Path 15475" d="M34.92,47.106H39.07a.357.357,0,0,0,.358-.358v-1.97a.358.358,0,0,0-.358-.358H34.92a.358.358,0,0,0-.358.358v1.97A.358.358,0,0,0,34.92,47.106Zm.358-1.97h3.436v1.255H35.277Z" transform="translate(-15.515 -35.344)" fill="#fff"/>
    <path id="Path_15476" data-name="Path 15476" d="M39.428,67.554v-1.97a.357.357,0,0,0-.358-.358H34.92a.358.358,0,0,0-.358.358v1.97a.358.358,0,0,0,.358.358H39.07A.358.358,0,0,0,39.428,67.554Zm-.715-.358H35.277V65.942h3.436Z" transform="translate(-15.515 -51.898)" fill="#fff"/>
    <path id="Path_15477" data-name="Path 15477" d="M69.983,26.3h4.151a.358.358,0,0,0,.358-.358v-1.97a.357.357,0,0,0-.358-.358H69.983a.357.357,0,0,0-.358.358v1.97A.358.358,0,0,0,69.983,26.3Zm.358-1.97h3.435v1.255H70.34Z" transform="translate(-43.413 -18.79)" fill="#fff"/>
    <path id="Path_15478" data-name="Path 15478" d="M69.983,47.106h4.151a.357.357,0,0,0,.358-.358v-1.97a.358.358,0,0,0-.358-.358H69.983a.358.358,0,0,0-.358.358v1.97a.357.357,0,0,0,.358.358Zm.358-1.97h3.435v1.255H70.34Z" transform="translate(-43.413 -35.344)" fill="#fff"/>
    <path id="Path_15479" data-name="Path 15479" d="M69.983,67.912h4.151a.358.358,0,0,0,.358-.358v-1.97a.357.357,0,0,0-.358-.358H69.983a.357.357,0,0,0-.358.358v1.97A.358.358,0,0,0,69.983,67.912Zm.358-1.97h3.435V67.2H70.34Z" transform="translate(-43.413 -51.898)" fill="#fff"/>
  </g>
</svg>
