<svg xmlns="http://www.w3.org/2000/svg" width="24" height="22.001" viewBox="0 0 24 22.001">
  <g id="diamond_1_" data-name="diamond (1)" transform="translate(0 -0.999)">
    <path id="Path_14873" data-name="Path 14873" d="M12,23a.5.5,0,0,1-.383-.178L.117,9.163A.5.5,0,0,1,.061,8.6L4.093,1.26A.5.5,0,0,1,4.531,1H19.469a.5.5,0,0,1,.438.26L23.938,8.6a.5.5,0,0,1-.056.562l-11.5,13.659A.5.5,0,0,1,12,23ZM1.1,8.781,12,21.724,22.9,8.781,19.173,2H4.827Z" fill="#0e2756"/>
    <path id="Path_14874" data-name="Path 14874" d="M23.25,9.5H.75a.5.5,0,0,1,0-1h22.5a.5.5,0,0,1,0,1Z" fill="#0e2756"/>
    <path id="Path_14875" data-name="Path 14875" d="M17.062,9.219a.5.5,0,0,1-.409-.213L12,2.373,7.41,8.971A.5.5,0,1,1,6.59,8.4l5-7.186A.5.5,0,0,1,12,1h0a.5.5,0,0,1,.409.213l5.062,7.219a.5.5,0,0,1-.409.787Z" fill="#0e2756"/>
    <path id="Path_14876" data-name="Path 14876" d="M12,23a.5.5,0,0,1-.471-.332l-7.469-21A.5.5,0,0,1,5,1.332l7,19.676L19,1.332a.5.5,0,1,1,.942.336l-7.469,21A.5.5,0,0,1,12,23Z" fill="#0e2756"/>
  </g>
</svg>
