<svg xmlns="http://www.w3.org/2000/svg" width="224" height="224" viewBox="0 0 224 224">
  <g id="Group_5981" data-name="Group 5981" transform="translate(-75 -260)">
    <circle id="Ellipse_692" data-name="Ellipse 692" cx="112" cy="112" r="112" transform="translate(75 260)" fill="#fff3eb"/>
    <g id="Group_5980" data-name="Group 5980" transform="translate(-0.121)">
      <rect id="Rectangle_4161" data-name="Rectangle 4161" width="167" height="167" transform="translate(104 289)" fill="none"/>
      <g id="Group_5979" data-name="Group 5979" transform="translate(100.121 313.639)">
        <g id="Objects" transform="translate(0 -0.001)">
          <g id="Group_5978" data-name="Group 5978">
            <g id="Group_5977" data-name="Group 5977">
              <g id="Group_5976" data-name="Group 5976">
                <rect id="Rectangle_4204" data-name="Rectangle 4204" width="133.648" height="104.7" rx="13.653" transform="translate(14.13 14.093)" fill="#1f4282"/>
                <g id="Group_5973" data-name="Group 5973">
                  <path id="Path_15095" data-name="Path 15095" d="M104.785,125.15a1.19,1.19,0,0,1-.844-.35l-9.214-9.214a1.193,1.193,0,1,1,1.687-1.687l9.214,9.214a1.193,1.193,0,0,1-.844,2.037Z" transform="translate(-92.254 -111.426)" fill="#1f4282"/>
                  <path id="Path_15096" data-name="Path 15096" d="M108.527,122.957a1.191,1.191,0,0,1-1.171-.969l-1.692-8.8a1.193,1.193,0,0,1,2.343-.45l1.691,8.8a1.192,1.192,0,0,1-.946,1.4A1.22,1.22,0,0,1,108.527,122.957Z" transform="translate(-90.077 -111.77)" fill="#1f4282"/>
                  <path id="Path_15097" data-name="Path 15097" d="M102.593,128.892a1.119,1.119,0,0,1-.226-.021l-8.8-1.691a1.193,1.193,0,0,1,.45-2.343l8.8,1.692a1.193,1.193,0,0,1-.224,2.364Z" transform="translate(-92.598 -109.25)" fill="#1f4282"/>
                </g>
                <path id="Path_15098" data-name="Path 15098" d="M214.43,164.922l29.294-8.982L214.43,187Z" transform="translate(-69.061 -103.237)" fill="#1f4282"/>
                <g id="Group_5974" data-name="Group 5974" transform="translate(51.934 33.631)">
                  <path id="Path_15099" data-name="Path 15099" d="M194.16,191.467H136.123a11.637,11.637,0,0,1,3.424-8.257l1.157-1.169a9.984,9.984,0,0,0,2.935-7.088V161.458a21.511,21.511,0,0,1,22.289-21.489,21.262,21.262,0,0,1,5.19.847,15.645,15.645,0,0,0,14.652,21.155c.3,0,.585-.012.871-.024v13.006a10.034,10.034,0,0,0,2.935,7.088l1.157,1.169a11.565,11.565,0,0,1,3.424,8.257Z" transform="translate(-136.123 -139.956)" fill="#fff"/>
                  <path id="Path_15100" data-name="Path 15100" d="M173.771,185.76a11.491,11.491,0,0,1-11.906,10.964,11.631,11.631,0,0,1-11.035-10.964Z" transform="translate(-133.282 -131.107)" fill="#fff"/>
                </g>
                <ellipse id="Ellipse_691" data-name="Ellipse 691" cx="11.717" cy="11.717" rx="11.717" ry="11.717" transform="matrix(0.737, -0.676, 0.676, 0.737, 85.024, 39.288)" fill="#ff5652"/>
              </g>
            </g>
          </g>
        </g>
      </g>
    </g>
  </g>
</svg>
