<svg xmlns="http://www.w3.org/2000/svg" width="200" height="164.637" viewBox="0 0 200 164.637">
  <g id="Group_5981" data-name="Group 5981" transform="translate(-76.052 -210.76)">
    <g id="Group_6128" data-name="Group 6128" transform="translate(76.052 210.76)">
      <g id="Group_6035" data-name="Group 6035" transform="translate(0 153.687)">
        <ellipse id="Ellipse_693" data-name="Ellipse 693" cx="100" cy="5.475" rx="100" ry="5.475" transform="translate(0 0)" fill="#e7edff"/>
      </g>
      <g id="Group_6046" data-name="Group 6046" transform="translate(17.869)">
        <path id="Path_15218" data-name="Path 15218" d="M1444.585,603.1s9.818,10.529,21.627,15.722l-4.339,14.086S1447,621.1,1444.585,606.018Z" transform="translate(-1368.14 -601.656)" fill="#ffa8a8" fill-rule="evenodd"/>
        <path id="Path_15219" data-name="Path 15219" d="M1447.715,596.083s.9-.664.948.332-.474,2.466-.783,1.66A5.062,5.062,0,0,1,1447.715,596.083Z" transform="translate(-1370.819 -595.398)" fill="#ff8787" fill-rule="evenodd"/>
        <path id="Path_15220" data-name="Path 15220" d="M1461.872,632.909l1.314-4.266a7.706,7.706,0,0,0-3.007-3.292c-11.368-7.629-15.594-22.25-15.594-22.25v2.917C1447,621.1,1461.872,632.909,1461.872,632.909Z" transform="translate(-1368.14 -601.656)" fill="#ff8787" fill-rule="evenodd"/>
        <path id="Path_15221" data-name="Path 15221" d="M1554.6,704.2a.431.431,0,0,1,.613-.105c1.315.974,6.049,4.258,10.646,4.661,5.407.474,6.83.569,6.83.569l-.474,1.043-6.261,18.4s-10.908-1.8-17.264-7.683C1548.7,721.083,1547.956,714.054,1554.6,704.2Z" transform="translate(-1458.188 -688.953)" fill="#e7edff" fill-rule="evenodd"/>
        <path id="Path_15222" data-name="Path 15222" d="M1550.229,768.081c-1.874,5.182-1.532,8.435-1.532,8.435,6.355,5.881,17.264,7.683,17.264,7.683l.161-.472c.505-6.17.959-11.45.959-11.45S1556.788,773.257,1550.229,768.081Z" transform="translate(-1458.189 -744.386)" fill="#dbe4ff" fill-rule="evenodd"/>
        <path id="Path_15223" data-name="Path 15223" d="M1633.226,751.152s-12.521,13.185-14.039,27.887l27.318.949S1640.529,757.887,1633.226,751.152Z" transform="translate(-1519.194 -729.74)" fill="#e7edff" fill-rule="evenodd"/>
        <path id="Path_15224" data-name="Path 15224" d="M1639.125,794.631l-2.016,1.415s-1.855,16.436-14.447,15.226c-.319-.031-.61-.048-.877-.055a34.665,34.665,0,0,0-.8,3.638c.533.585,1.186,1.217,1.922,1.875l25.154.873S1644.313,803.744,1639.125,794.631Z" transform="translate(-1520.748 -767.356)" fill="#dbe4ff" fill-rule="evenodd"/>
        <g id="Group_6036" data-name="Group 6036" transform="translate(0 39.397)">
          <path id="Path_15225" data-name="Path 15225" d="M954.117,906.481c-9.837-20.824-41.228-28.511-59.413-15.758-13.688,9.6-20.107,28.767-15.422,48.624,7.675,32.512,47.716,55.533,75.875,64.428a1.654,1.654,0,0,0,1.038,0c28.159-8.9,68.2-31.916,75.875-64.428,4.685-19.857-1.734-39.025-15.422-48.624-18.185-12.753-49.576-5.066-59.413,15.758a1.723,1.723,0,0,1-3.117,0Z" transform="translate(-877.761 -884.512)" fill="#d6336c" fill-rule="evenodd"/>
          <path id="Path_15226" data-name="Path 15226" d="M1489.324,1002.43c27.807-9.733,64.516-32.1,71.83-63.081,4.685-19.857-1.734-39.025-15.422-48.624-11.674-8.187-28.79-7.949-42.152-1.221,9.558-1.077,19.263.767,26.762,6.026,13.933,9.77,20.466,29.28,15.7,49.491C1539.972,970.721,1514.034,990.593,1489.324,1002.43Z" transform="translate(-1406.845 -884.515)" fill="#c11f61" fill-rule="evenodd"/>
        </g>
        <path id="Path_15227" data-name="Path 15227" d="M1769.7,872.04a24.678,24.678,0,0,0,16.41-2.2S1779.375,865.137,1769.7,872.04Z" transform="translate(-1649.408 -831.067)" fill="#bac8ff" fill-rule="evenodd"/>
        <path id="Path_15228" data-name="Path 15228" d="M1778.02,858.058s7.873,13-10.434,24.568c0,0,.142,2.8-2.49,2.8s-.854-3.31.64-4c0,0,5.454-11.981-.237-21.561Z" transform="translate(-1644.258 -822.228)" fill="#ffa8a8" fill-rule="evenodd"/>
        <path id="Path_15229" data-name="Path 15229" d="M1789.254,858.058l-12.521,1.8a17.4,17.4,0,0,1,1.157,2.332h0a18.636,18.636,0,0,1,8.012,1.009s3.446,8.136-7.083,19.424C1797.127,871.053,1789.254,858.058,1789.254,858.058Z" transform="translate(-1655.492 -822.228)" fill="#ff8787" fill-rule="evenodd"/>
        <path id="Path_15230" data-name="Path 15230" d="M1723.754,743.411s13.754-.379,22.2,18.4c0,0-6.735-2.9-16.41,2.2l-6.26-19.561Z" transform="translate(-1609.248 -723.043)" fill="#e7edff" fill-rule="evenodd"/>
        <g id="Group_6040" data-name="Group 6040" transform="translate(111.006 5.005)">
          <path id="Path_15231" data-name="Path 15231" d="M1710.781,718.972s-2.777,4.075-2.356,6.623c1.652-.383,4.032-2.347,4.015-2.93a11.042,11.042,0,0,1,.165-1.806Z" transform="translate(-1707.366 -706.906)" fill="#ffa8a8"/>
          <g id="Group_6037" data-name="Group 6037" transform="translate(1.069 13.9)">
            <path id="Path_15232" data-name="Path 15232" d="M1711.475,732.573a9.318,9.318,0,0,0-1.506.157,11.515,11.515,0,0,0-1.192,3.418A5.5,5.5,0,0,0,1711.475,732.573Z" transform="translate(-1708.777 -732.573)" fill="#ff8787"/>
          </g>
          <g id="Group_6039" data-name="Group 6039">
            <g id="Group_6038" data-name="Group 6038">
              <path id="Path_15233" data-name="Path 15233" d="M1704.07,641.5c-1.066-2.18-.695-6.016-.269-6.281s1.332.2,1.759.5c-.081-2.168,1.643-6.215,2.787-6.214.92,0,2.371,3.828,2.49,5.969.659-.565,1.633-1.1,1.98-.914.4.217.616,2.881-.368,5.23.648-.5,1.169-.62,1.324-.442.233.267-1.713,4.574-6.99,4.512C1706.321,643.538,1704.07,641.5,1704.07,641.5Z" transform="translate(-1703.035 -629.504)" fill="#212529"/>
              <path id="Path_15234" data-name="Path 15234" d="M1705.435,694.491a.047.047,0,0,1-.052-.073c.879-1.3.995-3.2-.226-3.863-2.065-1.115-5.133,6.276-4.1,7.037,1.181.873,6-1.905,5.591-2.883C1706.436,694.212,1705.738,694.387,1705.435,694.491Z" transform="translate(-1700.848 -682.222)" fill="#ffa8a8"/>
              <path id="Path_15235" data-name="Path 15235" d="M1724.7,709.578c.039-.358-.5-.68-.941-.484A1.537,1.537,0,0,1,1724.7,709.578Z" transform="translate(-1720.67 -698.308)" fill="#212529"/>
              <path id="Path_15236" data-name="Path 15236" d="M1704.334,725.744a3.223,3.223,0,0,0-.242,1.119,2.218,2.218,0,0,0,2.778-.758C1706.378,726.26,1704.528,726.186,1704.334,725.744Z" transform="translate(-1703.654 -712.765)" fill="#fff"/>
            </g>
          </g>
        </g>
        <path id="Path_15237" data-name="Path 15237" d="M1015.349,991.191l6.2,1.912-6.2,1.912-1.912,6.2-1.912-6.2-6.2-1.912,6.2-1.912,1.912-6.2Z" transform="translate(-988.125 -932.047)" fill="#ffd43b" fill-rule="evenodd"/>
        <path id="Path_15238" data-name="Path 15238" d="M970.542,808.594l3.971,1.226-3.971,1.226-1.226,3.971-1.226-3.971-3.971-1.226,3.971-1.226,1.226-3.971Z" transform="translate(-952.472 -776)" fill="#ffd43b" fill-rule="evenodd"/>
        <path id="Path_15239" data-name="Path 15239" d="M1191.993,958.279l3.012.93-3.012.93-.93,3.013-.93-3.013-3.013-.93,3.013-.93.93-3.013Z" transform="translate(-1145.399 -906.327)" fill="#ffd43b" fill-rule="evenodd"/>
        <path id="Path_15253" data-name="Path 15253" d="M1431.268,592.412c1.637-.412.546,5.17-.45,5.122S1427.5,593.36,1431.268,592.412Z" transform="translate(-1354.823 -592.39)" fill="#ffa8a8" fill-rule="evenodd"/>
      </g>
      <g id="Group_6054" data-name="Group 6054" transform="translate(108.088 125.969)">
        <path id="Path_15273" data-name="Path 15273" d="M1552.6,1624.15s-6.412-10.076-5.848-11.731,6.447,3.713,6.447,3.713l.528,8.018Z" transform="translate(-1546.715 -1600.545)" fill="#fedeeb"/>
        <path id="Path_15274" data-name="Path 15274" d="M1569.734,1551.032s-6.434-15.628-4.4-19.4c.493-.916,4.4,5.214,4.4,5.214s.7-10.357,2.889-10.428,2.748,6.87,2.748,6.87,1.867-3.347,2.36-3.1.634,3.91.634,3.91,3.593-5.707,4.4-5.214-.838,12.964-6.355,22.9Z" transform="translate(-1562.477 -1526.418)" fill="#fed3e4"/>
        <path id="Path_15275" data-name="Path 15275" d="M1657.184,1596.283s5.073-4.756,5.742-6.764-2.184-.282-2.184-.282,2.783-8.6,1.691-9.723-6.059,6.623-6.059,6.623-.74-5.6-2.325-5.6-1.233,11.555-1.233,11.555Z" transform="translate(-1638.478 -1572.256)" fill="#faa2c2"/>
        <path id="Path_15276" data-name="Path 15276" d="M1618.93,1617.128s3.135-8.138,2.008-9.089-2.924,2.255-2.924,2.255-.141-6.588-1.9-6.553-2.078,7.363-2.078,7.363-2.149-3.382-3.241-2.924,1.339,7.152,3.03,8.948S1618.93,1617.128,1618.93,1617.128Z" transform="translate(-1601.915 -1593.313)" fill="#fedeeb"/>
        <path id="Path_15277" data-name="Path 15277" d="M1584.484,1701.383h12.735a45.674,45.674,0,0,0,2.114-11.309H1582.37A40.018,40.018,0,0,0,1584.484,1701.383Z" transform="translate(-1577.561 -1668.002)" fill="#b8c5fc"/>
        <rect id="Rectangle_4231" data-name="Rectangle 4231" width="19.394" height="2.008" rx="1.004" transform="translate(22.934 22.917) rotate(180)" fill="#c4cfff"/>
      </g>
      <g id="Group_6126" data-name="Group 6126" transform="translate(134.985 145.967)">
        <g id="Group_6083" data-name="Group 6083" transform="translate(7.717 6.691)">
          <path id="Path_15336" data-name="Path 15336" d="M1826.19,1725.258v1.46a.944.944,0,0,1-.578.87.988.988,0,0,1-.365.073h-20.933a.945.945,0,0,1-.255-.035c-.037-.011-.073-.023-.108-.037a.944.944,0,0,1-.58-.871v-1.46a.942.942,0,0,1,.58-.87.958.958,0,0,1,.108-.038.945.945,0,0,1,.255-.035h20.933a.978.978,0,0,1,.365.072A.944.944,0,0,1,1826.19,1725.258Z" transform="translate(-1803.371 -1724.315)" fill="#ffd43a"/>
          <g id="Group_6082" data-name="Group 6082" transform="translate(1.247)">
            <g id="Group_6070" data-name="Group 6070">
              <rect id="Rectangle_4232" data-name="Rectangle 4232" width="0.216" height="3.345" fill="#fcc419"/>
            </g>
            <g id="Group_6071" data-name="Group 6071" transform="translate(1.819)">
              <rect id="Rectangle_4233" data-name="Rectangle 4233" width="0.216" height="3.345" fill="#fcc419"/>
            </g>
            <g id="Group_6072" data-name="Group 6072" transform="translate(7.274)">
              <rect id="Rectangle_4234" data-name="Rectangle 4234" width="0.216" height="3.345" fill="#fcc419"/>
            </g>
            <g id="Group_6073" data-name="Group 6073" transform="translate(10.911)">
              <rect id="Rectangle_4235" data-name="Rectangle 4235" width="0.216" height="3.345" fill="#fcc419"/>
            </g>
            <g id="Group_6074" data-name="Group 6074" transform="translate(16.366)">
              <rect id="Rectangle_4236" data-name="Rectangle 4236" width="0.216" height="3.345" fill="#fcc419"/>
            </g>
            <g id="Group_6075" data-name="Group 6075" transform="translate(14.548)">
              <rect id="Rectangle_4237" data-name="Rectangle 4237" width="0.216" height="3.345" fill="#fcc419"/>
            </g>
            <g id="Group_6076" data-name="Group 6076" transform="translate(20.003)">
              <rect id="Rectangle_4238" data-name="Rectangle 4238" width="0.216" height="3.345" fill="#fcc419"/>
            </g>
            <g id="Group_6077" data-name="Group 6077" transform="translate(5.455)">
              <rect id="Rectangle_4239" data-name="Rectangle 4239" width="0.216" height="3.345" fill="#fcc419"/>
            </g>
            <g id="Group_6078" data-name="Group 6078" transform="translate(3.637)">
              <rect id="Rectangle_4240" data-name="Rectangle 4240" width="0.216" height="3.345" fill="#fcc419"/>
            </g>
            <g id="Group_6079" data-name="Group 6079" transform="translate(9.092)">
              <rect id="Rectangle_4241" data-name="Rectangle 4241" width="0.216" height="3.345" fill="#fcc419"/>
            </g>
            <g id="Group_6080" data-name="Group 6080" transform="translate(12.73)">
              <rect id="Rectangle_4242" data-name="Rectangle 4242" width="0.216" height="3.345" fill="#fcc419"/>
            </g>
            <g id="Group_6081" data-name="Group 6081" transform="translate(18.184)">
              <rect id="Rectangle_4243" data-name="Rectangle 4243" width="0.216" height="3.345" fill="#fcc419"/>
            </g>
          </g>
        </g>
        <g id="Group_6097" data-name="Group 6097" transform="translate(0 0)">
          <path id="Path_15337" data-name="Path 15337" d="M1768.968,1675.647v1.46a.943.943,0,0,1-.577.87.872.872,0,0,1-.108.037.914.914,0,0,1-.257.036h-20.933a.945.945,0,0,1-.255-.035,1.137,1.137,0,0,1-.108-.037.944.944,0,0,1-.58-.871v-1.46a.942.942,0,0,1,.58-.87.92.92,0,0,1,.108-.038.945.945,0,0,1,.255-.035h20.933a.993.993,0,0,1,.365.072A.944.944,0,0,1,1768.968,1675.647Z" transform="translate(-1746.149 -1674.704)" fill="#ffd43a"/>
          <g id="Group_6096" data-name="Group 6096" transform="translate(1.247 0)">
            <g id="Group_6084" data-name="Group 6084">
              <rect id="Rectangle_4244" data-name="Rectangle 4244" width="0.216" height="3.345" fill="#fcc419"/>
            </g>
            <g id="Group_6085" data-name="Group 6085" transform="translate(1.819)">
              <rect id="Rectangle_4245" data-name="Rectangle 4245" width="0.216" height="3.345" fill="#fcc419"/>
            </g>
            <g id="Group_6086" data-name="Group 6086" transform="translate(7.274)">
              <rect id="Rectangle_4246" data-name="Rectangle 4246" width="0.216" height="3.345" fill="#fcc419"/>
            </g>
            <g id="Group_6087" data-name="Group 6087" transform="translate(10.911)">
              <rect id="Rectangle_4247" data-name="Rectangle 4247" width="0.216" height="3.345" fill="#fcc419"/>
            </g>
            <g id="Group_6088" data-name="Group 6088" transform="translate(16.366)">
              <rect id="Rectangle_4248" data-name="Rectangle 4248" width="0.216" height="3.345" fill="#fcc419"/>
            </g>
            <g id="Group_6089" data-name="Group 6089" transform="translate(14.548)">
              <rect id="Rectangle_4249" data-name="Rectangle 4249" width="0.216" height="3.345" fill="#fcc419"/>
            </g>
            <g id="Group_6090" data-name="Group 6090" transform="translate(20.003)">
              <rect id="Rectangle_4250" data-name="Rectangle 4250" width="0.216" height="3.345" fill="#fcc419"/>
            </g>
            <g id="Group_6091" data-name="Group 6091" transform="translate(5.455)">
              <rect id="Rectangle_4251" data-name="Rectangle 4251" width="0.216" height="3.345" fill="#fcc419"/>
            </g>
            <g id="Group_6092" data-name="Group 6092" transform="translate(3.637)">
              <rect id="Rectangle_4252" data-name="Rectangle 4252" width="0.216" height="3.345" fill="#fcc419"/>
            </g>
            <g id="Group_6093" data-name="Group 6093" transform="translate(9.092)">
              <rect id="Rectangle_4253" data-name="Rectangle 4253" width="0.216" height="3.345" fill="#fcc419"/>
            </g>
            <g id="Group_6094" data-name="Group 6094" transform="translate(12.73)">
              <rect id="Rectangle_4254" data-name="Rectangle 4254" width="0.216" height="3.345" fill="#fcc419"/>
            </g>
            <g id="Group_6095" data-name="Group 6095" transform="translate(18.184)">
              <rect id="Rectangle_4255" data-name="Rectangle 4255" width="0.216" height="3.345" fill="#fcc419"/>
            </g>
          </g>
        </g>
        <g id="Group_6111" data-name="Group 6111" transform="translate(3.116 10.036)">
          <path id="Path_15338" data-name="Path 15338" d="M1792.069,1750.063v1.46a.944.944,0,0,1-.577.87.98.98,0,0,1-.365.072h-20.933a.95.95,0,0,1-.255-.035,1.132,1.132,0,0,1-.108-.037.944.944,0,0,1-.58-.872v-1.46a.942.942,0,0,1,.58-.87.916.916,0,0,1,.108-.038.936.936,0,0,1,.255-.035h20.933a.913.913,0,0,1,.257.036.963.963,0,0,1,.108.037A.944.944,0,0,1,1792.069,1750.063Z" transform="translate(-1769.25 -1749.12)" fill="#fcc419"/>
          <g id="Group_6110" data-name="Group 6110" transform="translate(1.247)">
            <g id="Group_6098" data-name="Group 6098">
              <rect id="Rectangle_4256" data-name="Rectangle 4256" width="0.216" height="3.345" fill="#f2b600"/>
            </g>
            <g id="Group_6099" data-name="Group 6099" transform="translate(1.819)">
              <rect id="Rectangle_4257" data-name="Rectangle 4257" width="0.216" height="3.345" fill="#f2b600"/>
            </g>
            <g id="Group_6100" data-name="Group 6100" transform="translate(7.274)">
              <rect id="Rectangle_4258" data-name="Rectangle 4258" width="0.216" height="3.345" fill="#f2b600"/>
            </g>
            <g id="Group_6101" data-name="Group 6101" transform="translate(10.911)">
              <rect id="Rectangle_4259" data-name="Rectangle 4259" width="0.216" height="3.345" fill="#f2b600"/>
            </g>
            <g id="Group_6102" data-name="Group 6102" transform="translate(16.366)">
              <rect id="Rectangle_4260" data-name="Rectangle 4260" width="0.216" height="3.345" fill="#f2b600"/>
            </g>
            <g id="Group_6103" data-name="Group 6103" transform="translate(14.548)">
              <rect id="Rectangle_4261" data-name="Rectangle 4261" width="0.216" height="3.345" fill="#f2b600"/>
            </g>
            <g id="Group_6104" data-name="Group 6104" transform="translate(20.003)">
              <rect id="Rectangle_4262" data-name="Rectangle 4262" width="0.216" height="3.345" fill="#f2b600"/>
            </g>
            <g id="Group_6105" data-name="Group 6105" transform="translate(5.455)">
              <rect id="Rectangle_4263" data-name="Rectangle 4263" width="0.216" height="3.345" fill="#f2b600"/>
            </g>
            <g id="Group_6106" data-name="Group 6106" transform="translate(3.637)">
              <rect id="Rectangle_4264" data-name="Rectangle 4264" width="0.216" height="3.345" fill="#f2b600"/>
            </g>
            <g id="Group_6107" data-name="Group 6107" transform="translate(9.092)">
              <rect id="Rectangle_4265" data-name="Rectangle 4265" width="0.216" height="3.345" fill="#f2b600"/>
            </g>
            <g id="Group_6108" data-name="Group 6108" transform="translate(12.73)">
              <rect id="Rectangle_4266" data-name="Rectangle 4266" width="0.216" height="3.345" fill="#f2b600"/>
            </g>
            <g id="Group_6109" data-name="Group 6109" transform="translate(18.184)">
              <rect id="Rectangle_4267" data-name="Rectangle 4267" width="0.216" height="3.345" fill="#f2b600"/>
            </g>
          </g>
        </g>
        <g id="Group_6125" data-name="Group 6125" transform="translate(4.491 3.345)">
          <path id="Path_15339" data-name="Path 15339" d="M1802.271,1700.452v1.46a.944.944,0,0,1-.577.87.892.892,0,0,1-.108.037.909.909,0,0,1-.257.036H1780.4a.938.938,0,0,1-.255-.035c-.037-.011-.074-.023-.108-.037a.945.945,0,0,1-.58-.871v-1.46a.942.942,0,0,1,.58-.871.921.921,0,0,1,.108-.038.948.948,0,0,1,.255-.035h20.933a.918.918,0,0,1,.257.036.893.893,0,0,1,.108.037A.944.944,0,0,1,1802.271,1700.452Z" transform="translate(-1779.452 -1699.509)" fill="#fcc419"/>
          <g id="Group_6124" data-name="Group 6124" transform="translate(1.247 0)">
            <g id="Group_6112" data-name="Group 6112">
              <rect id="Rectangle_4268" data-name="Rectangle 4268" width="0.216" height="3.345" fill="#f2b600"/>
            </g>
            <g id="Group_6113" data-name="Group 6113" transform="translate(1.819)">
              <rect id="Rectangle_4269" data-name="Rectangle 4269" width="0.216" height="3.345" fill="#f2b600"/>
            </g>
            <g id="Group_6114" data-name="Group 6114" transform="translate(7.274)">
              <rect id="Rectangle_4270" data-name="Rectangle 4270" width="0.216" height="3.345" fill="#f2b600"/>
            </g>
            <g id="Group_6115" data-name="Group 6115" transform="translate(10.911)">
              <rect id="Rectangle_4271" data-name="Rectangle 4271" width="0.216" height="3.345" fill="#f2b600"/>
            </g>
            <g id="Group_6116" data-name="Group 6116" transform="translate(16.366)">
              <rect id="Rectangle_4272" data-name="Rectangle 4272" width="0.216" height="3.345" fill="#f2b600"/>
            </g>
            <g id="Group_6117" data-name="Group 6117" transform="translate(14.548)">
              <rect id="Rectangle_4273" data-name="Rectangle 4273" width="0.216" height="3.345" fill="#f2b600"/>
            </g>
            <g id="Group_6118" data-name="Group 6118" transform="translate(20.003)">
              <rect id="Rectangle_4274" data-name="Rectangle 4274" width="0.216" height="3.345" fill="#f2b600"/>
            </g>
            <g id="Group_6119" data-name="Group 6119" transform="translate(5.455)">
              <rect id="Rectangle_4275" data-name="Rectangle 4275" width="0.216" height="3.345" fill="#f2b600"/>
            </g>
            <g id="Group_6120" data-name="Group 6120" transform="translate(3.637)">
              <rect id="Rectangle_4276" data-name="Rectangle 4276" width="0.216" height="3.345" fill="#f2b600"/>
            </g>
            <g id="Group_6121" data-name="Group 6121" transform="translate(9.092)">
              <rect id="Rectangle_4277" data-name="Rectangle 4277" width="0.216" height="3.345" fill="#f2b600"/>
            </g>
            <g id="Group_6122" data-name="Group 6122" transform="translate(12.73)">
              <rect id="Rectangle_4278" data-name="Rectangle 4278" width="0.216" height="3.345" fill="#f2b600"/>
            </g>
            <g id="Group_6123" data-name="Group 6123" transform="translate(18.184)">
              <rect id="Rectangle_4279" data-name="Rectangle 4279" width="0.216" height="3.345" fill="#f2b600"/>
            </g>
          </g>
        </g>
      </g>
    </g>
  </g>
</svg>
