<svg id="iconspace_Delete_Search_25px" data-name="iconspace_Delete Search_25px" xmlns="http://www.w3.org/2000/svg" width="120" height="120" viewBox="0 0 120 120">
  <path id="Path" d="M0,0H120V120H0Z" fill="none"/>
  <path id="Path-2" data-name="Path" d="M0,0H120V120H0Z" fill="none"/>
  <path id="Combined_Shape" data-name="Combined Shape" d="M92.072,98.571,77.619,84.121a47.44,47.44,0,1,1,6.5-6.5L98.57,92.074a4.321,4.321,0,0,1,1.086,4.877A4.916,4.916,0,0,1,95.279,100,4.512,4.512,0,0,1,92.072,98.571ZM20.378,20.4A38.3,38.3,0,1,0,47.451,9.186,38.327,38.327,0,0,0,20.378,20.4ZM53.567,60.912l-6.706-6.7-6.706,6.7a5.187,5.187,0,1,1-7.337-7.335l6.706-6.7-6.706-6.7a5.187,5.187,0,1,1,7.337-7.335l6.706,6.7,6.706-6.7A5.187,5.187,0,1,1,60.9,40.168l-6.706,6.7,6.706,6.7a5.031,5.031,0,0,1,0,7.335A5.207,5.207,0,0,1,57.221,62.5,5.139,5.139,0,0,1,53.567,60.912Z" transform="translate(10.5 10)" fill="#1f4282"/>
</svg>
