<svg xmlns="http://www.w3.org/2000/svg" xmlns:xlink="http://www.w3.org/1999/xlink" width="269.121" height="148.211" viewBox="0 0 269.121 148.211">
  <defs>
    <clipPath id="clip-path">
      <path id="SVGID" d="M792.726,435.67H823.39a5.1,5.1,0,0,0,4.457-4.868c-.089-3.675-1.805-5.947-8.541-5.947H813.73c-12.259.072-11.787-16.1-.208-16.1h80.384c14.919,0,15.576-6.353,21.482-6.353h17.206a4.277,4.277,0,0,1,4.45,4.051h0a4.277,4.277,0,0,1-4.45,4.052H928.32c-3.546,0-6.448,2.642-6.448,5.871s2.9,5.87,6.448,5.87h33.02c9.111,0,16.563,6.786,16.563,15.08s-7.453,15.08-16.563,15.08h-7.37c-8.762,0-15.931,6.527-15.931,14.5s7.169,14.5,15.931,14.5c20.723,0,37.678,15.436,37.678,34.3s-16.955,34.3-37.678,34.3H745.8c-12.8,0-23.268-9.532-23.268-21.184S733,507.658,745.8,507.658h23.778c6.708,0,12.2-5,12.2-11.1s-5.489-11.1-12.2-11.1H765.78c-6.975,0-12.68-5.2-12.68-11.544s5.706-11.544,12.68-11.544h12.751s24.31,2.975,22.685-6.921c.512-5.986-3.225-3.934-7.823-3.838-12.716.266-11.547-15.933-.666-15.933m152.356-25.159a4.07,4.07,0,1,1,4.45-4.052A4.265,4.265,0,0,1,945.082,410.511Z" transform="translate(-722.527 -402.408)" fill="none" clip-rule="evenodd"/>
    </clipPath>
    <linearGradient id="linear-gradient" x1="0.5" y1="1.88" x2="0.5" y2="-0.182" gradientUnits="objectBoundingBox">
      <stop offset="0" stop-color="#1e9df8"/>
      <stop offset="0.144" stop-color="#42acf9"/>
      <stop offset="0.45" stop-color="#8accfb"/>
      <stop offset="0.705" stop-color="#bfe3fd"/>
      <stop offset="0.895" stop-color="#dff1fe"/>
      <stop offset="1" stop-color="#ecf7ff"/>
    </linearGradient>
    <clipPath id="clip-path-2">
      <path id="SVGID-2" data-name="SVGID" d="M1118.817,723.611h134.864a.927.927,0,0,1,.925.925v80.794a.927.927,0,0,1-.925.925H1118.817a.927.927,0,0,1-.925-.925V724.536a.927.927,0,0,1,.925-.925" transform="translate(-1117.892 -723.611)" fill="none" clip-rule="evenodd"/>
    </clipPath>
    <linearGradient id="linear-gradient-2" x1="0.5" y1="0.999" x2="0.5" y2="0.112" gradientUnits="objectBoundingBox">
      <stop offset="0" stop-color="#1e9df8"/>
      <stop offset="1" stop-color="#b9e4ff"/>
    </linearGradient>
  </defs>
  <g id="Group_6401" data-name="Group 6401" transform="translate(-722.527 -402.408)">
    <g id="Group_6398" data-name="Group 6398" transform="translate(722.527 402.408)">
      <g id="Group_6397" data-name="Group 6397" clip-path="url(#clip-path)">
        <rect id="Rectangle_4348" data-name="Rectangle 4348" width="269.121" height="147.617" transform="translate(0 0)" fill="url(#linear-gradient)"/>
      </g>
    </g>
    <path id="Path_15607" data-name="Path 15607" d="M925.341,1043.149c-5.784,4.81-29.374,5.481-40.36,2.235-4.639-1.371-11.021-8.335-10.089-13.244,2.757,1.114,5.352,2.6,8.168,3.566s5.987,1.375,8.758.293c.76-.3,1.6-1.033,1.229-1.743a1.411,1.411,0,0,0-.6-.533,11.8,11.8,0,0,0-4.657-1.091c-4.834-.486-9.943-1.388-13.523-4.58a6.281,6.281,0,0,1-1.661-2.133c-1.165-2.7.745-5.629,1.374-8.491a16.573,16.573,0,0,0,13.207,8.966c.733.066,1.64-.013,1.948-.661.423-.891-.687-1.707-1.6-2.129a40.617,40.617,0,0,1-9.207-5.9,7.053,7.053,0,0,1-1.634-1.788c-1.316-2.31.087-5.138,1.467-7.412,2.234,2.678,4.528,5.409,7.548,7.219a6.377,6.377,0,0,0,4.731,1.074.861.861,0,0,0,.538-.316.773.773,0,0,0,.034-.6c-.43-1.666-2.311-2.462-3.835-3.334-3.31-1.894-6.565-2.873-7.321-6.531-.209-1.013.742-3.861,1.582-5.125a17.1,17.1,0,0,0,4.27,5.088c.966.778,2.346,1.47,3.408.822-.113-1.76-1.739-3-3.1-4.161s-2.693-2.909-2.012-4.543c.4-.971,1.4-1.557,2.142-2.321a5.242,5.242,0,0,0,1.469-3.723c.574,1.273,2.294,1.562,3.723,1.482s3-.313,4.172.488c1.507,1.033,1.506,3.2,1.1,4.943s-.828,2.228.269,3.667c.487.638,3.056-.411,1.118-7.23,10.838,1.494-.2,8.035,3.9,11.756,2.16,1.961,5.411-4.865,3.054-9.23,0,0,9.434,1.332,7.4,7.438s-4.917,5.974-3.69,9.135,6.494.643,7.351-9.023c0,0,8.591,6.739,6.207,10.389s-6.52,7.153-13.13,8.827c-2.735.694-1.564,5.005,2.828,3.015s9.76-3.577,13.034-11.282c0,0,7.353,10.348-2.828,12.866-1.6.4-8.205,1.328-7.646,3.934s8.354.477,11.975-2.768c0,0,6.815,8.479-1.114,12.687" transform="translate(-126.276 -497.352)" fill="#00a551"/>
    <path id="Path_15608" data-name="Path 15608" d="M1931.03,1056.214s-7.848-3.571-6.683-9.1,7.545-4.948,6.683-9.313-5.053-11.164-.978-16.112,10.851-1.982,11.7-9.654c.685-6.183,3.542-10.562,9.078-9.278,5.124,1.189,8.944,5.156,9.039,14.592.1,10.047,7.178,7.224,7.266,14.626.088,7.454-5.85,7.454-8.169,12.455-1.1,2.363,1.761,10.664-6.681,11.783Z" transform="translate(-1013.601 -506.188)" fill="#00a551"/>
    <path id="Path_15609" data-name="Path 15609" d="M2028.949,1027.076s.02.169.049.5c.089.99.27,3.4.27,6.758,0,9.827-1.548,27.776-11.33,42.1a.429.429,0,0,0,.709.485c9.939-14.577,11.475-32.674,11.478-42.588a71.541,71.541,0,0,0-.324-7.354.428.428,0,1,0-.851.1" transform="translate(-1092.578 -526.487)" fill="#0078ae"/>
    <path id="Path_15610" data-name="Path 15610" d="M2027.129,1157.885s-1.235-6.824,3.4-9.6,9.36-4.94,8.847-9.417.749-9.76,8.17-9.859c4.587-.06,2.865-4.9,7.526-5.86,2.833-.586,4.7,2.371,5.063,5.275.413,3.307-1.459,6.558.688,9.252,2.787,3.49,3.919,10-2.071,11.85s-.651,7.522-8.808,8.361Z" transform="translate(-1100.269 -607.86)" fill="#58bc80"/>
    <path id="Path_15611" data-name="Path 15611" d="M2101.386,1142.039c-.156,4.346-2.085,10.534-5.384,16.437s-7.96,11.539-13.531,14.857a.428.428,0,1,0,.438.735c5.755-3.432,10.49-9.172,13.842-15.174s5.32-12.267,5.492-16.824a.429.429,0,0,0-.856-.032" transform="translate(-1146.896 -623.51)" fill="#0078ae"/>
    <path id="Path_15612" data-name="Path 15612" d="M1102.182,702.208h132.025a5.711,5.711,0,0,1,5.694,5.694v87.11a5.711,5.711,0,0,1-5.694,5.695H1102.182a5.711,5.711,0,0,1-5.694-5.695V707.9a5.711,5.711,0,0,1,5.694-5.694" transform="translate(-315.425 -252.873)" fill="#15378b" fill-rule="evenodd"/>
    <g id="Group_6400" data-name="Group 6400" transform="translate(784.413 452.686)">
      <g id="Group_6399" data-name="Group 6399" transform="translate(0)" clip-path="url(#clip-path-2)">
        <rect id="Rectangle_4349" data-name="Rectangle 4349" width="136.713" height="82.643" transform="translate(0 0)" fill="url(#linear-gradient-2)"/>
      </g>
    </g>
    <path id="Path_15613" data-name="Path 15613" d="M1006.569,1287.522h171.564v4.536a4.549,4.549,0,0,1-4.536,4.536H1011.1a4.549,4.549,0,0,1-4.536-4.536Z" transform="translate(-239.581 -746.568)" fill="#15378b" fill-rule="evenodd"/>
    <path id="Path_15614" data-name="Path 15614" d="M1006.57,1284.326h171.563v2.665a4.8,4.8,0,0,1-4.785,4.785H1011.355a4.8,4.8,0,0,1-4.785-4.785Z" transform="translate(-239.582 -743.872)" fill="#fff" fill-rule="evenodd"/>
    <rect id="Rectangle_4350" data-name="Rectangle 4350" width="39.688" height="1.682" transform="translate(832.925 542.837)" fill="#15378b"/>
    <path id="Path_15615" data-name="Path 15615" d="M1316.06,1025.136c8.088,8.326,13.164,17.722,17.378,25.663h26.991l-.361-.323a20.847,20.847,0,0,1-4.84-6.734c-4.139-9.56-4.369-11.683-8.035-17.824a66.975,66.975,0,0,0-9.144-12.38l-20.724,9.5Z" transform="translate(-500.628 -515.47)" fill="#1a47b6" fill-rule="evenodd"/>
    <path id="Path_15616" data-name="Path 15616" d="M1310.452,632.59c-2.007,4.9-13.5,17.895-21.451,22.152a229.97,229.97,0,0,1-23.8,10.441c-1.935.738-3.116,1.165-3.116,1.165-8.329,10.212-3.519,28.455,4.79,37.47l29.454-5.379c16.542-3.021,28.591,3.933,43.313,10.93l-1.182-38.453-17.427-35.694Z" transform="translate(-451.441 -194.152)" fill="#f06" fill-rule="evenodd"/>
    <path id="Path_15617" data-name="Path 15617" d="M1276.273,971.778a34.351,34.351,0,0,0,6.228,10.029l29.322-3.78c15.7-2.023,27.289,1.83,40.87,8.123l-4.18-15.07c-1.253-.012-8.43-9.174-21.916-8.906-10.494.208-38.437,6.723-50.324,9.6" transform="translate(-467.069 -472.141)" fill="#d5075a" fill-rule="evenodd"/>
    <path id="Path_15618" data-name="Path 15618" d="M1195.78,859.825c-7.075,10.486-1.468,29.232,5.617,35.907-13.214,4.766-28.824-21.72-8.885-34.1Z" transform="translate(-388.406 -385.818)" fill="#1a47b6" fill-rule="evenodd"/>
    <path id="Path_15619" data-name="Path 15619" d="M1294.643,743.324c17.8-5.916,30.309-11.038,40.142-21.956-6.439,10.652-17.949,15.694-29.36,19.429a64.456,64.456,0,0,1-10.781,2.528" transform="translate(-482.563 -269.034)" fill="#ff9898" fill-rule="evenodd"/>
    <path id="Path_15620" data-name="Path 15620" d="M1607.416,418.066c11.26-2.691,22.187,5.288,29.385,13.093,10.443,11.325,17.857,26.786,22.153,41.466,4,13.684,6.1,29.4,3.856,43.582-1.555,9.8-5.785,21.449-15.461,25.918a18.735,18.735,0,0,1-3.5,1.214c-11.26,2.691-22.186-5.288-29.385-13.094-10.443-11.324-17.856-26.786-22.152-41.465-4-13.684-6.1-29.4-3.856-43.582,1.555-9.8,5.785-21.449,15.461-25.918a18.72,18.72,0,0,1,3.5-1.214" transform="translate(-729.607 -12.758)" fill="#e56a9a" fill-rule="evenodd"/>
    <path id="Path_15621" data-name="Path 15621" d="M1631.89,439.678c16.866-4.031,38.3,19.206,47.864,51.9s3.651,62.468-13.216,66.5-38.3-19.205-47.864-51.9-3.651-62.468,13.216-66.5" transform="translate(-752.013 -31.053)" fill="#1a47b6" fill-rule="evenodd"/>
    <path id="Path_15622" data-name="Path 15622" d="M1643.829,639.775c-10.223-9.16-19.647-24.83-25.148-43.631-5.626-19.225-5.9-37.437-1.736-50,13.25-2.653,29.873,15.572,37.343,41.1,7.558,25.827,2.884,49.346-10.44,52.531Z" transform="translate(-752.02 -121.019)" fill="#1a3c90" fill-rule="evenodd"/>
    <path id="Path_15623" data-name="Path 15623" d="M1632.177,746.329a118.452,118.452,0,0,1-7.158-18.6,113.213,113.213,0,0,1-4.321-23.338,22.071,22.071,0,1,1,11.649,41.919Z" transform="translate(-757.581 -252.939)" fill="#a5cfdf" fill-rule="evenodd"/>
    <path id="Path_15624" data-name="Path 15624" d="M1629.636,740.738a120.634,120.634,0,0,1-4.619-13,113.19,113.19,0,0,1-4.322-23.339,19.384,19.384,0,1,1,8.941,36.343" transform="translate(-757.579 -252.94)" fill="#e4f5fb" fill-rule="evenodd"/>
    <path id="Path_15625" data-name="Path 15625" d="M1460.5,1072.176c3.665,6.14,3.9,8.263,8.035,17.823a20.219,20.219,0,0,0,2.1,3.635h7.684l-.361-.323a20.849,20.849,0,0,1-4.84-6.735c-4.139-9.56-4.369-11.683-8.035-17.823-.977-1.637-1.929-3.115-2.828-4.431l-6.428.829a83.8,83.8,0,0,1,4.675,7.026" transform="translate(-618.52 -558.305)" fill="#0c2d80" fill-rule="evenodd"/>
    <path id="Path_15626" data-name="Path 15626" d="M1482.53,1076.439a72.144,72.144,0,0,1,4.258,7.948c1.91,4.243,3.232,7.559,3.232,7.559l2.341-1.223-.122-9.63s-2.139-4.827-3.214-5.7-6.495,1.05-6.495,1.05" transform="translate(-641.041 -567.448)" fill="#0c2d80" fill-rule="evenodd"/>
    <path id="Path_15627" data-name="Path 15627" d="M1895.539,432.192h30.667a13.457,13.457,0,0,1,13.457,13.456v8.962a13.456,13.456,0,0,1-13.457,13.455h-23.493l-7.174,6.6v-6.6a13.455,13.455,0,0,1-13.457-13.455v-8.962a13.456,13.456,0,0,1,13.457-13.456" transform="translate(-978.052 -25.122)" fill="#f7941f" fill-rule="evenodd"/>
    <path id="Path_15628" data-name="Path 15628" d="M1974.585,527.423a3.594,3.594,0,1,0,3.593-3.593,3.594,3.594,0,0,0-3.593,3.593m15.96-3.593a3.593,3.593,0,1,1-3.593,3.593A3.594,3.594,0,0,1,1990.545,523.83Zm-21.975,3.593a3.593,3.593,0,1,1-3.595-3.593A3.593,3.593,0,0,1,1968.57,527.423Z" transform="translate(-1044.939 -102.416)" fill="#fff"/>
    <path id="Path_15629" data-name="Path 15629" d="M1985.13,955.723a16.744,16.744,0,1,1-16.743,16.744,16.743,16.743,0,0,1,16.743-16.744" transform="translate(-1050.847 -466.705)" fill="#f06" fill-rule="evenodd"/>
    <rect id="Rectangle_4351" data-name="Rectangle 4351" width="3.717" height="9.794" transform="matrix(0.932, -0.362, 0.362, 0.932, 925.143, 505.59)" fill="#fff"/>
    <path id="Path_15630" data-name="Path 15630" d="M2061.149,1005.422a1.662,1.662,0,0,0-1.848-.443l-6.769,2.336c.54-1.362-.4-4.016-.9-5.264a.747.747,0,0,0-1.438.24,8.2,8.2,0,0,1-.794,3.131,16.407,16.407,0,0,0-1.085,3.647l3.547,9.129,8.367-3.25a1.931,1.931,0,0,0,1.08-2.542c-.1-.234-.2-.479-.3-.73-.519-1.336,1.708-3.52,1.3-4.57a6.538,6.538,0,0,0-1.16-1.682" transform="translate(-1118.26 -505.385)" fill="#fff"/>
    <path id="Path_15631" data-name="Path 15631" d="M2220.01,691.909a16.744,16.744,0,1,1-16.744,16.744,16.743,16.743,0,0,1,16.744-16.744" transform="translate(-1248.961 -244.186)" fill="#f06" fill-rule="evenodd"/>
    <path id="Path_15632" data-name="Path 15632" d="M2265.977,748.975l2.337,5.42,5.876.547-4.433,3.9,1.3,5.758-5.076-3.011L2260.9,764.6l1.3-5.758-4.432-3.9,5.877-.547Z" transform="translate(-1294.928 -292.319)" fill="#fff" fill-rule="evenodd"/>
    <path id="Path_15633" data-name="Path 15633" d="M2029.931,757.364a10.679,10.679,0,1,1-14.123,5.352,10.679,10.679,0,0,1,14.123-5.352" transform="translate(-1090.049 -298.599)" fill="#f06" fill-rule="evenodd"/>
    <rect id="Rectangle_4352" data-name="Rectangle 4352" width="6.246" height="2.371" transform="translate(929.898 472.247) rotate(-86.988)" fill="#fff"/>
    <path id="Path_15634" data-name="Path 15634" d="M2077.508,791.117a1.06,1.06,0,0,0-.959-.742L2072,789.96c.671-.651.82-2.44.853-3.3a.476.476,0,0,0-.9-.237,5.243,5.243,0,0,1-1.282,1.613,10.472,10.472,0,0,0-1.586,1.837l-.329,6.238,5.718.3a1.231,1.231,0,0,0,1.294-1.195c.005-.162.011-.33.02-.5.048-.913,1.915-1.6,1.953-2.318a4.184,4.184,0,0,0-.234-1.282" transform="translate(-1135.506 -323.689)" fill="#fff"/>
  </g>
</svg>
