<svg xmlns="http://www.w3.org/2000/svg" width="186.23" height="183.206" viewBox="0 0 186.23 183.206">
  <g id="Group_6021" data-name="Group 6021" transform="translate(-77.46 -72.48)">
    <g id="Chat">
      <g id="Group_6013" data-name="Group 6013">
        <path id="Path_15186" data-name="Path 15186" d="M132.722,247.681h123.27l7.7,8.005v-48.52A10.692,10.692,0,0,0,253,196.474H132.722a10.692,10.692,0,0,0-10.692,10.692v29.823A10.692,10.692,0,0,0,132.722,247.681Z" fill="#407bff"/>
        <path id="Path_15187" data-name="Path 15187" d="M132.722,247.681h123.27l7.7,8.005v-48.52A10.692,10.692,0,0,0,253,196.474H132.722a10.692,10.692,0,0,0-10.692,10.692v29.823A10.692,10.692,0,0,0,132.722,247.681Z" fill="#fff" opacity="0.4" style="isolation: isolate"/>
        <g id="Group_6012" data-name="Group 6012">
          <line id="Line_2712" data-name="Line 2712" x1="111" transform="translate(138 209)" fill="none" stroke="#407bff" stroke-linecap="round" stroke-linejoin="round" stroke-width="2"/>
          <line id="Line_2713" data-name="Line 2713" x1="111" transform="translate(138 221)" fill="none" stroke="#407bff" stroke-linecap="round" stroke-linejoin="round" stroke-width="2"/>
          <line id="Line_2714" data-name="Line 2714" x1="89" transform="translate(138 233)" fill="none" stroke="#407bff" stroke-linecap="round" stroke-linejoin="round" stroke-width="2"/>
        </g>
        <path id="Path_15188" data-name="Path 15188" d="M132.722,247.681h123.27l7.7,8.005v-48.52A10.692,10.692,0,0,0,253,196.474H132.722a10.692,10.692,0,0,0-10.692,10.692v29.823A10.692,10.692,0,0,0,132.722,247.681Z" fill="#fff" opacity="0.3" style="isolation: isolate"/>
      </g>
      <g id="Group_6015" data-name="Group 6015">
        <path id="Path_15189" data-name="Path 15189" d="M221,180.681H97.728l-7.7,8.005v-48.52a10.692,10.692,0,0,1,10.692-10.692H221a10.692,10.692,0,0,1,10.692,10.692v29.823A10.692,10.692,0,0,1,221,180.681Z" fill="#407bff"/>
        <g id="Group_6014" data-name="Group 6014">
          <line id="Line_2715" data-name="Line 2715" x2="79" transform="translate(137 142)" fill="none" stroke="#fff" stroke-linecap="round" stroke-linejoin="round" stroke-width="2"/>
          <line id="Line_2716" data-name="Line 2716" x2="79" transform="translate(137 154)" fill="none" stroke="#fff" stroke-linecap="round" stroke-linejoin="round" stroke-width="2"/>
          <line id="Line_2717" data-name="Line 2717" x2="57" transform="translate(137 166)" fill="none" stroke="#fff" stroke-linecap="round" stroke-linejoin="round" stroke-width="2"/>
        </g>
      </g>
      <g id="Group_6017" data-name="Group 6017">
        <path id="Path_15190" data-name="Path 15190" d="M176.722,113.681h79.27l7.7,8V83.172A10.692,10.692,0,0,0,253,72.48H176.722A10.692,10.692,0,0,0,166.03,83.172v19.817A10.692,10.692,0,0,0,176.722,113.681Z" fill="#407bff"/>
        <path id="Path_15191" data-name="Path 15191" d="M176.722,113.681h79.27l7.7,8V83.172A10.692,10.692,0,0,0,253,72.48H176.722A10.692,10.692,0,0,0,166.03,83.172v19.817A10.692,10.692,0,0,0,176.722,113.681Z" fill="#fff" opacity="0.4" style="isolation: isolate"/>
        <g id="Group_6016" data-name="Group 6016">
          <line id="Line_2718" data-name="Line 2718" x1="67" transform="translate(182 87)" fill="none" stroke="#407bff" stroke-linecap="round" stroke-linejoin="round" stroke-width="2"/>
          <line id="Line_2719" data-name="Line 2719" x1="45" transform="translate(182 99)" fill="none" stroke="#407bff" stroke-linecap="round" stroke-linejoin="round" stroke-width="2"/>
        </g>
        <path id="Path_15192" data-name="Path 15192" d="M176.722,113.681h79.27l7.7,8V83.172A10.692,10.692,0,0,0,253,72.48H176.722A10.692,10.692,0,0,0,166.03,83.172v19.817A10.692,10.692,0,0,0,176.722,113.681Z" fill="#fff" opacity="0.3" style="isolation: isolate"/>
      </g>
    </g>
    <g id="Character2">
      <g id="Group_6020" data-name="Group 6020">
        <path id="Path_15193" data-name="Path 15193" d="M127.41,145.98A24.975,24.975,0,1,1,102.44,121,24.839,24.839,0,0,1,127.41,145.98Z" fill="#407bff"/>
        <path id="Path_15194" data-name="Path 15194" d="M127.41,145.98A24.975,24.975,0,1,1,102.44,121,24.839,24.839,0,0,1,127.41,145.98Z" fill="#fff" opacity="0.5" style="isolation: isolate"/>
        <g id="Group_6019" data-name="Group 6019">
          <path id="Path_15195" data-name="Path 15195" d="M120.6,163.12a24.949,24.949,0,0,1-36.02.31c1.17-.22,2.44-.45,3.74-.65,1.1-.18,2.24-.35,3.36-.48a154.22,154.22,0,0,1,17.84-1.24c.73.01,1.45.08,2.17.08,1.86.11,3.63.3,5.16.49A7.885,7.885,0,0,1,120.6,163.12Z" fill="#2e353a"/>
          <path id="Path_15196" data-name="Path 15196" d="M115.05,127.417s1.333,8.916-4.417,13.083-5.75-16-5.75-16Z" fill="#2e353a"/>
          <path id="Path_15197" data-name="Path 15197" d="M91.67,162.25c3.83,3.48,13.213,2.193,13.213,2.193s5.857-1.6,4.627-3.433c-3.45-.57-5.12-2.18-5.81-4.24a10.029,10.029,0,0,1-.35-3.94,20.711,20.711,0,0,1,.29-2.2l-11.6-8.59C93.56,147.71,95.42,158.14,91.67,162.25Z" fill="#e4897b"/>
          <path id="Path_15198" data-name="Path 15198" d="M94.72,147.5c.46,6.96,6.18,8.88,8.98,9.27a10.029,10.029,0,0,1-.35-3.94Z" opacity="0.2" style="isolation: isolate"/>
          <path id="Path_15199" data-name="Path 15199" d="M93.94,149.11a9.833,9.833,0,0,0,11.29,3.81,10.951,10.951,0,0,0,6.25-5.09,11.206,11.206,0,0,0,.52-1.04c2.83-6.62,3.73-18.2-3.27-22.54a10.663,10.663,0,0,0-16.28,8.03C91.59,140.02,90.72,144.53,93.94,149.11Z" fill="#e4897b"/>
          <path id="Path_15200" data-name="Path 15200" d="M103.733,136.416c-.149.612.133,1.185.549,1.255s.824-.386.935-1.008-.143-1.187-.549-1.255S103.846,135.784,103.733,136.416Z" fill="#2e353a"/>
          <path id="Path_15201" data-name="Path 15201" d="M110.8,137.622c-.149.612.143,1.187.549,1.255s.825-.386.935-1.007-.143-1.188-.549-1.256S110.9,137.029,110.8,137.622Z" fill="#2e353a"/>
          <path id="Path_15202" data-name="Path 15202" d="M108.5,137.546a22.585,22.585,0,0,0,2.073,5.857,3.673,3.673,0,0,1-3.1.048Z" fill="#de5753"/>
          <path id="Path_15203" data-name="Path 15203" d="M101.932,133.753a.388.388,0,0,0,.38-.082,3,3,0,0,1,2.559-.828.37.37,0,1,0,.177-.718h0a3.692,3.692,0,0,0-3.239,1,.37.37,0,0,0-.032.522l.006.007A.576.576,0,0,0,101.932,133.753Z" fill="#2e353a"/>
          <path id="Path_15204" data-name="Path 15204" d="M105.907,146.514h0a5.716,5.716,0,0,1-4.631-2.52.2.2,0,0,1,.07-.27.19.19,0,0,1,.263.057l.008.012a5.471,5.471,0,0,0,4.309,2.321.191.191,0,0,1,.192.188v.022a.191.191,0,0,1-.19.191Z" fill="#2e353a"/>
          <path id="Path_15205" data-name="Path 15205" d="M114.25,135.7a.351.351,0,0,0,.214.052.369.369,0,0,0,.259-.454l0-.008a3.693,3.693,0,0,0-2.291-2.514.37.37,0,0,0-.461.247h0a.379.379,0,0,0,.248.462h0A3,3,0,0,1,114,135.509.378.378,0,0,0,114.25,135.7Z" fill="#2e353a"/>
          <g id="Group_6018" data-name="Group 6018">
            <path id="Path_15206" data-name="Path 15206" d="M93.38,157.833l11.088,5,.65-4.008,4.076,1.434a3.351,3.351,0,0,1,2.221,3.509l-.46,4.4-5.626-3.079-2.8,3.965-13.319-6.415Z" fill="#407bff"/>
          </g>
          <path id="Path_15207" data-name="Path 15207" d="M102.437,126.5a21.667,21.667,0,0,0,6.587,4l-2.149-4s5,4.4,10.125,6.265c0,0,2.25-11.14-10.882-15.515C95.008,113.549,93.03,121,93.03,121c-7.03-2.125-14.9,17.884.316,27.184,0,0-1.221-7.791.654-9.3S103.123,132.625,102.437,126.5Z" fill="#2e353a"/>
          <path id="Path_15208" data-name="Path 15208" d="M88.022,138a7.408,7.408,0,0,0,3.556,4.407c2.288,1.23,4-.683,3.844-3.142-.159-2.183-1.517-5.522-4.052-5.713S87.37,135.682,88.022,138Z" fill="#e4897b"/>
        </g>
      </g>
    </g>
  </g>
</svg>
