<svg xmlns="http://www.w3.org/2000/svg" width="275.066" height="185.012" viewBox="0 0 275.066 185.012">
  <g id="Group_6439" data-name="Group 6439" transform="translate(-312.397 -182.696)">
    <g id="Group_6438" data-name="Group 6438" transform="translate(312.397 182.696)">
      <g id="Group_6437" data-name="Group 6437">
        <g id="Group_6414" data-name="Group 6414" transform="translate(152.515)">
          <g id="Group_6412" data-name="Group 6412" transform="translate(0)">
            <path id="Path_15640" data-name="Path 15640" d="M571.488,298.7a19.656,19.656,0,0,0-14.5,3.121,19.269,19.269,0,0,0,26.925,4.987A19.655,19.655,0,0,0,571.488,298.7Z" transform="translate(-498.684 -198.67)" fill="#22751b"/>
            <path id="Path_15641" data-name="Path 15641" d="M512.289,228.375a19.653,19.653,0,0,0-13.118,6.926,19.269,19.269,0,0,0,27.271-2.481A19.66,19.66,0,0,0,512.289,228.375Z" transform="translate(-490.701 -188.993)" fill="#22751b"/>
            <path id="Path_15642" data-name="Path 15642" d="M614.792,268.615a19.658,19.658,0,0,0-14.5,3.121,19.27,19.27,0,0,0,26.925,4.987A19.656,19.656,0,0,0,614.792,268.615Z" transform="translate(-504.664 -194.516)" fill="#22751b"/>
            <path id="Path_15643" data-name="Path 15643" d="M520.578,260.419a19.658,19.658,0,0,0-14.5,3.121A19.269,19.269,0,0,0,533,268.528,19.653,19.653,0,0,0,520.578,260.419Z" transform="translate(-491.655 -193.385)" fill="#22751b"/>
            <path id="Path_15644" data-name="Path 15644" d="M523.631,208.549a19.655,19.655,0,0,0-.913,14.806,19.269,19.269,0,0,0,12.075-24.576A19.659,19.659,0,0,0,523.631,208.549Z" transform="translate(-493.811 -184.917)" fill="#22751b"/>
            <path id="Path_15645" data-name="Path 15645" d="M565.9,196.984a19.654,19.654,0,0,0-9.284-11.57,19.268,19.268,0,0,0,7.6,26.308A19.653,19.653,0,0,0,565.9,196.984Z" transform="translate(-498.298 -183.072)" fill="#22751b"/>
            <path id="Path_15646" data-name="Path 15646" d="M561.474,278.369a19.655,19.655,0,0,0-9.285-11.57,19.27,19.27,0,0,0,7.6,26.308A19.656,19.656,0,0,0,561.474,278.369Z" transform="translate(-497.687 -194.309)" fill="#22751b"/>
            <path id="Path_15647" data-name="Path 15647" d="M584.648,200.691A18.906,18.906,0,0,0,571,207.9a18.032,18.032,0,0,0,27.87-1.216A18.906,18.906,0,0,0,584.648,200.691Z" transform="translate(-500.62 -185.179)" fill="#22751b"/>
            <path id="Path_15648" data-name="Path 15648" d="M585.759,246.55a14.43,14.43,0,0,0-5.907,9.147,14.142,14.142,0,0,0,16.561-11.386A14.427,14.427,0,0,0,585.759,246.55Z" transform="translate(-501.842 -191.174)" fill="#22751b"/>
            <path id="Path_15649" data-name="Path 15649" d="M522.578,288.578a14.424,14.424,0,0,0-5.906,9.146,14.143,14.143,0,0,0,16.561-11.385A14.429,14.429,0,0,0,522.578,288.578Z" transform="translate(-493.118 -196.977)" fill="#22751b"/>
            <path id="Path_15650" data-name="Path 15650" d="M582.1,232.352a9.67,9.67,0,0,0-2.176,6.97,9.485,9.485,0,0,0,8.657-10.328A9.672,9.672,0,0,0,582.1,232.352Z" transform="translate(-501.847 -189.089)" fill="#22751b"/>
            <path id="Path_15651" data-name="Path 15651" d="M534.462,308.624a9.673,9.673,0,0,0-2.175,6.969,9.485,9.485,0,0,0,8.658-10.328A9.673,9.673,0,0,0,534.462,308.624Z" transform="translate(-495.27 -199.62)" fill="#22751b"/>
            <path id="Path_15652" data-name="Path 15652" d="M540.281,235.559a9.677,9.677,0,0,0-2.175,6.969,9.485,9.485,0,0,0,8.657-10.328A9.675,9.675,0,0,0,540.281,235.559Z" transform="translate(-496.074 -189.532)" fill="#22751b"/>
            <path id="Path_15653" data-name="Path 15653" d="M512.138,192.127a9.674,9.674,0,0,0-2.175,6.97,9.485,9.485,0,0,0,8.657-10.329A9.677,9.677,0,0,0,512.138,192.127Z" transform="translate(-492.188 -183.535)" fill="#22751b"/>
            <path id="Path_15654" data-name="Path 15654" d="M613.98,252.561a9.67,9.67,0,0,0-2.175,6.969,9.484,9.484,0,0,0,8.658-10.328A9.669,9.669,0,0,0,613.98,252.561Z" transform="translate(-506.25 -191.879)" fill="#22751b"/>
            <path id="Path_15655" data-name="Path 15655" d="M574.235,244.621a9.675,9.675,0,0,0-7.119-1.62,9.483,9.483,0,0,0,10.977,7.818A9.674,9.674,0,0,0,574.235,244.621Z" transform="translate(-500.083 -191.007)" fill="#22751b"/>
            <path id="Path_15656" data-name="Path 15656" d="M533.4,248.017a9.676,9.676,0,0,0-7.119-1.62,9.483,9.483,0,0,0,10.978,7.818A9.677,9.677,0,0,0,533.4,248.017Z" transform="translate(-494.444 -191.476)" fill="#22751b"/>
            <path id="Path_15657" data-name="Path 15657" d="M497.992,187.152a9.673,9.673,0,0,0-7.119-1.62,9.485,9.485,0,0,0,10.977,7.818A9.671,9.671,0,0,0,497.992,187.152Z" transform="translate(-489.556 -183.072)" fill="#22751b"/>
            <path id="Path_15658" data-name="Path 15658" d="M548.964,216.81a14.429,14.429,0,0,0-10.883-.311,14.142,14.142,0,0,0,18.32,8.263A14.432,14.432,0,0,0,548.964,216.81Z" transform="translate(-496.074 -187.238)" fill="#22751b"/>
            <path id="Path_15659" data-name="Path 15659" d="M566.832,225.251a14.428,14.428,0,0,0-9.846,4.647,14.142,14.142,0,0,0,20.076-.921A14.428,14.428,0,0,0,566.832,225.251Z" transform="translate(-498.684 -188.57)" fill="#22751b"/>
            <path id="Path_15660" data-name="Path 15660" d="M593.72,286.247a14.428,14.428,0,0,0-10.832,1.1,14.141,14.141,0,0,0,19.234,5.827A14.428,14.428,0,0,0,593.72,286.247Z" transform="translate(-502.261 -196.912)" fill="#22751b"/>
            <path id="Path_15661" data-name="Path 15661" d="M570.79,260.806a14.424,14.424,0,0,0-10.857.819,14.144,14.144,0,0,0,19.078,6.32A14.426,14.426,0,0,0,570.79,260.806Z" transform="translate(-499.091 -193.385)" fill="#22751b"/>
            <ellipse id="Ellipse_723" data-name="Ellipse 723" cx="4.191" cy="10.049" rx="4.191" ry="10.049" transform="matrix(0.314, -0.949, 0.949, 0.314, 0, 22.929)" fill="#22751b"/>
            <path id="Path_15662" data-name="Path 15662" d="M590.1,185.153a14.426,14.426,0,0,0-5.907,9.146,14.143,14.143,0,0,0,16.562-11.385A14.424,14.424,0,0,0,590.1,185.153Z" transform="translate(-502.441 -182.696)" fill="#22751b"/>
            <g id="Group_6408" data-name="Group 6408" transform="translate(9.763 8.243)">
              <path id="Path_15663" data-name="Path 15663" d="M547.51,316.045l-12.547-30.559c-1.839-4.479-3.74-9.109-4.273-14.047-.546-5.058.395-10.153,1.3-15.081.241-1.309.483-2.617.7-3.924.9-5.507,1.537-12.576-1.636-18.4-2.042-3.749-5.472-6.583-8.79-9.325-3.49-2.883-7.1-5.864-9.17-9.944a33.158,33.158,0,0,1-2.3-6.888,39.106,39.106,0,0,0-1.77-5.716,19.2,19.2,0,0,0-8.352-9.233l.368-.667a19.958,19.958,0,0,1,8.684,9.6,39.678,39.678,0,0,1,1.807,5.827,32.551,32.551,0,0,0,2.245,6.732c2,3.938,5.546,6.869,8.975,9.7,3.373,2.787,6.861,5.669,8.973,9.547,3.283,6.027,2.644,13.261,1.719,18.889-.215,1.311-.458,2.625-.7,3.938-.9,4.874-1.829,9.913-1.3,14.861.521,4.831,2.4,9.41,4.219,13.838l12.547,30.559Z" transform="translate(-500.672 -192.26)" fill="#22751b"/>
            </g>
            <g id="Group_6409" data-name="Group 6409" transform="translate(42.525 9.83)">
              <path id="Path_15664" data-name="Path 15664" d="M539.995,247.826a1.776,1.776,0,0,1-1.313-.5l.568-.508a1.178,1.178,0,0,0,1.064.219c1.747-.315,5.688-3.2,12.446-18.952,10.005-23.327,27.343-33.878,27.518-33.982l.39.654c-.171.1-17.3,10.54-27.207,33.628-6.6,15.377-10.747,19.043-13.069,19.411A2.517,2.517,0,0,1,539.995,247.826Z" transform="translate(-538.682 -194.101)" fill="#22751b"/>
            </g>
            <g id="Group_6410" data-name="Group 6410" transform="translate(50.796 62.933)">
              <path id="Path_15665" data-name="Path 15665" d="M549.017,310.659l-.739-.189c.054-.209,5.508-20.934,19.782-23.27,13.891-2.273,37.975-31.2,38.217-31.489l.587.485c-.994,1.2-24.511,29.436-38.681,31.756C554.4,290.208,549.068,310.455,549.017,310.659Z" transform="translate(-548.278 -255.711)" fill="#22751b"/>
            </g>
            <g id="Group_6411" data-name="Group 6411" transform="translate(77.64 47.787)">
              <path id="Path_15666" data-name="Path 15666" d="M584.4,279.583l-.742-.172c.011-.043.957-4.457-2.311-14.007-3.343-9.775-1.328-27.09-1.307-27.264l.755.091c-.02.172-2.013,17.317,1.274,26.926C585.423,274.953,584.447,279.4,584.4,279.583Z" transform="translate(-579.423 -238.139)" fill="#548a13"/>
            </g>
          </g>
          <g id="Group_6413" data-name="Group 6413" transform="translate(29.962 131.705)">
            <path id="Path_15667" data-name="Path 15667" d="M557.58,377.728H542.123a7.38,7.38,0,0,1-7.252-6.008L528.02,335.5h43.662l-6.851,36.219A7.38,7.38,0,0,1,557.58,377.728Z" transform="translate(-524.647 -335.501)" fill="#f88732"/>
            <rect id="Rectangle_4354" data-name="Rectangle 4354" width="51.203" height="5.198" fill="#f37719"/>
          </g>
        </g>
        <g id="Group_6431" data-name="Group 6431" transform="translate(0 45.674)">
          <path id="Path_15668" data-name="Path 15668" d="M448.525,392.229c-.226,3.193-30.883,3.623-68.474.961s-67.881-7.409-67.654-10.6,30.883-3.624,68.473-.961S448.752,389.035,448.525,392.229Z" transform="translate(-312.397 -255.597)" fill="#f0f0f0" style="mix-blend-mode: multiply;isolation: isolate"/>
          <g id="Group_6430" data-name="Group 6430" transform="translate(6.389)">
            <g id="Group_6425" data-name="Group 6425" transform="translate(31.428)">
              <g id="Group_6423" data-name="Group 6423">
                <path id="Path_15669" data-name="Path 15669" d="M433.4,240.948l-10.319,89.8-66.805-5.5,13.223-89.564Z" transform="translate(-356.272 -235.687)" fill="#f88732"/>
                <path id="Path_15670" data-name="Path 15670" d="M444.095,241.791l-.07,85.084-10.249,4.718Z" transform="translate(-366.973 -236.53)" fill="#f37719"/>
              </g>
              <g id="Group_6424" data-name="Group 6424" transform="translate(31.675 1.628)">
                <path id="Path_15671" data-name="Path 15671" d="M417.963,249.208c-1.406,5.345-4.513,9.615-8.53,11.7a12.226,12.226,0,0,1-6.645,1.324,10.391,10.391,0,0,1-7.438-3.785c-2.108-2.718-2.778-6.575-2.042-11.777.109-.8.24-1.589.371-2.389a33.145,33.145,0,0,0,.654-6.7l2.194.18a35.872,35.872,0,0,1-.691,6.882c-.122.779-.253,1.558-.367,2.331-.649,4.6-.125,7.907,1.607,10.141,2.359,3.046,7.451,3.882,11.346,1.863,3.475-1.8,6.183-5.565,7.429-10.317a37.6,37.6,0,0,0,1.008-9.223l2.178.179A38.693,38.693,0,0,1,417.963,249.208Z" transform="translate(-393.02 -237.575)" fill="#2a2a7b"/>
              </g>
            </g>
            <g id="Group_6428" data-name="Group 6428" transform="translate(15.184 32.877)">
              <g id="Group_6426" data-name="Group 6426">
                <path id="Path_15672" data-name="Path 15672" d="M385,277.076l-6.365,55.393-41.207-3.393,8.156-55.245Z" transform="translate(-337.425 -273.831)" fill="#8678fa"/>
                <path id="Path_15673" data-name="Path 15673" d="M391.6,277.6l.956,55.535-7.321-.142Z" transform="translate(-344.026 -274.35)" fill="#2b2981"/>
              </g>
              <g id="Group_6427" data-name="Group 6427" transform="translate(19.537 1.004)">
                <path id="Path_15674" data-name="Path 15674" d="M375.477,282.171a11.122,11.122,0,0,1-5.261,7.214,7.542,7.542,0,0,1-4.1.817,6.41,6.41,0,0,1-4.588-2.335c-1.3-1.676-1.713-4.055-1.26-7.264.068-.49.148-.98.23-1.474a20.482,20.482,0,0,0,.4-4.134l1.352.111a22.143,22.143,0,0,1-.426,4.245c-.076.48-.156.961-.227,1.438-.4,2.835-.077,4.878.991,6.255,1.455,1.878,4.6,2.394,7,1.149a9.786,9.786,0,0,0,4.582-6.364,23.153,23.153,0,0,0,.622-5.689l1.344.11A23.852,23.852,0,0,1,375.477,282.171Z" transform="translate(-360.092 -274.995)" fill="#dce5f2"/>
              </g>
            </g>
            <g id="Group_6429" data-name="Group 6429" transform="translate(0 12.489)">
              <path id="Path_15675" data-name="Path 15675" d="M482.6,252.508l-29.745-2.331L425.3,333.354l-90.118-7.063-15.37-64.763,126.264,9.007" transform="translate(-319.808 -250.176)" fill="none" stroke="#1d2582" stroke-linejoin="round" stroke-width="3"/>
              <path id="Path_15676" data-name="Path 15676" d="M427.742,346.679l1.031.081c5.123.4,9.161,2.2,8.134,15.305h0a9.305,9.305,0,0,1-10,8.549l-89.381-7.006" transform="translate(-322.254 -263.501)" fill="none" stroke="#1d2582" stroke-linejoin="round" stroke-width="3"/>
              <path id="Path_15677" data-name="Path 15677" d="M421.815,381.129a8.567,8.567,0,1,0,9.21-7.871A8.566,8.566,0,0,0,421.815,381.129Z" transform="translate(-333.89 -267.168)" fill="#1d2582"/>
              <path id="Path_15678" data-name="Path 15678" d="M341.52,374.836a8.567,8.567,0,1,0,9.21-7.871A8.567,8.567,0,0,0,341.52,374.836Z" transform="translate(-322.803 -266.299)" fill="#1d2582"/>
              <line id="Line_2735" data-name="Line 2735" x1="7.579" y2="62.669" transform="translate(92.281 18.882)" fill="none" stroke="#1d2582" stroke-linejoin="round" stroke-width="3"/>
              <line id="Line_2736" data-name="Line 2736" x1="6.253" y2="62.772" transform="translate(75.2 17.439)" fill="none" stroke="#1d2582" stroke-linejoin="round" stroke-width="3"/>
              <line id="Line_2737" data-name="Line 2737" x1="4.928" y2="62.876" transform="translate(58.119 15.996)" fill="none" stroke="#1d2582" stroke-linejoin="round" stroke-width="3"/>
              <line id="Line_2738" data-name="Line 2738" x1="3.603" y2="62.98" transform="translate(41.037 14.554)" fill="none" stroke="#1d2582" stroke-linejoin="round" stroke-width="3"/>
              <line id="Line_2739" data-name="Line 2739" x1="0.952" y2="63.188" transform="translate(23.956 13.007)" fill="none" stroke="#1d2582" stroke-linejoin="round" stroke-width="3"/>
              <line id="Line_2740" data-name="Line 2740" x1="115.003" y1="9.014" transform="translate(4.459 30.072)" fill="none" stroke="#1d2582" stroke-linejoin="round" stroke-width="3"/>
              <line id="Line_2741" data-name="Line 2741" x1="100.131" y1="7.848" transform="translate(11.141 54.449)" fill="none" stroke="#1d2582" stroke-linejoin="round" stroke-width="3"/>
            </g>
          </g>
        </g>
        <g id="Group_6434" data-name="Group 6434" transform="translate(151.621 122.368)">
          <g id="Group_6432" data-name="Group 6432">
            <path id="Path_15679" data-name="Path 15679" d="M533.3,325.177l-2.563,57.165-42.43-.533,4.407-57.142Z" transform="translate(-488.307 -324.667)" fill="#8678fa"/>
            <path id="Path_15680" data-name="Path 15680" d="M540.094,325.258l4.943,56.788-7.506.377Z" transform="translate(-495.103 -324.749)" fill="#2b2981"/>
          </g>
          <g id="Group_6433" data-name="Group 6433" transform="translate(16.663 0.157)">
            <path id="Path_15681" data-name="Path 15681" d="M523.37,331.156a11.407,11.407,0,0,1-4.872,7.762,7.745,7.745,0,0,1-4.137,1.129,6.58,6.58,0,0,1-4.864-2.063c-1.452-1.623-2.044-4.029-1.808-7.347.034-.507.082-1.014.13-1.526a21.066,21.066,0,0,0,.118-4.26l1.393.017a22.741,22.741,0,0,1-.134,4.376c-.043.5-.09,1-.129,1.489-.208,2.931.269,5,1.461,6.333,1.624,1.819,4.877,2.124,7.247.677a10.042,10.042,0,0,0,4.237-6.843,23.812,23.812,0,0,0,.231-5.87l1.383.018A24.491,24.491,0,0,1,523.37,331.156Z" transform="translate(-507.639 -324.85)" fill="#dce5f2"/>
          </g>
        </g>
      </g>
    </g>
  </g>
</svg>
