<svg xmlns="http://www.w3.org/2000/svg" width="20" height="17.623" viewBox="0 0 20 17.623">
  <path id="Fill_1161" data-name="Fill 1161" d="M10,17.623a3.653,3.653,0,0,1-1.948-.78,18.587,18.587,0,0,1-2.1-1.716C4.707,13.969,3.221,12.412,1.539,10.5a6.416,6.416,0,0,1,.252-8.614A5.971,5.971,0,0,1,10,1.41a5.976,5.976,0,0,1,8.211.474,6.416,6.416,0,0,1,.252,8.614c-1.682,1.914-3.168,3.471-4.417,4.629a18.587,18.587,0,0,1-2.1,1.716A3.653,3.653,0,0,1,10,17.623ZM6.149,1.772h0A4.341,4.341,0,0,0,2.992,3.139a4.589,4.589,0,0,0-.2,6.16c1.646,1.872,3.09,3.386,4.293,4.5a16.8,16.8,0,0,0,1.89,1.554,2.552,2.552,0,0,0,1.027.5,2.552,2.552,0,0,0,1.027-.5,16.8,16.8,0,0,0,1.89-1.554c1.2-1.114,2.647-2.628,4.293-4.5a4.59,4.59,0,0,0-.2-6.16A4.324,4.324,0,0,0,11.063,2.8L10,3.683,8.937,2.8A4.361,4.361,0,0,0,6.149,1.773Z" transform="translate(0 0)" fill="#1f4282"/>
</svg>
