<svg xmlns="http://www.w3.org/2000/svg" xmlns:xlink="http://www.w3.org/1999/xlink" width="130" height="118.122" viewBox="0 0 130 118.122">
  <defs>
    <linearGradient id="linear-gradient" x1="0.286" y1="0.804" x2="0.652" y2="-0.158" gradientUnits="objectBoundingBox">
      <stop offset="0" stop-color="#00041d"/>
      <stop offset="1" stop-color="#0e2756"/>
    </linearGradient>
  </defs>
  <g id="Group_21" data-name="Group 21" transform="translate(-148.397 572.267)">
    <g id="Group_19" data-name="Group 19" transform="translate(148.397 -504.203)">
      <path id="Path_55" data-name="Path 55" d="M159.259-491.766l-7.456-9.825H148.4l10.862,14.313,10.862-14.313h-3.406Z" transform="translate(-148.397 502.999)" fill="#0e2756"/>
      <path id="Path_56" data-name="Path 56" d="M177.359-482.679h3.047l7.329-14.316,7.329,14.316h3.048l-10.377-20.27Z" transform="translate(-148.891 503.022)" fill="#0e2756"/>
      <rect id="Rectangle_37" data-name="Rectangle 37" width="12.387" height="2.713" transform="translate(4.668 17.546)" fill="#0e2756"/>
      <path id="Path_57" data-name="Path 57" d="M216.5-491.456H223.7a7.345,7.345,0,0,1-7.207,5.981,7.345,7.345,0,0,1-7.337-7.338,7.345,7.345,0,0,1,7.337-7.337v-2.713a10.062,10.062,0,0,0-10.05,10.05,10.062,10.062,0,0,0,10.05,10.051,10.062,10.062,0,0,0,10.051-10.051h-.012c0-.04.012-.08.012-.121v-1.236H216.5Z" transform="translate(-149.387 503.02)" fill="#0e2756"/>
      <path id="Path_58" data-name="Path 58" d="M245.694-503.023a10.22,10.22,0,0,0-10.208,10.208,10.22,10.22,0,0,0,10.208,10.209A10.22,10.22,0,0,0,255.9-492.815,10.22,10.22,0,0,0,245.694-503.023Zm0,17.7a7.5,7.5,0,0,1-7.5-7.5,7.5,7.5,0,0,1,7.5-7.5,7.5,7.5,0,0,1,7.5,7.5A7.5,7.5,0,0,1,245.694-485.319Z" transform="translate(-149.882 503.023)" fill="#0e2756"/>
      <path id="Path_59" data-name="Path 59" d="M264.824-502.862v2.713h6.423v17.388h2.713v-17.388h6.422v-2.713Z" transform="translate(-150.382 503.02)" fill="#0e2756"/>
    </g>
    <g id="Group_20" data-name="Group 20" transform="translate(168.092 -477.395)">
      <path id="Path_60" data-name="Path 60" d="M184.109-460.438h-9.445a4.264,4.264,0,0,1-3.039-.954,3.21,3.21,0,0,1-1-2.437v-3.065h-2.186v3.266a5.191,5.191,0,0,0,.7,2.713,4.668,4.668,0,0,0,2.009,1.821,6.891,6.891,0,0,0,3.065.64H186.3v-12.133h-2.186Z" transform="translate(-168.434 475.662)" fill="#0e2756"/>
      <path id="Path_61" data-name="Path 61" d="M209.735-469.975a6.005,6.005,0,0,0-2.248,2.261,6.009,6.009,0,0,0-.779,2.976,5.672,5.672,0,0,0,.54,2.5,4.4,4.4,0,0,0,1.57,1.8h-8.089v-10.4h-4.32a6.671,6.671,0,0,0-3.454.867,5.837,5.837,0,0,0-2.236,2.3,6.4,6.4,0,0,0-.766,3.065,6.708,6.708,0,0,0,.716,3.09,5.46,5.46,0,0,0,2.085,2.235,6.165,6.165,0,0,0,3.254.829h.829l-.018-1.985h-.686a3.651,3.651,0,0,1-2.889-1.168,4.161,4.161,0,0,1-1.029-2.852,4.632,4.632,0,0,1,1.08-3.152,3.751,3.751,0,0,1,2.989-1.243h2.235v10.4c0,1.206-.753,3.894-4.471,3.894v2.138c5.543,0,6.665-4.291,6.682-6.032h16.755v-12.384h-4.32A6.625,6.625,0,0,0,209.735-469.975Zm5.564,9.533h-2.311a4.016,4.016,0,0,1-2.136-.552,3.688,3.688,0,0,1-1.381-1.47,4.257,4.257,0,0,1-.477-2,4.637,4.637,0,0,1,1.079-3.152,3.724,3.724,0,0,1,2.965-1.243H215.3Z" transform="translate(-168.801 475.666)" fill="#0e2756"/>
      <path id="Path_62" data-name="Path 62" d="M250.817-460.526h-7.285q-3.114,0-4.12-1.707a5.3,5.3,0,0,0,.2-1.407v-7.135h-2.185v6.934a3.345,3.345,0,0,1-.88,2.374,2.953,2.953,0,0,1-2.261.942H226.5a2.1,2.1,0,0,1-1.57-.527,2.422,2.422,0,0,1-.515-1.734V-475.75h-2.211v13.115a4.4,4.4,0,0,0,.967,2.964,3.637,3.637,0,0,0,2.926,1.13h8.591a4.721,4.721,0,0,0,2.312-.565,4.811,4.811,0,0,0,1.683-1.52,5.033,5.033,0,0,0,1.959,1.583,7.148,7.148,0,0,0,2.889.5H253V-475.75h-2.186Z" transform="translate(-169.351 475.75)" fill="#0e2756"/>
      <rect id="Rectangle_38" data-name="Rectangle 38" width="2.185" height="17.209" transform="translate(88.425)" fill="#0e2756"/>
      <rect id="Rectangle_39" data-name="Rectangle 39" width="5.074" height="2.537" transform="translate(10.596 2.537)" fill="#0e2756"/>
      <rect id="Rectangle_40" data-name="Rectangle 40" width="5.074" height="2.537" transform="translate(43.61)" fill="#0e2756"/>
      <rect id="Rectangle_41" data-name="Rectangle 41" width="5.074" height="2.537" transform="translate(58.414 20.713)" fill="#0e2756"/>
    </g>
    <path id="Path_63" data-name="Path 63" d="M251.725-559.524l-26.388,26.389-1.965-1.965,26.389-26.388Zm-31.782,27.853-5.382,5.382-3.426-3.425,35.2-35.2-7.353-7.353-35.2,35.2-3.422-3.422,31.257-31.284H216.938l-7.766,7.766-7.762-7.762H187.063l14.769,15.1-3.435,3.435-15.031-15.031-7.354,7.354,16.015,16.015,1.965-1.965-14.05-14.05,3.425-3.426L198.4-549.3l7.34-7.34-12.065-12.342,6.625,0,8.875,8.909,8.907-8.906h6.849l-28.5,28.5,7.351,7.35,35.2-35.2,3.425,3.425-35.2,35.2,7.354,7.354,7.347-7.347Z" transform="translate(-0.471)" fill="url(#linear-gradient)"/>
  </g>
</svg>
