<svg xmlns="http://www.w3.org/2000/svg" width="16.5" height="16.5" viewBox="0 0 16.5 16.5">
  <path id="global" d="M13.657,2.343A7.947,7.947,0,0,0,8,0H8A8,8,0,0,0,2.343,13.657,8,8,0,0,0,13.657,2.343Zm.523,9.073H11.838a10.529,10.529,0,0,0,.547-2.947h2.662A7.01,7.01,0,0,1,14.179,11.416ZM8,14.993a6.635,6.635,0,0,1-2.421-2.64H10.42A6.635,6.635,0,0,1,8,14.993ZM5.155,11.416a9.53,9.53,0,0,1-.6-2.947h6.893a9.531,9.531,0,0,1-.6,2.947ZM.953,8.469H3.615a10.529,10.529,0,0,0,.547,2.947H1.82A7.01,7.01,0,0,1,.953,8.469ZM1.82,4.584H4.162a10.529,10.529,0,0,0-.547,2.947H.953A7.01,7.01,0,0,1,1.82,4.584ZM8,1.007a6.635,6.635,0,0,1,2.421,2.64H5.579A6.635,6.635,0,0,1,8,1.007Zm2.844,3.577a9.53,9.53,0,0,1,.6,2.947H4.553a9.531,9.531,0,0,1,.6-2.947Zm4.2,2.947H12.384a10.529,10.529,0,0,0-.547-2.947h2.341A7.01,7.01,0,0,1,15.046,7.531ZM11.462,3.646a8.3,8.3,0,0,0-1.75-2.5,7.079,7.079,0,0,1,3.845,2.5Zm-5.175-2.5a8.3,8.3,0,0,0-1.75,2.5H2.442a7.079,7.079,0,0,1,3.845-2.5ZM4.537,12.354a8.3,8.3,0,0,0,1.75,2.5,7.079,7.079,0,0,1-3.845-2.5Zm5.175,2.5a8.3,8.3,0,0,0,1.75-2.5h2.095a7.079,7.079,0,0,1-3.845,2.5Zm0,0" transform="translate(0.25 0.25)" fill="#1f4282" stroke="#1f4282" stroke-width="0.5"/>
</svg>
