<svg xmlns="http://www.w3.org/2000/svg" xmlns:xlink="http://www.w3.org/1999/xlink" width="612.536" height="403.758" viewBox="0 0 612.536 403.758">
  <defs>
    <linearGradient id="linear-gradient" x1="0.286" y1="0.804" x2="0.652" y2="-0.158" gradientUnits="objectBoundingBox">
      <stop offset="0" stop-color="#fff"/>
      <stop offset="1" stop-color="#2f4b81"/>
    </linearGradient>
  </defs>
  <path id="Path_14869" data-name="Path 14869" d="M788.547-469.174,575.062-255.681l-15.9-15.9L772.659-485.063ZM531.428-243.84,487.889-200.3l-27.714-27.706L744.945-512.776l-59.49-59.491L400.685-287.5,373-315.179l252.873-253.1H507.118l-62.83,62.831-62.8-62.8H265.426L384.908-446.065l-27.793,27.793L235.51-539.877l-59.5,59.5L305.577-350.813l15.9-15.9L207.8-480.379l27.705-27.714L357.115-386.487l59.379-59.379-97.606-99.848,53.6-.024,71.8,72.079,72.055-72.055h55.411L341.219-315.179l59.467,59.467,284.769-284.77,27.705,27.706L428.391-228.007l59.5,59.5,59.435-59.435Z" transform="translate(-176.011 572.267)" opacity="0.08" fill="url(#linear-gradient)"/>
</svg>
