<svg xmlns="http://www.w3.org/2000/svg" width="18" height="16.144" viewBox="0 0 18 16.144">
  <path id="Fill_1184" data-name="Fill 1184" d="M13.5,16.145h-9a2.253,2.253,0,0,1-2.25-2.25V6.232L1.191,7a.744.744,0,0,1-.441.144A.75.75,0,0,1,.309,5.789L7.676.431a2.251,2.251,0,0,1,2.647,0L17.69,5.789a.749.749,0,0,1,.166,1.048.754.754,0,0,1-.608.309A.742.742,0,0,1,16.809,7l-1.059-.77v7.663A2.253,2.253,0,0,1,13.5,16.145ZM8.25,7.9h1.5A2.252,2.252,0,0,1,12,10.145v4.5h1.5a.751.751,0,0,0,.75-.75V5.141l-4.809-3.5a.751.751,0,0,0-.882,0L3.75,5.141v8.753a.751.751,0,0,0,.75.75H6v-4.5A2.252,2.252,0,0,1,8.25,7.9Zm0,1.5a.751.751,0,0,0-.75.749v4.5h3v-4.5A.751.751,0,0,0,9.75,9.4Z" transform="translate(0 0)" />
</svg>
