<svg xmlns="http://www.w3.org/2000/svg" width="20" height="16" viewBox="0 0 20 16">
  <path id="Combined_Shape" data-name="Combined Shape" d="M18.941,16a1.123,1.123,0,0,1-.736-.268l-2.411-2.086H3a3,3,0,0,1-3-3V3A3,3,0,0,1,3,0H16.973a3,3,0,0,1,3,3v7.646c0,.1,0,.193-.014.284l.04-.014v4.172A.987.987,0,0,1,18.941,16Zm-3.7-10.542a1.484,1.484,0,0,0-1.577,1.364,1.484,1.484,0,0,0,1.577,1.364,1.484,1.484,0,0,0,1.577-1.364A1.484,1.484,0,0,0,15.242,5.458Zm-5.256,0A1.484,1.484,0,0,0,8.41,6.823,1.484,1.484,0,0,0,9.986,8.187a1.484,1.484,0,0,0,1.577-1.364A1.484,1.484,0,0,0,9.986,5.458Zm-5.256,0A1.484,1.484,0,0,0,3.154,6.823,1.484,1.484,0,0,0,4.73,8.187,1.484,1.484,0,0,0,6.307,6.823,1.484,1.484,0,0,0,4.73,5.458Z" fill="#fff"/>
</svg>
