<svg id="favorite_button" data-name="favorite/button" xmlns="http://www.w3.org/2000/svg" width="18" height="13.943" viewBox="0 0 18 13.943">
  <path id="Fill_949" data-name="Fill 949" d="M1.51,13.943A1.546,1.546,0,0,1,.466,13.53,1.474,1.474,0,0,1,0,12.44V2.25A2.253,2.253,0,0,1,2.25,0h13.5A2.253,2.253,0,0,1,18,2.25v7.5A2.253,2.253,0,0,1,15.75,12H4.061l-1.5,1.5A1.48,1.48,0,0,1,1.51,13.943ZM2.25,1.5a.751.751,0,0,0-.75.75V12.44l1.719-1.72a.753.753,0,0,1,.531-.22h12a.751.751,0,0,0,.75-.751V2.25a.751.751,0,0,0-.75-.75ZM12,8.25H6a.75.75,0,1,1,0-1.5h6a.75.75,0,1,1,0,1.5Zm-3.749-3H6a.75.75,0,1,1,0-1.5H8.25a.75.75,0,0,1,0,1.5Z" fill="#1f4282"/>
</svg>
