<svg id="Component_113_1" data-name="Component 113 – 1" xmlns="http://www.w3.org/2000/svg" width="20" height="22.741" viewBox="0 0 20 22.741">
  <path id="Path_15588" data-name="Path 15588" d="M49.331,27.217,41.8,19.682a2,2,0,0,0-3.069,2.531l-.01.052a13.942,13.942,0,0,1-3.825,7.147l-3.456,3.456a2,2,0,0,0,0,2.826l1.884,1.884a2,2,0,0,0,2.826,0l.471-.471,3.3,3.3a2,2,0,0,0,2.826-2.826l-1.413-1.413.471-.471a2,2,0,0,0,0-2.826l-.32-.32A13.944,13.944,0,0,1,46.748,30.3l.053-.011a2,2,0,0,0,2.53-.243h0A2,2,0,0,0,49.331,27.217ZM35.2,36.636a.666.666,0,0,1-.942,0l-1.884-1.884a.666.666,0,0,1,0-.942l3.3-3.3L38.5,33.34ZM41.8,38.52a.666.666,0,0,1-.942.942l-3.3-3.3.942-.942Zm-2.355-4.239c.2-.2.5-.507.973-.911l.44.44a.666.666,0,0,1,0,.942l-.471.471Zm.028-1.855-2.882-2.882a15.252,15.252,0,0,0,3.243-6.176l5.816,5.816A15.251,15.251,0,0,0,39.47,32.426Zm8.92-3.325a.666.666,0,0,1-.942,0l-7.535-7.535a.666.666,0,0,1,.942-.942l7.535,7.535A.667.667,0,0,1,48.389,29.1Z" transform="translate(-30.849 -18.249)" fill="#1f4282"/>
  <path id="Path_15589" data-name="Path 15589" d="M105.345,324.957a.666.666,0,0,0-.942,0l-.942.942a.666.666,0,0,0,.942.942l.942-.942A.666.666,0,0,0,105.345,324.957Z" transform="translate(-100.049 -310.336)" fill="#1f4282"/>
  <path id="Path_15590" data-name="Path 15590" d="M331.86,0a.666.666,0,0,0-.666.666V2a.666.666,0,0,0,1.332,0V.666A.666.666,0,0,0,331.86,0Z" transform="translate(-317.853)" fill="#1f4282"/>
  <path id="Path_15591" data-name="Path 15591" d="M423.167,119.966h-1.332a.666.666,0,1,0,0,1.332h1.332a.666.666,0,0,0,0-1.332Z" transform="translate(-403.834 -114.636)" fill="#1f4282"/>
  <path id="Path_15592" data-name="Path 15592" d="M393.647,30.186a.666.666,0,0,0-.942,0l-1.332,1.332a.666.666,0,0,0,.942.942l1.332-1.332A.666.666,0,0,0,393.647,30.186Z" transform="translate(-375.174 -28.657)" fill="#1f4282"/>
</svg>
