<svg xmlns="http://www.w3.org/2000/svg" width="24" height="24" viewBox="0 0 24 24">
  <g id="money_1_" data-name="money (1)" transform="translate(-1 -1)">
    <path id="Path_15420" data-name="Path 15420" d="M24.613,12.613H21.289l3.6-3.6a.387.387,0,0,0,0-.547L17.532,1.113a.387.387,0,0,0-.547,0l-11.5,11.5h-4.1A.387.387,0,0,0,1,13V23.064a.387.387,0,0,0,.387.387H7.033l1.435,1.435a.387.387,0,0,0,.547,0l1.435-1.435H24.613A.387.387,0,0,0,25,23.064V13A.387.387,0,0,0,24.613,12.613ZM17.258,1.934l6.807,6.807-3.871,3.871H17.239a4.257,4.257,0,0,0-8.479,0H6.579ZM11.152,12.613a.775.775,0,0,1,.205-.708l.708.708Zm4.176,0a1.512,1.512,0,0,0-.139-.16,1.55,1.55,0,0,0-2.19,0l-1.1-1.095a.793.793,0,0,1,1.095,0l.547-.547a1.549,1.549,0,0,0-2.189,0h0l-.274-.274-.547.547.274.274a1.536,1.536,0,0,0-.442,1.255H9.539a3.482,3.482,0,0,1,6.922,0H15.328ZM8.742,24.065l-.614-.614H9.356Zm15.484-1.388H1.774v-9.29H24.226Z" fill="#00041d"/>
    <path id="Path_15421" data-name="Path 15421" d="M27.774,41.258H27a1.55,1.55,0,0,0,1.548,1.548v.387h.774v-.387a1.548,1.548,0,1,0,0-3.1V38.161a.775.775,0,0,1,.774.774h.774a1.55,1.55,0,0,0-1.548-1.548V37h-.774v.387a1.548,1.548,0,1,0,0,3.1v1.548A.775.775,0,0,1,27.774,41.258Zm0-2.323a.775.775,0,0,1,.774-.774V39.71A.775.775,0,0,1,27.774,38.935Zm1.548,1.548a.774.774,0,1,1,0,1.548Z" transform="translate(-15.936 -22.065)" fill="#00041d"/>
    <path id="Path_15422" data-name="Path 15422" d="M25.258,42.516A4.258,4.258,0,1,0,21,38.258,4.263,4.263,0,0,0,25.258,42.516Zm0-7.742a3.484,3.484,0,1,1-3.484,3.484A3.488,3.488,0,0,1,25.258,34.774Z" transform="translate(-12.258 -20.226)" fill="#00041d"/>
    <path id="Path_15423" data-name="Path 15423" d="M51.032,42.355V35.387A.387.387,0,0,0,50.645,35H46v.774h4.258v6.194H46v.774h4.645A.387.387,0,0,0,51.032,42.355Z" transform="translate(-27.581 -20.839)" fill="#00041d"/>
    <path id="Path_15424" data-name="Path 15424" d="M5.387,42.742h4.645v-.774H5.774V35.774h4.258V35H5.387A.387.387,0,0,0,5,35.387v6.968A.387.387,0,0,0,5.387,42.742Z" transform="translate(-2.452 -20.839)" fill="#00041d"/>
    <path id="Path_15429" data-name="Path 15429" d="M37.638,7.942l4.379,4.38-3.011,3.011.547.547,3.285-3.285a.387.387,0,0,0,0-.547L37.912,7.121a.4.4,0,0,0-.547,0L34.08,10.405l.547.547Z" transform="translate(-20.275 -3.685)" fill="#00041d"/>
  </g>
</svg>
