<svg xmlns="http://www.w3.org/2000/svg" width="20" height="19.785" viewBox="0 0 20 19.785">
  <g id="order" transform="translate(-1.552 -2)">
    <path id="Path_15583" data-name="Path 15583" d="M19.288,13.739a.329.329,0,0,0-.147.147l-1.75,3.5a.241.241,0,0,1-.447-.174l.507-1.775a.328.328,0,0,0-.492-.367l-2.906,1.849a.428.428,0,0,1-.612-.169.427.427,0,0,1,.126-.533l2.123-1.592a.328.328,0,0,0-.271-.583l-3.436.793a.5.5,0,0,1-.6-.391.5.5,0,0,1,.387-.59l3.8-.814a.328.328,0,0,0-.01-.644l-2.735-.5a.549.549,0,0,1,.144-1.087l3.162.263a.325.325,0,0,0,.313-.165.329.329,0,0,0-.018-.353L15.161,8.8a.453.453,0,0,1,.667-.6L17.9,10.01a.331.331,0,0,0,.338.058l3.284-1.314-.244-.61-3.1,1.239-.472-.413L16.531,2.58h0a.324.324,0,0,0-.044-.12.328.328,0,0,0-.335-.144L5.168,4.35a.329.329,0,0,0-.211.137L2.852,7.548a.327.327,0,0,0-.052.246l.936,5.058-1.914-.766-.244.61,3.284,1.314a.328.328,0,0,0,.338-.058l2.077-1.818a.453.453,0,0,1,.667.6L6.686,14.5a.329.329,0,0,0-.018.353.324.324,0,0,0,.313.165l3.162-.263a.549.549,0,0,1,.144,1.087l-2.735.5a.328.328,0,0,0-.01.644l3.8.814a.5.5,0,0,1,.387.59.5.5,0,0,1-.605.391l-3.436-.793a.328.328,0,0,0-.271.583l2.123,1.592a.427.427,0,0,1,.126.533.427.427,0,0,1-.612.169L6.145,19.011a.329.329,0,0,0-.47.424l.657,1.314a.406.406,0,0,1-.726.363L3.963,17.827a.329.329,0,0,0-.147-.147L1.846,16.7l-.294.588,1.873.936,1.593,3.186a1.063,1.063,0,0,0,1.9-.951L6.793,20.2,8.7,21.414a1.084,1.084,0,0,0,1.233-1.782l-.88-.66,1.923.444a1.156,1.156,0,0,0,.616-2.226l1.233-.228c.011.027.019.055.032.082a1.084,1.084,0,0,0,1.552.43l2.176-1.385-.269.943a.9.9,0,0,0,.579,1.1.88.88,0,0,0,.281.046.9.9,0,0,0,.806-.5l1.7-3.4,1.873-.936-.294-.588ZM13.909,5.4l-3.285.608,1.579-2.3,3.285-.608ZM8.04,6.49l1.579-2.3,1.67-.309L9.71,6.18Zm1.6.371.658,3.552-1.937.359L7.7,7.22Zm-4.22-1.89,3.285-.608-1.579,2.3-3.285.608Zm1.423,6.669L4.919,13.325l-.462-.185L3.5,8,7.057,7.34l.718,3.875a.324.324,0,0,0,.142.21,1.108,1.108,0,0,0-1.072.215Zm3.244,2.46-2.455.2.845-1.183a1.107,1.107,0,0,0-.118-1.43,1.093,1.093,0,0,0-.311-.215.3.3,0,0,0,.049.009.313.313,0,0,0,.06-.006L10.741,11A.328.328,0,0,0,11,10.617l-.717-3.876,3.552-.658.145.783.646-.119-.18-.972,1.579-2.3.887,4.794L16.26,7.7a1.11,1.11,0,0,0-1.634,1.481l.845,1.183-2.455-.2a1.205,1.205,0,0,0-.316,2.387l1.1.2-2.175.466a1.161,1.161,0,0,0-.9,1.009,1.2,1.2,0,0,0-.636-.122Zm2.682,2.2-2.823.523L9.3,16.687l1.1-.2a1.191,1.191,0,0,0,.981-1.094,1.148,1.148,0,0,0,.745.081l1.923-.444-.88.66A1.085,1.085,0,0,0,12.771,16.3Z" transform="translate(0 -0.209)" fill="#595b67"/>
    <path id="Path_15584" data-name="Path 15584" d="M7,4.3h.657A1.644,1.644,0,0,1,9.3,2.657h.328V2H9.3A2.3,2.3,0,0,0,7,4.3Z" transform="translate(-3.659)" fill="#595b67"/>
    <path id="Path_15585" data-name="Path 15585" d="M51,56.642V57.3h.328a2.3,2.3,0,0,0,2.3-2.3h-.657a1.644,1.644,0,0,1-1.642,1.642Z" transform="translate(-33.208 -35.593)" fill="#595b67"/>
    <path id="Path_15586" data-name="Path 15586" d="M48.328,53.642H48V54.3h.328a2.3,2.3,0,0,0,2.3-2.3h-.657A1.644,1.644,0,0,1,48.328,53.642Z" transform="translate(-31.193 -33.578)" fill="#595b67"/>
  </g>
</svg>
