<svg xmlns="http://www.w3.org/2000/svg" width="16" height="15.998" viewBox="0 0 16 15.998">
  <path id="pencil" d="M14.162.615a2.2,2.2,0,0,0-3.113,0l-.779.784L1.973,9.69l-.018.018s0,.009-.009.009-.022.026-.031.04,0,0,0,.009-.013.022-.022.035,0,.009-.009.013-.009.022-.013.035,0,0,0,.009L.022,15.392a.433.433,0,0,0,.106.449.443.443,0,0,0,.313.128.52.52,0,0,0,.141-.022L6.112,14.1s0,0,.009,0a.16.16,0,0,0,.04-.018.016.016,0,0,0,.009,0l.044-.027c.013-.009.026-.022.04-.031s.009,0,.009-.009.013-.009.018-.018l9.075-9.075a2.2,2.2,0,0,0,0-3.113ZM5.971,13.067,2.907,10l7.671-7.671L13.642,5.4Zm-3.5-2.25,2.677,2.677-4.02,1.339ZM14.734,4.3l-.467.471L11.2,1.707l.471-.471a1.321,1.321,0,0,1,1.867,0l1.2,1.2a1.325,1.325,0,0,1,0,1.867Zm0,0" transform="translate(0.001 0.029)" fill="#fff"/>
</svg>
