<svg xmlns="http://www.w3.org/2000/svg" width="20.106" height="20.14" viewBox="0 0 20.106 20.14">
  <path id="phone-call" d="M13.261,4.447a4.309,4.309,0,0,1,3.4,3.4M13.261,1a7.756,7.756,0,0,1,6.851,6.842m-.862,6.877V17.3a1.723,1.723,0,0,1-1.879,1.723,17.054,17.054,0,0,1-7.437-2.646,16.8,16.8,0,0,1-5.17-5.17A17.054,17.054,0,0,1,2.119,3.74,1.723,1.723,0,0,1,3.834,1.862H6.419A1.723,1.723,0,0,1,8.142,3.344a11.065,11.065,0,0,0,.6,2.421,1.723,1.723,0,0,1-.388,1.818L7.263,8.678a13.788,13.788,0,0,0,5.17,5.17l1.094-1.094a1.723,1.723,0,0,1,1.818-.388,11.065,11.065,0,0,0,2.421.6,1.723,1.723,0,0,1,1.482,1.749Z" transform="translate(-1.111 0.104)" fill="none" stroke="#1f4282" stroke-linecap="round" stroke-linejoin="round" stroke-width="2"/>
</svg>
