<svg xmlns="http://www.w3.org/2000/svg" width="150" height="153.376" viewBox="0 0 150 153.376">
  <g id="Character_2" data-name="Character 2" transform="translate(-64.994 -274.836)" style="isolation: isolate">
    <g id="Group_5734" data-name="Group 5734" transform="translate(64.994 274.836)">
      <path id="Path_14894" data-name="Path 14894" d="M219.386,321.822l-28.807,4.855a61.354,61.354,0,1,0,15.36,20.033Z" transform="translate(-69.386 -281.631)" fill="#e0e0e0"/>
      <g id="Group_5511" data-name="Group 5511" transform="translate(0 8.353)">
        <g id="Group_5507" data-name="Group 5507" transform="translate(10.752 17.087)">
          <g id="Group_5502" data-name="Group 5502" transform="translate(12.998 0)">
            <g id="Group_5501" data-name="Group 5501">
              <path id="Path_14895" data-name="Path 14895" d="M94.1,307.616a1.6,1.6,0,1,0,1.6-1.6A1.6,1.6,0,0,0,94.1,307.616Z" transform="translate(-94.102 -306.017)" fill="#263238"/>
            </g>
          </g>
          <g id="Group_5504" data-name="Group 5504" transform="translate(6.598 0)">
            <g id="Group_5503" data-name="Group 5503">
              <path id="Path_14896" data-name="Path 14896" d="M86.258,307.616a1.6,1.6,0,1,0,1.6-1.6A1.6,1.6,0,0,0,86.258,307.616Z" transform="translate(-86.258 -306.017)" fill="#263238"/>
            </g>
          </g>
          <g id="Group_5506" data-name="Group 5506">
            <g id="Group_5505" data-name="Group 5505">
              <path id="Path_14897" data-name="Path 14897" d="M78.386,306.817a1.6,1.6,0,1,0,2.185-.585A1.6,1.6,0,0,0,78.386,306.817Z" transform="translate(-78.171 -306.017)" fill="#263238"/>
            </g>
          </g>
        </g>
        <g id="Group_5510" data-name="Group 5510">
          <g id="Group_5509" data-name="Group 5509">
            <g id="Group_5508" data-name="Group 5508">
              <path id="Path_14898" data-name="Path 14898" d="M83.844,285.081a1.828,1.828,0,0,1-.322.038l-.946.069c-.207.017-.441.024-.7.051l-.831.137-.968.159L79,285.823a17.831,17.831,0,0,0-5.211,2.35,18.5,18.5,0,0,0-8.365,13.883,19.22,19.22,0,0,0-.04,2.514c.032.425.024.857.088,1.285s.133.858.2,1.292a18.456,18.456,0,0,0,1.761,5.1,19.729,19.729,0,0,0,3.344,4.578,19.317,19.317,0,0,0,4.8,3.439,17.444,17.444,0,0,0,5.848,1.788,11.524,11.524,0,0,0,1.559.132,14.089,14.089,0,0,0,1.576.028,18.674,18.674,0,0,0,3.156-.4,18.487,18.487,0,0,0,6.285-2.642l.093-.061.1.042,6.545,2.635-.277.246-1.911-7-.026-.1.06-.078a18.45,18.45,0,0,0,3.446-7.824,16.728,16.728,0,0,0,.265-4.018,12.885,12.885,0,0,0-.173-1.932q-.071-.474-.141-.942c-.056-.309-.149-.609-.221-.911a18.621,18.621,0,0,0-14.889-13.813c-.49-.072-.92-.168-1.3-.2l-.955-.064-.586-.046a.872.872,0,0,1-.2-.028.918.918,0,0,1,.2-.007l.587.013.963.032c.381.02.816.1,1.311.167.246.038.51.066.782.118l.851.211.929.236.979.351a17.9,17.9,0,0,1,4.348,2.293,18.724,18.724,0,0,1,7.306,10.65c.074.308.171.612.229.928s.1.636.148.957a13.16,13.16,0,0,1,.186,1.969,17.049,17.049,0,0,1-.255,4.1,18.79,18.79,0,0,1-3.495,8l.033-.173q.931,3.391,1.925,7l.11.4-.388-.156-6.548-2.628.2-.02a18.892,18.892,0,0,1-6.428,2.7,19.124,19.124,0,0,1-3.229.408,14.336,14.336,0,0,1-1.612-.029,11.819,11.819,0,0,1-1.6-.135,17.834,17.834,0,0,1-5.979-1.835,19.654,19.654,0,0,1-4.905-3.525,20.05,20.05,0,0,1-3.4-4.685,18.794,18.794,0,0,1-1.78-5.212l-.2-1.32c-.063-.436-.055-.877-.085-1.31a18.5,18.5,0,0,1,3.16-11.277,19.025,19.025,0,0,1,5.479-5.336,17.718,17.718,0,0,1,5.3-2.309l1.092-.272.978-.14.839-.117c.256-.022.491-.021.7-.031l.951-.027A1.791,1.791,0,0,1,83.844,285.081Z" transform="translate(-64.994 -285.074)" fill="#263238"/>
            </g>
          </g>
        </g>
      </g>
      <g id="Group_5733" data-name="Group 5733" transform="translate(4.595)">
        <g id="Group_5648" data-name="Group 5648" transform="translate(55.55)">
          <g id="Group_5633" data-name="Group 5633">
            <g id="Group_5632" data-name="Group 5632">
              <g id="Group_5631" data-name="Group 5631">
                <g id="Group_5614" data-name="Group 5614" transform="translate(1.026 3.555)">
                  <g id="Group_5613" data-name="Group 5613">
                    <g id="Group_5596" data-name="Group 5596">
                      <g id="Group_5595" data-name="Group 5595">
                        <g id="Group_5594" data-name="Group 5594">
                          <g id="Group_5523" data-name="Group 5523">
                            <g id="Group_5522" data-name="Group 5522">
                              <g id="Group_5521" data-name="Group 5521">
                                <g id="Group_5520" data-name="Group 5520">
                                  <g id="Group_5519" data-name="Group 5519">
                                    <g id="Group_5518" data-name="Group 5518">
                                      <g id="Group_5517" data-name="Group 5517">
                                        <g id="Group_5516" data-name="Group 5516">
                                          <path id="Path_14901" data-name="Path 14901" d="M171.744,284.322a3.8,3.8,0,0,1,3.4,3.847h0L172.991,339.4c-.082,6.05-11.087,13.2-17.581,13.068h0c-6.559-.138-4.63-7.08-4.725-12.835-.158-9.615-.155-13.225-.158-13.17,0,0-8.287-1.372-10-12.156-.853-5.363-.583-14.156-.13-21.343.409-6.469,4.706-14.407,11.169-13.725Z" transform="translate(-139.967 -279.194)" fill="#ffbe9d"/>
                                        </g>
                                      </g>
                                    </g>
                                  </g>
                                </g>
                              </g>
                            </g>
                          </g>
                          <g id="Group_5541" data-name="Group 5541" transform="translate(2.317 16.886)">
                            <g id="Group_5531" data-name="Group 5531" transform="translate(0.918 2.61)">
                              <g id="Group_5530" data-name="Group 5530">
                                <g id="Group_5529" data-name="Group 5529">
                                  <g id="Group_5528" data-name="Group 5528">
                                    <g id="Group_5527" data-name="Group 5527">
                                      <g id="Group_5526" data-name="Group 5526">
                                        <g id="Group_5525" data-name="Group 5525">
                                          <g id="Group_5524" data-name="Group 5524">
                                            <path id="Path_14902" data-name="Path 14902" d="M143.933,304.339a1.384,1.384,0,0,0,1.337,1.4,1.324,1.324,0,0,0,1.429-1.247,1.385,1.385,0,0,0-1.335-1.4A1.326,1.326,0,0,0,143.933,304.339Z" transform="translate(-143.932 -303.089)" fill="#263238"/>
                                          </g>
                                        </g>
                                      </g>
                                    </g>
                                  </g>
                                </g>
                              </g>
                            </g>
                            <g id="Group_5540" data-name="Group 5540">
                              <g id="Group_5539" data-name="Group 5539">
                                <g id="Group_5538" data-name="Group 5538">
                                  <g id="Group_5537" data-name="Group 5537">
                                    <g id="Group_5536" data-name="Group 5536">
                                      <g id="Group_5535" data-name="Group 5535">
                                        <g id="Group_5534" data-name="Group 5534">
                                          <g id="Group_5533" data-name="Group 5533">
                                            <g id="Group_5532" data-name="Group 5532">
                                              <path id="Path_14903" data-name="Path 14903" d="M142.829,301.344c.172.18,1.222-.595,2.715-.591,1.491-.018,2.586.747,2.747.565.08-.081-.1-.406-.572-.752a3.806,3.806,0,0,0-2.2-.676,3.659,3.659,0,0,0-2.161.7C142.9,300.937,142.744,301.263,142.829,301.344Z" transform="translate(-142.807 -299.89)" fill="#263238"/>
                                            </g>
                                          </g>
                                        </g>
                                      </g>
                                    </g>
                                  </g>
                                </g>
                              </g>
                            </g>
                          </g>
                          <g id="Group_5559" data-name="Group 5559" transform="translate(16.984 17.164)">
                            <g id="Group_5549" data-name="Group 5549" transform="translate(0.838 2.333)">
                              <g id="Group_5548" data-name="Group 5548">
                                <g id="Group_5547" data-name="Group 5547">
                                  <g id="Group_5546" data-name="Group 5546">
                                    <g id="Group_5545" data-name="Group 5545">
                                      <g id="Group_5544" data-name="Group 5544">
                                        <g id="Group_5543" data-name="Group 5543">
                                          <g id="Group_5542" data-name="Group 5542">
                                            <path id="Path_14904" data-name="Path 14904" d="M161.811,304.339a1.384,1.384,0,0,0,1.337,1.4,1.324,1.324,0,0,0,1.429-1.247,1.385,1.385,0,0,0-1.336-1.4A1.326,1.326,0,0,0,161.811,304.339Z" transform="translate(-161.81 -303.089)" fill="#263238"/>
                                          </g>
                                        </g>
                                      </g>
                                    </g>
                                  </g>
                                </g>
                              </g>
                            </g>
                            <g id="Group_5558" data-name="Group 5558">
                              <g id="Group_5557" data-name="Group 5557">
                                <g id="Group_5556" data-name="Group 5556">
                                  <g id="Group_5555" data-name="Group 5555">
                                    <g id="Group_5554" data-name="Group 5554">
                                      <g id="Group_5553" data-name="Group 5553">
                                        <g id="Group_5552" data-name="Group 5552">
                                          <g id="Group_5551" data-name="Group 5551">
                                            <g id="Group_5550" data-name="Group 5550">
                                              <path id="Path_14905" data-name="Path 14905" d="M160.805,301.684c.172.18,1.224-.595,2.715-.591,1.491-.017,2.586.748,2.748.566.079-.081-.094-.406-.573-.753a3.818,3.818,0,0,0-2.2-.676,3.668,3.668,0,0,0-2.161.7C160.878,301.278,160.721,301.6,160.805,301.684Z" transform="translate(-160.783 -300.23)" fill="#263238"/>
                                            </g>
                                          </g>
                                        </g>
                                      </g>
                                    </g>
                                  </g>
                                </g>
                              </g>
                            </g>
                          </g>
                          <g id="Group_5568" data-name="Group 5568" transform="translate(7.789 17.254)">
                            <g id="Group_5567" data-name="Group 5567">
                              <g id="Group_5566" data-name="Group 5566">
                                <g id="Group_5565" data-name="Group 5565">
                                  <g id="Group_5564" data-name="Group 5564">
                                    <g id="Group_5563" data-name="Group 5563">
                                      <g id="Group_5562" data-name="Group 5562">
                                        <g id="Group_5561" data-name="Group 5561">
                                          <g id="Group_5560" data-name="Group 5560">
                                            <path id="Path_14906" data-name="Path 14906" d="M153.315,312.741a9.941,9.941,0,0,0-2.423-.436c-.381-.039-.742-.115-.806-.375a1.933,1.933,0,0,1,.255-1.126l1.127-2.894c1.565-4.119,2.7-7.508,2.531-7.569s-1.571,3.229-3.135,7.349q-.565,1.524-1.079,2.91a2.191,2.191,0,0,0-.2,1.491.953.953,0,0,0,.626.556,2.568,2.568,0,0,0,.648.09A9.684,9.684,0,0,0,153.315,312.741Z" transform="translate(-149.514 -300.341)" fill="#263238"/>
                                          </g>
                                        </g>
                                      </g>
                                    </g>
                                  </g>
                                </g>
                              </g>
                            </g>
                          </g>
                          <g id="Group_5576" data-name="Group 5576" transform="translate(10.56 43.413)">
                            <g id="Group_5575" data-name="Group 5575">
                              <g id="Group_5574" data-name="Group 5574">
                                <g id="Group_5573" data-name="Group 5573">
                                  <g id="Group_5572" data-name="Group 5572">
                                    <g id="Group_5571" data-name="Group 5571">
                                      <g id="Group_5570" data-name="Group 5570">
                                        <g id="Group_5569" data-name="Group 5569">
                                          <path id="Path_14907" data-name="Path 14907" d="M152.91,336.255a27.566,27.566,0,0,0,14.48-3.853s-3.513,7.408-14.334,6.4Z" transform="translate(-152.91 -332.402)" fill="#eb996e"/>
                                        </g>
                                      </g>
                                    </g>
                                  </g>
                                </g>
                              </g>
                            </g>
                          </g>
                          <g id="Group_5593" data-name="Group 5593" transform="translate(11.226 30.684)">
                            <g id="Group_5592" data-name="Group 5592">
                              <g id="Group_5591" data-name="Group 5591">
                                <g id="Group_5590" data-name="Group 5590">
                                  <g id="Group_5589" data-name="Group 5589">
                                    <g id="Group_5588" data-name="Group 5588">
                                      <g id="Group_5587" data-name="Group 5587">
                                        <g id="Group_5586" data-name="Group 5586">
                                          <g id="Group_5585" data-name="Group 5585">
                                            <path id="Path_14909" data-name="Path 14909" d="M158.482,316.8c-.242-.014-.246,1.6-1.632,2.748s-3.11.968-3.123,1.194c-.022.1.385.314,1.114.334a4.043,4.043,0,0,0,2.607-.906,3.5,3.5,0,0,0,1.265-2.3C158.773,317.192,158.593,316.792,158.482,316.8Z" transform="translate(-153.726 -316.801)" fill="#263238"/>
                                          </g>
                                        </g>
                                      </g>
                                    </g>
                                  </g>
                                </g>
                              </g>
                            </g>
                          </g>
                        </g>
                      </g>
                    </g>
                    <g id="Group_5604" data-name="Group 5604" transform="translate(16.327 14.897)">
                      <g id="Group_5603" data-name="Group 5603">
                        <g id="Group_5602" data-name="Group 5602">
                          <g id="Group_5601" data-name="Group 5601">
                            <g id="Group_5600" data-name="Group 5600">
                              <g id="Group_5599" data-name="Group 5599">
                                <g id="Group_5598" data-name="Group 5598">
                                  <g id="Group_5597" data-name="Group 5597">
                                    <path id="Path_14910" data-name="Path 14910" d="M159.985,298.567c.148.4,1.638.213,3.388.423,1.755.175,3.167.687,3.4.324.1-.174-.143-.554-.713-.946a5.951,5.951,0,0,0-5.17-.57C160.246,298.057,159.922,298.375,159.985,298.567Z" transform="translate(-159.978 -297.452)" fill="#263238"/>
                                  </g>
                                </g>
                              </g>
                            </g>
                          </g>
                        </g>
                      </g>
                    </g>
                    <g id="Group_5612" data-name="Group 5612" transform="translate(2.85 12.492)">
                      <g id="Group_5611" data-name="Group 5611">
                        <g id="Group_5610" data-name="Group 5610">
                          <g id="Group_5609" data-name="Group 5609">
                            <g id="Group_5608" data-name="Group 5608">
                              <g id="Group_5607" data-name="Group 5607">
                                <g id="Group_5606" data-name="Group 5606">
                                  <g id="Group_5605" data-name="Group 5605">
                                    <path id="Path_14911" data-name="Path 14911" d="M143.5,296.045c.262.338,1.29-.013,2.526-.029,1.235-.06,2.283.227,2.524-.126.105-.171-.06-.51-.516-.831a3.669,3.669,0,0,0-4.069.126C143.526,295.532,143.382,295.88,143.5,296.045Z" transform="translate(-143.46 -294.504)" fill="#263238"/>
                                  </g>
                                </g>
                              </g>
                            </g>
                          </g>
                        </g>
                      </g>
                    </g>
                  </g>
                </g>
                <g id="Group_5619" data-name="Group 5619" transform="translate(34.676 25.593)">
                  <g id="Group_5618" data-name="Group 5618">
                    <g id="Group_5617" data-name="Group 5617">
                      <g id="Group_5616" data-name="Group 5616">
                        <g id="Group_5615" data-name="Group 5615">
                          <path id="Path_14912" data-name="Path 14912" d="M181.542,306.544a2.716,2.716,0,0,1,2.827.141,5,5,0,0,1-3.159,9.284" transform="translate(-181.21 -306.205)" fill="#ffbe9d"/>
                        </g>
                      </g>
                    </g>
                  </g>
                </g>
                <g id="Group_5624" data-name="Group 5624">
                  <g id="Group_5623" data-name="Group 5623">
                    <g id="Group_5622" data-name="Group 5622">
                      <g id="Group_5621" data-name="Group 5621">
                        <g id="Group_5620" data-name="Group 5620">
                          <path id="Path_14913" data-name="Path 14913" d="M156.719,274.84c-3.94.131-6.929,1.326-10.387,3.214a15,15,0,0,0-7.416,8.788,3.062,3.062,0,0,0,.087,2.429,2.387,2.387,0,0,0,2.965.637,6.945,6.945,0,0,0,2.412-2.218,4.625,4.625,0,0,0,8.977-.1,4.049,4.049,0,0,0,4.168,3.708,5.343,5.343,0,0,0,4.6-3.623,13.464,13.464,0,0,0,1.9,5.265,4.625,4.625,0,0,0,4.895,1.989,9.53,9.53,0,0,0,.071,4.822c.572,1.524,2.269,2.758,3.812,2.23,1.5-.513,2.079-2.283,2.43-3.823a35.9,35.9,0,0,0,1.159-9.039A13.254,13.254,0,0,0,165.686,275.7a35.15,35.15,0,0,0-9.41-.854" transform="translate(-138.709 -274.836)" fill="#263238"/>
                        </g>
                      </g>
                    </g>
                  </g>
                </g>
                <g id="Group_5630" data-name="Group 5630" transform="translate(35.516 27.998)">
                  <g id="Group_5629" data-name="Group 5629">
                    <g id="Group_5628" data-name="Group 5628">
                      <g id="Group_5627" data-name="Group 5627">
                        <g id="Group_5626" data-name="Group 5626">
                          <g id="Group_5625" data-name="Group 5625">
                            <path id="Path_14914" data-name="Path 14914" d="M182.487,313.3c.03-.077.42.092.942-.147a1.876,1.876,0,0,0,.928-1.842,1.9,1.9,0,0,0-1.154-1.73c-.541-.221-.939-.113-.961-.2-.038-.053.367-.339,1.081-.18a1.991,1.991,0,0,1,1.057.658,2.4,2.4,0,0,1,.537,1.42,2.142,2.142,0,0,1-1.354,2.243C182.827,313.713,182.429,313.339,182.487,313.3Z" transform="translate(-182.239 -309.152)" fill="#eb996e"/>
                          </g>
                        </g>
                      </g>
                    </g>
                  </g>
                </g>
              </g>
            </g>
          </g>
        </g>
        <g id="Group_5732" data-name="Group 5732" transform="translate(0 60.516)">
          <g id="Group_5650" data-name="Group 5650" transform="translate(36.487 3.179)">
            <g id="Group_5649" data-name="Group 5649">
              <path id="Path_14919" data-name="Path 14919" d="M152.418,365.4c-2.36-7.235-8.134-14.6-14.477-11.946-7.06,2.958-9.022,6.708-12.891,12.518s-6.242,12.461-8.578,19.036c-.914,2.572-1.795,5.555-.394,7.9,1.209,2.02,3.7,2.82,5.976,3.426q8.819,2.346,17.8,4.016c2.4.446,5.032.821,7.154-.383,2.7-1.529,3.517-4.952,4.079-7.994L157,359.95" transform="translate(-115.346 -352.904)" fill="#203152"/>
            </g>
          </g>
          <g id="Group_5658" data-name="Group 5658" transform="translate(47.759)">
            <g id="Group_5654" data-name="Group 5654">
              <g id="Group_5653" data-name="Group 5653">
                <g id="Group_5652" data-name="Group 5652">
                  <g id="Group_5651" data-name="Group 5651">
                    <path id="Path_14920" data-name="Path 14920" d="M148.172,349.269l-9.287,4c-4.694,3.7-6.021,10.027-5.861,15.989l-3.862,65.385s27.088,16.743,58.743-.766c.825-.456-5.3-15.411-5.3-15.411l8.622-32.65c.664-4.695,1.07-14.428-.155-19.047-3.143-11.849-11.546-15.393-20.177-17.766,0,0-8.635,7.245-17.058,5.719C153.836,354.726,148.7,354.248,148.172,349.269Z" transform="translate(-129.161 -349.007)" fill="#203152"/>
                  </g>
                </g>
              </g>
            </g>
            <g id="Group_5657" data-name="Group 5657" transform="translate(6.538 52.443)" opacity="0.2">
              <g id="Group_5656" data-name="Group 5656">
                <g id="Group_5655" data-name="Group 5655">
                  <path id="Path_14921" data-name="Path 14921" d="M137.174,415.538l16.074,23.292c2.1,3.036,4.273,6.154,7.381,8.139a13.893,13.893,0,0,0,21.16-14.14,3.346,3.346,0,0,0-.714-1.738,2.722,2.722,0,0,0-2.746-.525,14.769,14.769,0,0,0-2.627,1.314c-5.047,2.679-11.457,1.239-16.192-1.958s-8.21-7.888-11.835-12.3c-1.341-1.633-2.8-3.305-4.788-4.035s-4.617-.133-5.457,1.806" transform="translate(-137.174 -413.283)"/>
                </g>
              </g>
            </g>
          </g>
          <g id="Group_5660" data-name="Group 5660" transform="translate(75.819 11.593)">
            <g id="Group_5659" data-name="Group 5659">
              <ellipse id="Ellipse_674" data-name="Ellipse 674" cx="5.549" cy="5.535" rx="5.549" ry="5.535" fill="#fff"/>
            </g>
          </g>
          <g id="Group_5662" data-name="Group 5662" transform="translate(55.504 6.87)">
            <g id="Group_5661" data-name="Group 5661">
              <path id="Path_14922" data-name="Path 14922" d="M138.653,362.962a5.549,5.549,0,1,0,5.549-5.535A5.542,5.542,0,0,0,138.653,362.962Z" transform="translate(-138.653 -357.427)" fill="#fff"/>
            </g>
          </g>
          <g id="Group_5664" data-name="Group 5664" transform="translate(51.027 59.868)">
            <g id="Group_5663" data-name="Group 5663">
              <path id="Path_14923" data-name="Path 14923" d="M133.166,427.918a5.549,5.549,0,1,0,5.549-5.534A5.542,5.542,0,0,0,133.166,427.918Z" transform="translate(-133.166 -422.384)" fill="#fff"/>
            </g>
          </g>
          <g id="Group_5666" data-name="Group 5666" transform="translate(61.053 75.803)">
            <g id="Group_5665" data-name="Group 5665">
              <ellipse id="Ellipse_675" data-name="Ellipse 675" cx="5.549" cy="5.535" rx="5.549" ry="5.535" fill="#fff"/>
            </g>
          </g>
          <g id="Group_5668" data-name="Group 5668" transform="translate(86.917 77.146)">
            <g id="Group_5667" data-name="Group 5667">
              <ellipse id="Ellipse_676" data-name="Ellipse 676" cx="5.549" cy="5.535" rx="5.549" ry="5.535" fill="#fff"/>
            </g>
          </g>
          <g id="Group_5670" data-name="Group 5670" transform="translate(65.004 43.069)">
            <g id="Group_5669" data-name="Group 5669" transform="translate(0)">
              <ellipse id="Ellipse_677" data-name="Ellipse 677" cx="5.549" cy="5.535" rx="5.549" ry="5.535" fill="#fff"/>
            </g>
          </g>
          <g id="Group_5672" data-name="Group 5672" transform="translate(59.455 25.618)">
            <g id="Group_5671" data-name="Group 5671">
              <ellipse id="Ellipse_678" data-name="Ellipse 678" cx="5.549" cy="5.535" rx="5.549" ry="5.535" fill="#fff"/>
            </g>
          </g>
          <g id="Group_5675" data-name="Group 5675" transform="translate(65.001 0.654)">
            <g id="Group_5674" data-name="Group 5674">
              <g id="Group_5673" data-name="Group 5673">
                <path id="Path_14924" data-name="Path 14924" d="M150.3,350.761a13.15,13.15,0,0,0,2.86,3.52,12.936,12.936,0,0,0,4.3,2.334,14.4,14.4,0,0,0,5.95.605,17.965,17.965,0,0,0,5.758-1.744,23.825,23.825,0,0,0,4.185-2.64,33.384,33.384,0,0,0,2.535-2.193,7.7,7.7,0,0,1,.912-.834,6.061,6.061,0,0,1-.795.95,25.024,25.024,0,0,1-2.466,2.311,22.5,22.5,0,0,1-4.2,2.757,17.807,17.807,0,0,1-5.883,1.815,14.418,14.418,0,0,1-6.121-.655,12.778,12.778,0,0,1-4.377-2.478,9.962,9.962,0,0,1-2.154-2.617,6.335,6.335,0,0,1-.4-.828A.934.934,0,0,1,150.3,350.761Z" transform="translate(-150.294 -349.809)" fill="#263238"/>
              </g>
            </g>
          </g>
          <g id="Group_5699" data-name="Group 5699" transform="translate(24.844 1.229)">
            <g id="Group_5677" data-name="Group 5677" transform="translate(52.77)">
              <g id="Group_5676" data-name="Group 5676">
                <path id="Path_14925" data-name="Path 14925" d="M181.1,350.513c6.345,2.653,12.949,5.492,17.331,10.782,4.455,5.378,6.007,12.684,5.683,19.652s-2.353,13.73-4.367,20.411c-.787,2.613-1.845,5.538-4.363,6.6-2.173.917-4.653.095-6.851-.761q-8.5-3.308-16.737-7.258c-2.2-1.055-4.545-2.307-5.542-4.528-1.268-2.823.1-6.068,1.45-8.853l14.217-29.314" transform="translate(-165.752 -350.513)" fill="#203152"/>
              </g>
            </g>
            <g id="Group_5679" data-name="Group 5679" transform="translate(76.109 28.278)">
              <g id="Group_5678" data-name="Group 5678">
                <ellipse id="Ellipse_679" data-name="Ellipse 679" cx="5.549" cy="5.535" rx="5.549" ry="5.535" fill="#fff"/>
              </g>
            </g>
            <g id="Group_5681" data-name="Group 5681" transform="translate(61.414 38.396)">
              <g id="Group_5680" data-name="Group 5680">
                <ellipse id="Ellipse_680" data-name="Ellipse 680" cx="5.549" cy="5.535" rx="5.549" ry="5.535" fill="#fff"/>
              </g>
            </g>
            <g id="Group_5683" data-name="Group 5683" transform="translate(68.431 11.335)">
              <g id="Group_5682" data-name="Group 5682">
                <path id="Path_14926" data-name="Path 14926" d="M184.946,369.833a5.441,5.441,0,1,0,5.441-5.427A5.434,5.434,0,0,0,184.946,369.833Z" transform="translate(-184.946 -364.406)" fill="#fff"/>
              </g>
            </g>
            <g id="Group_5695" data-name="Group 5695" transform="translate(0 17.897)">
              <g id="Group_5685" data-name="Group 5685">
                <g id="Group_5684" data-name="Group 5684">
                  <path id="Path_14927" data-name="Path 14927" d="M158.23,403.124l-1.416,5.449-28.2-20.551-8.634-12.271a7.781,7.781,0,0,0-4.876-3.158h0a7.8,7.8,0,0,0-6,1.292l-8.033,5.7s.216,4.327,2.169,3.461,5.856-3.028,5.856-3.028l1.084,10.383,4.771,3.461,4.771,3.677,31.836,31.6a14.218,14.218,0,0,0,22.715-3.7l4.718-13.395Z" transform="translate(-101.075 -372.449)" fill="#ffbe9d"/>
                </g>
              </g>
              <g id="Group_5688" data-name="Group 5688" transform="translate(55.027 35.342)">
                <g id="Group_5687" data-name="Group 5687">
                  <g id="Group_5686" data-name="Group 5686">
                    <path id="Path_14928" data-name="Path 14928" d="M168.521,415.771a2.35,2.35,0,0,1,1.184.729,6.194,6.194,0,0,1,1.649,2.92,11.569,11.569,0,0,1,.306,3.323,4.148,4.148,0,0,1-.164,1.367,4.868,4.868,0,0,1-.136-1.365,15.965,15.965,0,0,0-.416-3.216,6.939,6.939,0,0,0-1.454-2.82C168.943,416.093,168.485,415.831,168.521,415.771Z" transform="translate(-168.519 -415.765)" fill="#eb996e"/>
                  </g>
                </g>
              </g>
              <g id="Group_5691" data-name="Group 5691" transform="translate(7.967 5.695)">
                <g id="Group_5690" data-name="Group 5690">
                  <g id="Group_5689" data-name="Group 5689">
                    <path id="Path_14929" data-name="Path 14929" d="M110.848,381.841c-.046-.03.091-.362.423-.842a3.794,3.794,0,0,1,1.79-1.447,2.323,2.323,0,0,1,2.273.437c.462.444.445.881.4.875-.069.024-.164-.336-.594-.644a2.234,2.234,0,0,0-1.943-.266,4.351,4.351,0,0,0-1.694,1.233C111.127,381.6,110.9,381.876,110.848,381.841Z" transform="translate(-110.839 -379.428)" fill="#eb996e"/>
                  </g>
                </g>
              </g>
              <g id="Group_5694" data-name="Group 5694" transform="translate(8.481 9.652)">
                <g id="Group_5693" data-name="Group 5693">
                  <g id="Group_5692" data-name="Group 5692">
                    <path id="Path_14930" data-name="Path 14930" d="M116.011,385.505c-.048.043-.262-.151-.649-.366a3.19,3.19,0,0,0-3.241.013c-.385.218-.6.414-.645.37s.1-.308.476-.619a2.9,2.9,0,0,1,3.578-.014C115.913,385.2,116.052,385.473,116.011,385.505Z" transform="translate(-111.469 -384.279)" fill="#eb996e"/>
                  </g>
                </g>
              </g>
            </g>
            <g id="Group_5698" data-name="Group 5698" transform="translate(54.383 7.02)">
              <g id="Group_5697" data-name="Group 5697">
                <g id="Group_5696" data-name="Group 5696">
                  <path id="Path_14931" data-name="Path 14931" d="M170.5,400.669a1.6,1.6,0,0,1-.542-.13,3.013,3.013,0,0,1-1.274-.964,4.639,4.639,0,0,1-.927-2.354,6.83,6.83,0,0,1,.6-3.3c.463-1.158,1.158-2.322,1.749-3.628a35.354,35.354,0,0,0,1.614-4.3c.966-3.094,1.663-6.6,2.639-10.238a32.529,32.529,0,0,1,4.118-9.77,15.911,15.911,0,0,1,6.479-5.7,11.725,11.725,0,0,1,5.706-1.158,7.438,7.438,0,0,1,2.1.4c-.011.052-.746-.185-2.112-.234a11.964,11.964,0,0,0-5.57,1.264,15.805,15.805,0,0,0-6.282,5.642,32.768,32.768,0,0,0-4.034,9.664c-.97,3.613-1.68,7.129-2.675,10.243a34.7,34.7,0,0,1-1.669,4.329c-.616,1.322-1.323,2.472-1.791,3.595a6.677,6.677,0,0,0-.64,3.158,4.541,4.541,0,0,0,.822,2.277,3.088,3.088,0,0,0,1.175.986C170.315,400.615,170.506,400.644,170.5,400.669Z" transform="translate(-167.729 -359.117)" fill="#263238"/>
                </g>
              </g>
            </g>
          </g>
          <g id="Group_5702" data-name="Group 5702" transform="translate(50.683 17.991)">
            <g id="Group_5701" data-name="Group 5701">
              <g id="Group_5700" data-name="Group 5700">
                <path id="Path_14932" data-name="Path 14932" d="M132.768,385.151a119.056,119.056,0,0,1,1.818-14.094,118.995,118.995,0,0,1-1.818,14.094Z" transform="translate(-132.744 -371.057)" fill="#263238"/>
              </g>
            </g>
          </g>
          <g id="Group_5728" data-name="Group 5728" transform="translate(0 10.81)">
            <g id="Group_5708" data-name="Group 5708" transform="translate(8.737 29.862)">
              <g id="Group_5704" data-name="Group 5704">
                <g id="Group_5703" data-name="Group 5703">
                  <path id="Path_14933" data-name="Path 14933" d="M110.622,402.386l-1.5,11.781L91.16,398.856l-9.826,2.373s10.131,21.272,18.134,29.7,12.319,9.624,15.339,9.756c4.152.182,6.05-4.874,6.05-4.874l1.809-29.282Z" transform="translate(-81.334 -398.856)" fill="#ffbe9d"/>
                </g>
              </g>
              <g id="Group_5707" data-name="Group 5707" transform="translate(27.845 14.996)">
                <g id="Group_5706" data-name="Group 5706">
                  <g id="Group_5705" data-name="Group 5705">
                    <path id="Path_14934" data-name="Path 14934" d="M115.477,417.237a11.659,11.659,0,0,1,1.686,6.1,380.878,380.878,0,0,0-1.686-6.1Z" transform="translate(-115.462 -417.235)" fill="#eb996e"/>
                  </g>
                </g>
              </g>
            </g>
            <g id="Group_5713" data-name="Group 5713">
              <g id="Group_5710" data-name="Group 5710">
                <g id="Group_5709" data-name="Group 5709">
                  <path id="Path_14935" data-name="Path 14935" d="M87.452,362.256H73.929c-2.045,0-3.872,2.372-3.137,4.31l13.6,26.488a3.079,3.079,0,0,0,2.74,1.673l16.486-.035a2.361,2.361,0,0,0,1.8-3.49L92.292,365.269A5.388,5.388,0,0,0,87.452,362.256Z" transform="translate(-70.626 -362.256)" fill="#455a64"/>
                </g>
              </g>
              <g id="Group_5712" data-name="Group 5712" transform="translate(0.119 1.595)">
                <g id="Group_5711" data-name="Group 5711">
                  <path id="Path_14936" data-name="Path 14936" d="M86.566,364.211H73.043a2.262,2.262,0,0,0-2.019,3.291L84.3,393.415a3.077,3.077,0,0,0,2.739,1.673h16.3a1.331,1.331,0,0,0,1.191-1.93L91.406,367.224A5.389,5.389,0,0,0,86.566,364.211Z" transform="translate(-70.772 -364.211)" fill="#263238"/>
                </g>
              </g>
            </g>
            <g id="Group_5725" data-name="Group 5725" transform="translate(4.772 12.443)">
              <g id="Group_5715" data-name="Group 5715">
                <g id="Group_5714" data-name="Group 5714">
                  <path id="Path_14937" data-name="Path 14937" d="M86.469,377.507l-8.23,3.288-1.764,6.631,3.964,9.872,14.543,2.115-4.26-4.353.548-3.79s4.057-1.273,4.158-1.894-.5-2.7-1.126-2.8-4.878,1.484-4.878,1.484,5.037-3.987,4.9-4.628-.682-2.279-1.687-2.46-9.132,3.649-9.132,3.649l-1.32,3.008-1.151-4.811S88.253,380.791,86.469,377.507Z" transform="translate(-76.475 -377.507)" fill="#ffbe9d"/>
                </g>
              </g>
              <g id="Group_5718" data-name="Group 5718" transform="translate(10.715 10.464)">
                <g id="Group_5717" data-name="Group 5717">
                  <g id="Group_5716" data-name="Group 5716">
                    <path id="Path_14938" data-name="Path 14938" d="M89.922,395.416c-.049.015-.2-.286-.279-.82a4.47,4.47,0,0,1,1.412-3.814c.406-.357.717-.485.745-.441a6.3,6.3,0,0,0-1.878,5.076Z" transform="translate(-89.608 -390.332)" fill="#eb996e"/>
                  </g>
                </g>
              </g>
              <g id="Group_5721" data-name="Group 5721" transform="translate(7.113 5.143)">
                <g id="Group_5720" data-name="Group 5720">
                  <g id="Group_5719" data-name="Group 5719">
                    <path id="Path_14939" data-name="Path 14939" d="M85.2,392.778a17.876,17.876,0,0,0,.326-2.156,9.412,9.412,0,0,1,.414-2.388,3.548,3.548,0,0,1,.758-1.274,3.759,3.759,0,0,1,1.345-.845c1.968-.714,3.74-1.292,5.038-1.711a11.316,11.316,0,0,1,2.125-.585,11.333,11.333,0,0,1-2.026.869c-1.264.489-3.047,1.121-4.978,1.821a3.432,3.432,0,0,0-1.205.742,3.229,3.229,0,0,0-.689,1.12,10.369,10.369,0,0,0-.482,2.287A4.392,4.392,0,0,1,85.2,392.778Z" transform="translate(-85.192 -383.81)" fill="#eb996e"/>
                  </g>
                </g>
              </g>
              <g id="Group_5724" data-name="Group 5724" transform="translate(5.156 9.448)">
                <g id="Group_5723" data-name="Group 5723">
                  <g id="Group_5722" data-name="Group 5722">
                    <path id="Path_14940" data-name="Path 14940" d="M82.868,392.262c-.116-.019-.092-.745.052-1.622s.357-1.573.472-1.553.093.745-.052,1.623S82.984,392.282,82.868,392.262Z" transform="translate(-82.795 -389.087)" fill="#eb996e"/>
                  </g>
                </g>
              </g>
            </g>
            <g id="Group_5727" data-name="Group 5727" transform="translate(9.781 4.87)">
              <g id="Group_5726" data-name="Group 5726">
                <path id="Path_14941" data-name="Path 14941" d="M82.614,369.948a1.723,1.723,0,1,0,1.723-1.723A1.722,1.722,0,0,0,82.614,369.948Z" transform="translate(-82.614 -368.225)" fill="#fafafa"/>
              </g>
            </g>
          </g>
          <g id="Group_5731" data-name="Group 5731" transform="translate(43.494 44.216)">
            <g id="Group_5730" data-name="Group 5730">
              <g id="Group_5729" data-name="Group 5729">
                <path id="Path_14942" data-name="Path 14942" d="M123.935,403.2a2.782,2.782,0,0,1,.5.4l1.349,1.207,4.748,4.389.064.059-.007.091c-.214,2.747-.466,5.978-.734,9.433-.373,5.061-.664,9.646-.827,12.966-.072,1.607-.131,2.934-.176,3.933a9.355,9.355,0,0,1-.1,1.443,9.411,9.411,0,0,1-.069-1.446c-.012-.931-.006-2.278.042-3.942.086-3.328.33-7.92.7-12.985.255-3.468.533-6.709.8-9.435l.056.148-4.644-4.5-1.279-1.279A2.786,2.786,0,0,1,123.935,403.2Z" transform="translate(-123.934 -403.2)" fill="#eb996e"/>
              </g>
            </g>
          </g>
        </g>
      </g>
    </g>
  </g>
</svg>
