<svg id="photo_1_" data-name="photo (1)" xmlns="http://www.w3.org/2000/svg" width="24" height="24" viewBox="0 0 24 24">
  <path id="Path_15209" data-name="Path 15209" d="M21,0H3A3,3,0,0,0,0,3V21a3,3,0,0,0,3,3H21a3,3,0,0,0,3-3V3A3,3,0,0,0,21,0ZM3,2H21a1,1,0,0,1,1,1v7.086L18.707,6.793a1,1,0,0,0-1.414,0L10.25,13.836,7.707,11.293a1,1,0,0,0-1.414,0L2,15.586V3A1,1,0,0,1,3,2ZM21,22H3a1,1,0,0,1-1-1V18.414l5-5,5.793,5.792a1,1,0,1,0,1.414-1.414L11.664,15.25,18,8.915l4,4V21A1,1,0,0,1,21,22Zm0,0" fill="#1f4282"/>
  <path id="Path_15210" data-name="Path 15210" d="M68,66a2,2,0,1,1-2-2A2,2,0,0,1,68,66Zm0,0" transform="translate(-60 -60)" fill="#1f4282"/>
</svg>
