<svg xmlns="http://www.w3.org/2000/svg" width="15.187" height="20" viewBox="0 0 15.187 20">
  <path id="Fill_1100" data-name="Fill 1100" d="M7.593,20a1.609,1.609,0,0,1-1.08-.418,25.978,25.978,0,0,1-3.84-4.4A13.666,13.666,0,0,1,0,7.593a7.593,7.593,0,0,1,15.187,0,13.666,13.666,0,0,1-2.673,7.593,25.9,25.9,0,0,1-3.84,4.4A1.609,1.609,0,0,1,7.593,20Zm0-18.313A5.912,5.912,0,0,0,1.688,7.593a11.956,11.956,0,0,0,2.381,6.64,23.755,23.755,0,0,0,3.524,4.05,23.653,23.653,0,0,0,3.524-4.05A11.956,11.956,0,0,0,13.5,7.593,5.912,5.912,0,0,0,7.593,1.688Zm0,9.281a3.375,3.375,0,1,1,3.375-3.375A3.379,3.379,0,0,1,7.593,10.968Zm0-5.063A1.688,1.688,0,1,0,9.281,7.593,1.689,1.689,0,0,0,7.593,5.906Z" transform="translate(0 0)" fill="#1f4282"/>
</svg>
