<svg xmlns="http://www.w3.org/2000/svg" width="24" height="28.799" viewBox="0 0 24 28.799">
  <path id="Fill_1166" data-name="Fill 1166" d="M17.052,28.8H6.948A3.6,3.6,0,0,1,3.37,25.6L1.326,7.2H1.2a1.2,1.2,0,0,1,0-2.4h6V3.6A3.6,3.6,0,0,1,10.8,0h2.4a3.6,3.6,0,0,1,3.6,3.6V4.8h6a1.2,1.2,0,1,1,0,2.4h-.125L20.629,25.6A3.594,3.594,0,0,1,17.052,28.8ZM3.74,7.2,5.756,25.332A1.2,1.2,0,0,0,6.948,26.4h10.1a1.2,1.2,0,0,0,1.192-1.067L20.259,7.2H3.74ZM10.8,2.4A1.2,1.2,0,0,0,9.6,3.6V4.8h4.8V3.6a1.2,1.2,0,0,0-1.2-1.2Zm3.6,20.4a1.2,1.2,0,0,1-1.2-1.2V12a1.2,1.2,0,1,1,2.4,0v9.6A1.2,1.2,0,0,1,14.4,22.8Zm-4.8,0a1.2,1.2,0,0,1-1.2-1.2V12a1.2,1.2,0,0,1,2.4,0v9.6A1.2,1.2,0,0,1,9.6,22.8Z" fill="#fff"/>
</svg>
