<svg xmlns="http://www.w3.org/2000/svg" width="16" height="18.963" viewBox="0 0 16 18.963">
  <g id="shield" transform="translate(-40 0)">
    <path id="Path_15694" data-name="Path 15694" d="M55.543,3.071,48.284.057a.741.741,0,0,0-.568,0L40.457,3.071A.741.741,0,0,0,40,3.755V7.419a12.4,12.4,0,0,0,7.72,11.489.741.741,0,0,0,.56,0A12.4,12.4,0,0,0,56,7.419V3.755A.741.741,0,0,0,55.543,3.071ZM54.519,7.419a10.926,10.926,0,0,1-6.519,10,10.926,10.926,0,0,1-6.519-10V4.249L48,1.543l6.519,2.706Zm-7.337,2.5,3.184-3.184a.741.741,0,1,1,1.048,1.048l-3.708,3.708a.741.741,0,0,1-1.048,0l-2.07-2.07a.741.741,0,0,1,1.048-1.048Z" fill="#1f4282"/>
  </g>
</svg>
