<svg xmlns="http://www.w3.org/2000/svg" xmlns:xlink="http://www.w3.org/1999/xlink" width="166.724" height="162.57" viewBox="0 0 166.724 162.57">
  <defs>
    <clipPath id="clip-path">
      <path id="Path_15521" data-name="Path 15521" d="M1033.579,2166.393l-94.149-62.766c-2.644-1.762-3.058-4-.919-4.981l32.047-12.2c2.138-.978,6.051-.337,8.7,1.425l92.882,60.885c2.644,1.762,3.057,4,.919,4.981l-30.78,14.076C1040.135,2168.8,1036.223,2168.155,1033.579,2166.393Z" transform="translate(-937.142 -2085.992)" fill="none"/>
    </clipPath>
  </defs>
  <g id="Group_6380" data-name="Group 6380" transform="translate(0 0)">
    <g id="Group_6235" data-name="Group 6235" transform="translate(15.44 115.411)" opacity="0.68">
      <path id="Path_15481" data-name="Path 15481" d="M976.578,3346.377l7.058-2.969a2.182,2.182,0,0,0-.16-4.065l-78.332-24.555a30.688,30.688,0,0,0-18.365,0l-18.867,5.9a2.178,2.178,0,0,0,.075,4.161l88.948,22.977A30.747,30.747,0,0,0,976.578,3346.377Z" transform="translate(-866.413 -3313.383)" fill="#f88732"/>
    </g>
    <g id="Group_6248" data-name="Group 6248" transform="translate(16.377 53.137)">
      <g id="Group_6245" data-name="Group 6245">
        <g id="Group_6236" data-name="Group 6236" transform="translate(0 14.664)">
          <path id="Path_15482" data-name="Path 15482" d="M1025.979,2416.512l-4.62-1.483-1.4,4.37.8.255-27.312,12.953c-2.171,1.03-6.141.408-8.821-1.382l-94.472-63.084.977-3.047-4.62-1.482-1.272,3.986c-.432,1.294.272,2.636,2.176,3.907l95.838,64c2.68,1.79,6.65,2.411,8.821,1.382l31.256-14.823a2.25,2.25,0,0,0,.37-.227,3.113,3.113,0,0,0,1.078-1.561Z" transform="translate(-885.111 -2363.613)" fill="#05293c"/>
        </g>
        <g id="Group_6239" data-name="Group 6239" transform="translate(0 14.664)">
          <g id="Group_6237" data-name="Group 6237" transform="translate(129.88 51.417)">
            <path id="Path_15483" data-name="Path 15483" d="M3482.407,3389.312l-1.4,4.371.8.255-4.39,2.082-1.372,4.278,8.334-3.953a2.257,2.257,0,0,0,.37-.227,3.109,3.109,0,0,0,1.077-1.561l1.208-3.762Z" transform="translate(-3476.038 -3389.312)" fill="#011721"/>
          </g>
          <g id="Group_6238" data-name="Group 6238">
            <path id="Path_15484" data-name="Path 15484" d="M899.349,2374.285l-9.2-6.143.977-3.047-4.62-1.482-1.272,3.986c-.432,1.294.272,2.636,2.176,3.907l10.565,7.055Z" transform="translate(-885.111 -2363.613)" fill="#011721"/>
          </g>
        </g>
        <g id="Group_6240" data-name="Group 6240" transform="translate(1.354)">
          <path id="Path_15485" data-name="Path 15485" d="M1010.283,2153.359l-95.838-64c-2.68-1.79-3.1-4.1-.925-5.126l32.938-12.657c2.171-1.03,6.141-.408,8.821,1.381l94.157,61.831c2.68,1.79,3.1,4.1.925,5.126L1019.1,2154.74C1016.933,2155.77,1012.963,2155.148,1010.283,2153.359Z" transform="translate(-912.128 -2071.081)" fill="#fff"/>
        </g>
        <g id="Group_6241" data-name="Group 6241" transform="translate(2.608 0.747)">
          <path id="Path_15486" data-name="Path 15486" d="M1033.579,2166.393l-94.149-62.766c-2.644-1.762-3.058-4-.919-4.981l32.047-12.2c2.138-.978,6.051-.337,8.7,1.425l92.882,60.885c2.644,1.762,3.057,4,.919,4.981l-30.78,14.076C1040.135,2168.8,1036.223,2168.155,1033.579,2166.393Z" transform="translate(-937.142 -2085.992)" fill="rgba(248,135,50,0.5)"/>
        </g>
        <g id="Group_6242" data-name="Group 6242" transform="translate(2.608 0.747)" opacity="0.38" style="mix-blend-mode: multiply;isolation: isolate">
          <path id="Path_15487" data-name="Path 15487" d="M979.253,2087.876c-2.644-1.762-6.557-2.4-8.7-1.425l-32.047,12.2c-2.138.978-1.725,3.219.919,4.981l9.839,6.56s20.773-18.209,92.118,18.419Z" transform="translate(-937.143 -2085.992)" fill="#bababa"/>
        </g>
        <g id="Group_6243" data-name="Group 6243" transform="translate(36.218 42.568)">
          <path id="Path_15488" data-name="Path 15488" d="M1608.985,2920.4l17.61,11.695a.877.877,0,0,1,.349,1v0a.878.878,0,0,1-1.323.462l-17.61-11.7a.879.879,0,0,1-.349-1h0A.878.878,0,0,1,1608.985,2920.4Z" transform="translate(-1607.62 -2920.252)" fill="#011721"/>
        </g>
        <g id="Group_6244" data-name="Group 6244" transform="translate(119.977 76.415)">
          <path id="Path_15489" data-name="Path 15489" d="M3279.3,3597.92l5.555-2.418c.276-.12.467-.019.469.247v0a1.508,1.508,0,0,1-.813,1.147l-5.555,2.417c-.276.12-.467.02-.469-.247h0A1.509,1.509,0,0,1,3279.3,3597.92Z" transform="translate(-3278.485 -3595.452)" fill="#011721"/>
        </g>
      </g>
      <g id="Group_6246" data-name="Group 6246" transform="translate(16.247 1.064)">
        <path id="Path_15490" data-name="Path 15490" d="M1218.086,2099.968a12.231,12.231,0,0,1-3.111-.426,10.774,10.774,0,0,1-4.383-2.22c-1.084-.976-1.546-2.02-1.3-2.938s1.162-1.595,2.588-1.9a11.812,11.812,0,0,1,9.29,2.466c1.084.976,1.547,2.02,1.3,2.938h0c-.244.919-1.163,1.595-2.588,1.905A8.451,8.451,0,0,1,1218.086,2099.968Zm-4.413-7.544a8.343,8.343,0,0,0-1.769.178c-1.378.3-2.263.944-2.494,1.815s.218,1.87,1.266,2.813a11.688,11.688,0,0,0,9.179,2.436c1.378-.3,2.263-.945,2.494-1.815h0c.231-.87-.218-1.869-1.266-2.813a10.662,10.662,0,0,0-4.331-2.193A12.142,12.142,0,0,0,1213.673,2092.424Z" transform="translate(-1209.225 -2092.298)" fill="#fff"/>
      </g>
      <g id="Group_6247" data-name="Group 6247" transform="translate(17.461 1.172)">
        <ellipse id="Ellipse_712" data-name="Ellipse 712" cx="2.541" cy="4.955" rx="2.541" ry="4.955" transform="matrix(0.257, -0.967, 0.967, 0.257, 0, 4.912)" fill="#fff"/>
      </g>
    </g>
    <g id="Group_6305" data-name="Group 6305" transform="translate(18.985 53.884)">
      <g id="Group_6304" data-name="Group 6304" clip-path="url(#clip-path)">
        <g id="Group_6284" data-name="Group 6284" transform="translate(61.767 107.263)">
          <g id="Group_6282" data-name="Group 6282" transform="translate(7.479)">
            <g id="Group_6252" data-name="Group 6252" transform="translate(14.737 2.975)">
              <g id="Group_6249" data-name="Group 6249">
                <path id="Path_15491" data-name="Path 15491" d="M2630.159,4287.12h0a.151.151,0,0,1-.209-.027l-.133-.173a.149.149,0,0,0-.209-.027l-.172.134a.149.149,0,0,1-.208-.027l-.133-.172a.15.15,0,0,0-.209-.027l-.172.134a.152.152,0,0,1-.21-.028l-.133-.172a.149.149,0,0,0-.208-.028l-.173.134a.149.149,0,0,1-.208-.027l-.133-.173a.151.151,0,0,0-.209-.027l-.173.134a.149.149,0,0,1-.209-.027l-.133-.172a.149.149,0,0,0-.209-.027l-.172.133a.15.15,0,0,1-.209-.027l-.133-.174a.152.152,0,0,0-.209-.026l-.172.133a.148.148,0,0,1-.209-.028l-.133-.171a.149.149,0,0,0-.209-.027l-.172.133a.15.15,0,0,1-.209-.027l-.133-.173a.151.151,0,0,0-.209-.026l-.172.133a.146.146,0,0,1-.208-.027l-.133-.171a.148.148,0,0,0-.209-.026l-.172.132a.148.148,0,0,1-.209-.027l-.133-.172a.148.148,0,0,0-.209-.026l-.173.132a.148.148,0,0,1-.208-.026l-.133-.173a.148.148,0,0,0-.208-.026l-.172.132a.147.147,0,0,1-.21-.027l-.133-.171a.147.147,0,0,0-.209-.026l-.172.132a.148.148,0,0,1-.208-.026l-.133-.173a.148.148,0,0,0-.208-.026l-.173.132a.148.148,0,0,1-.209-.026l-.133-.172a.149.149,0,0,0-.209-.027l-.172.133a.149.149,0,0,1-.208-.025l-.133-.173a.147.147,0,0,0-.209-.027l-.172.132a.148.148,0,0,1-.209-.026l-.133-.172a.149.149,0,0,0-.209-.027l-.172.133a.15.15,0,0,1-.208-.026l-.134-.172a.148.148,0,0,0-.209-.028l-.172.133a.15.15,0,0,1-.209-.027l-.133-.172a.15.15,0,0,0-.209-.028l-.172.134a.15.15,0,0,1-.209-.027l-.133-.171a.15.15,0,0,0-.209-.028l-.172.134a.151.151,0,0,1-.209-.028l-.133-.173a.152.152,0,0,0-.209-.028l-.173.135a.15.15,0,0,1-.209-.028h0a.149.149,0,0,0-.266.071l-2.74,21.32a.149.149,0,0,0,.239.136h0a.15.15,0,0,1,.209.028l.133.172a.149.149,0,0,0,.209.026l.172-.133a.148.148,0,0,1,.209.028l.134.172a.149.149,0,0,0,.209.026l.172-.133a.148.148,0,0,1,.209.028l.133.172a.147.147,0,0,0,.208.026l.172-.132a.147.147,0,0,1,.209.027l.133.172a.148.148,0,0,0,.209.026l.173-.132a.148.148,0,0,1,.208.026l.133.173a.147.147,0,0,0,.209.026l.172-.132a.148.148,0,0,1,.209.026l.133.172a.147.147,0,0,0,.209.027l.172-.132a.148.148,0,0,1,.209.026l.133.173a.148.148,0,0,0,.209.026l.172-.131a.148.148,0,0,1,.209.026l.133.172a.148.148,0,0,0,.209.027l.173-.132a.148.148,0,0,1,.209.025l.133.173a.148.148,0,0,0,.209.027l.172-.133a.149.149,0,0,1,.209.027l.133.172a.149.149,0,0,0,.209.027l.172-.133a.15.15,0,0,1,.209.027l.133.172a.149.149,0,0,0,.209.027l.172-.133a.15.15,0,0,1,.209.026l.133.172a.149.149,0,0,0,.208.028l.172-.134a.15.15,0,0,1,.209.027l.133.172a.15.15,0,0,0,.209.028l.173-.134a.15.15,0,0,1,.209.027l.133.172a.149.149,0,0,0,.208.027l.173-.133a.149.149,0,0,1,.209.027l.133.172a.152.152,0,0,0,.209.028l.173-.135a.15.15,0,0,1,.208.027l.133.172a.149.149,0,0,0,.209.028l.172-.134a.15.15,0,0,1,.209.028l.133.172a.151.151,0,0,0,.209.027l.172-.134a.148.148,0,0,1,.208.028l.133.171a.148.148,0,0,0,.209.026l.172-.132a.149.149,0,0,1,.209.027l.133.172a.151.151,0,0,0,.209.026l.172-.133a.148.148,0,0,1,.209.027l.133.172a.148.148,0,0,0,.209.026l.172-.133a.149.149,0,0,1,.209.028h0a.149.149,0,0,0,.266-.073l2.739-21.319A.148.148,0,0,0,2630.159,4287.12Z" transform="translate(-2612.481 -4285.097)" fill="#ff9f57"/>
              </g>
              <g id="Group_6250" data-name="Group 6250" transform="translate(0.168 1.507)">
                <rect id="Rectangle_4318" data-name="Rectangle 4318" width="15.3" height="18.876" transform="matrix(0.992, 0.127, -0.127, 0.992, 2.406, 0)" fill="#ffb07b"/>
              </g>
              <g id="Group_6251" data-name="Group 6251" transform="translate(1.786 1.507)" opacity="0.3">
                <path id="Path_15492" data-name="Path 15492" d="M2658.853,4317.513a12.606,12.606,0,0,1,4.949,1.729l.273-2.124-15.176-1.949-.788,6.132A12.639,12.639,0,0,1,2658.853,4317.513Z" transform="translate(-2648.111 -4315.168)" fill="#fff"/>
              </g>
            </g>
            <g id="Group_6255" data-name="Group 6255" transform="translate(31.95)">
              <g id="Group_6253" data-name="Group 6253">
                <path id="Path_15493" data-name="Path 15493" d="M2973.564,4238.969a11.715,11.715,0,0,1,1.384-4.6c.488-.884,2.688-5.486,3.439-7.062a.624.624,0,0,0-.263-.815l-1.189-.656a.623.623,0,0,0-.83.212c-.932,1.476-3.652,5.792-4.14,6.676a11.712,11.712,0,0,1-3.155,3.628,14.752,14.752,0,0,0-4.606,4.741l-8.134,14.745a1.726,1.726,0,0,0,.678,2.345l4.784,2.64a1.726,1.726,0,0,0,2.345-.679l8.133-14.745A14.766,14.766,0,0,0,2973.564,4238.969Z" transform="translate(-2955.855 -4225.752)" fill="#fff"/>
              </g>
              <g id="Group_6254" data-name="Group 6254" transform="translate(18.739)">
                <path id="Path_15494" data-name="Path 15494" d="M3332.246,4229.859c.5-1.035.954-1.992,1.224-2.557a.623.623,0,0,0-.263-.815l-1.19-.656a.623.623,0,0,0-.83.212c-.334.53-.9,1.428-1.509,2.4Z" transform="translate(-3329.678 -4225.752)" fill="#05293c"/>
              </g>
            </g>
            <g id="Group_6263" data-name="Group 6263" transform="translate(26.747 10.139)">
              <g id="Group_6256" data-name="Group 6256" transform="translate(0 1.994)">
                <path id="Path_15495" data-name="Path 15495" d="M2865.334,4468.922l-10.056-1.136-.693.464a2.907,2.907,0,0,0-1.27,2.088l-1.223,10.788a4.051,4.051,0,0,0,3.57,4.482l5.322.6a4.051,4.051,0,0,0,4.48-3.569l1.223-10.784a2.91,2.91,0,0,0-.779-2.328Z" transform="translate(-2852.066 -4467.786)" fill="#05293c"/>
              </g>
              <g id="Group_6257" data-name="Group 6257" transform="translate(0.571 8.209)">
                <rect id="Rectangle_4319" data-name="Rectangle 4319" width="13.459" height="2.327" transform="translate(0.261 0) rotate(6.446)" fill="#fff"/>
              </g>
              <g id="Group_6258" data-name="Group 6258" transform="translate(0.928 3.157)">
                <circle id="Ellipse_713" data-name="Ellipse 713" cx="4.604" cy="4.604" r="4.604" transform="translate(0 6.511) rotate(-45)" fill="#ededed"/>
              </g>
              <g id="Group_6259" data-name="Group 6259" transform="translate(3.212 1.606)">
                <rect id="Rectangle_4320" data-name="Rectangle 4320" width="10.12" height="0.39" transform="translate(0.045 0) rotate(6.656)" fill="#011721"/>
              </g>
              <g id="Group_6260" data-name="Group 6260" transform="translate(2.44)">
                <path id="Path_15496" data-name="Path 15496" d="M2911.722,4430.814l-10.291-1.162a.782.782,0,0,1-.688-.865l.01-.086a.781.781,0,0,1,.865-.689l10.29,1.164a.78.78,0,0,1,.689.863l-.01.087A.78.78,0,0,1,2911.722,4430.814Z" transform="translate(-2900.738 -4428.008)" fill="#ededed"/>
              </g>
              <g id="Group_6261" data-name="Group 6261" transform="translate(1.669 3.898)">
                <circle id="Ellipse_714" data-name="Ellipse 714" cx="4.08" cy="4.08" r="4.08" transform="translate(0 5.771) rotate(-45)" fill="#fff"/>
              </g>
              <g id="Group_6262" data-name="Group 6262" transform="translate(2.45 0.005)">
                <path id="Path_15497" data-name="Path 15497" d="M2912.051,4429.258l-10.2-1.153a.825.825,0,0,0-.912.727h0l11.844,1.336A.824.824,0,0,0,2912.051,4429.258Z" transform="translate(-2900.935 -4428.1)" fill="#fff"/>
              </g>
            </g>
            <g id="Group_6267" data-name="Group 6267" transform="translate(33.223 16.069)">
              <g id="Group_6264" data-name="Group 6264">
                <path id="Path_15498" data-name="Path 15498" d="M2996.272,4561.338a10.936,10.936,0,0,0,3.677-15.022l-18.7,11.346A10.936,10.936,0,0,0,2996.272,4561.338Z" transform="translate(-2981.25 -4546.316)" fill="#011721"/>
              </g>
              <g id="Group_6265" data-name="Group 6265" transform="translate(0.311 0.188)">
                <path id="Path_15499" data-name="Path 15499" d="M3001.969,4564.6a10.573,10.573,0,0,0,3.555-14.523l-18.078,10.968A10.573,10.573,0,0,0,3001.969,4564.6Z" transform="translate(-2987.446 -4550.076)" fill="#fff"/>
              </g>
              <g id="Group_6266" data-name="Group 6266" transform="translate(1.065 0.646)">
                <path id="Path_15500" data-name="Path 15500" d="M3015.807,4572.518a9.69,9.69,0,0,0,3.258-13.311L3002.5,4569.26A9.69,9.69,0,0,0,3015.807,4572.518Z" transform="translate(-3002.496 -4559.207)" fill="#7f1212"/>
              </g>
            </g>
            <g id="Group_6272" data-name="Group 6272" transform="translate(0 1.441)">
              <g id="Group_6268" data-name="Group 6268" transform="translate(0 1.966)">
                <path id="Path_15501" data-name="Path 15501" d="M2332.411,4293.7l-12.057.428-1.864,3.575.878,24.76,16.034-.569-.879-24.759Z" transform="translate(-2318.49 -4293.704)" fill="#fff"/>
              </g>
              <g id="Group_6269" data-name="Group 6269" transform="translate(1.795 0)">
                <rect id="Rectangle_4321" data-name="Rectangle 4321" width="12.064" height="1.967" transform="translate(0 0.428) rotate(-2.032)" fill="#011721"/>
              </g>
              <g id="Group_6270" data-name="Group 6270" transform="translate(0 1.966)">
                <path id="Path_15502" data-name="Path 15502" d="M2320.354,4294.132l-1.864,3.575,16.034-.568-2.113-3.435Z" transform="translate(-2318.49 -4293.704)" fill="#ededed"/>
              </g>
              <g id="Group_6271" data-name="Group 6271" transform="translate(0.148 9.571)">
                <rect id="Rectangle_4322" data-name="Rectangle 4322" width="16.044" height="6.799" transform="translate(0 0.569) rotate(-2.032)" fill="#ededed"/>
              </g>
            </g>
            <g id="Group_6276" data-name="Group 6276" transform="translate(16.862 15.755)">
              <g id="Group_6273" data-name="Group 6273" transform="translate(0 0)">
                <circle id="Ellipse_715" data-name="Ellipse 715" cx="4.847" cy="4.847" r="4.847" transform="translate(0 6.854) rotate(-45)" fill="#cc3429"/>
              </g>
              <g id="Group_6275" data-name="Group 6275" transform="translate(7.485 0.49)">
                <g id="Group_6274" data-name="Group 6274">
                  <path id="Path_15503" data-name="Path 15503" d="M2804.4,4552.448a.232.232,0,0,1-.177-.186,3.18,3.18,0,0,1,.536-2.343.233.233,0,1,1,.359.3,2.755,2.755,0,0,0-.437,1.968.233.233,0,0,1-.19.269A.219.219,0,0,1,2804.4,4552.448Z" transform="translate(-2804.186 -4549.833)" fill="#011721"/>
                </g>
              </g>
            </g>
            <g id="Group_6280" data-name="Group 6280" transform="translate(10.143 15.84)">
              <g id="Group_6277" data-name="Group 6277" transform="translate(0 0)">
                <circle id="Ellipse_716" data-name="Ellipse 716" cx="4.847" cy="4.847" r="4.847" transform="translate(0 6.854) rotate(-45)" fill="#dd4945"/>
              </g>
              <g id="Group_6279" data-name="Group 6279" transform="translate(3.848 0.981)">
                <g id="Group_6278" data-name="Group 6278">
                  <path id="Path_15504" data-name="Path 15504" d="M2598.9,4563.723a.236.236,0,0,1-.256-.034,3.181,3.181,0,0,1-1.055-2.161.232.232,0,1,1,.465,0,2.762,2.762,0,0,0,.9,1.806.233.233,0,0,1,.022.328A.259.259,0,0,1,2598.9,4563.723Z" transform="translate(-2597.593 -4561.297)" fill="#011721"/>
                </g>
              </g>
            </g>
            <g id="Group_6281" data-name="Group 6281" transform="translate(6.095 18.886)">
              <path id="Path_15505" data-name="Path 15505" d="M2448.521,4606.759a.82.82,0,0,1-.771-1.223.823.823,0,0,0-.9-.742.811.811,0,0,0-.413.161.823.823,0,0,0-.79-.413.175.175,0,1,1-.194-.263.82.82,0,0,0-1.575-.237.8.8,0,0,0,.018-.245.822.822,0,1,0-1.637.153c0,.013.006.025.008.037-.924-.4-1.875-1-1.839-1.285a.177.177,0,1,0-.351-.044c-.077.6,1.159,1.25,1.824,1.556a.817.817,0,0,0-.146,1.565c-.384,1.272.576,1.324.97,1.294a.805.805,0,0,0,0,.177.819.819,0,0,1,.5,1.337.82.82,0,0,0,1.637-.1,1.617,1.617,0,0,1,2.152-.016.819.819,0,0,0,.742-.814h.023A.822.822,0,0,0,2448.521,4606.759Z" transform="translate(-2440.077 -4602.501)" fill="#05293c"/>
            </g>
          </g>
          <g id="Group_6283" data-name="Group 6283" transform="translate(0 22.422)">
            <path id="Path_15506" data-name="Path 15506" d="M2229.288,4677.256l-1.323,1.126-1.141-1.343-1.343,1.141-1.141-1.342-1.341,1.141-1.142-1.342-1.342,1.141-1.141-1.342-1.342,1.141-1.141-1.342-1.342,1.141-1.141-1.342-1.342,1.141-1.141-1.341-1.342,1.141-1.141-1.343-1.342,1.142-1.141-1.342-1.342,1.141-1.141-1.342-1.343,1.141-1.141-1.342-1.342,1.141-1.141-1.342-1.342,1.141-1.141-1.342-1.342,1.141-1.142-1.341-1.342,1.141-1.141-1.343-1.342,1.141-1.141-1.342-1.342,1.142-1.141-1.343-1.342,1.141-1.141-1.342-1.342,1.141-1.141-1.342-1.342,1.141-1.141-1.342-1.342,1.141-1.125-1.323L2169.3,4722.4l59.815,4.843Z" transform="translate(-2169.302 -4673.037)" fill="#f9c6c2"/>
          </g>
        </g>
        <g id="Group_6303" data-name="Group 6303" transform="translate(43.032 -53.884)">
          <g id="Group_6292" data-name="Group 6292" transform="translate(63.617 0)">
            <g id="Group_6285" data-name="Group 6285" transform="translate(9.864 0.332)">
              <path id="Path_15507" data-name="Path 15507" d="M3291.867,1041.946l-26.331,2.581-4.113-9.7,20.161-17.132Z" transform="translate(-3261.423 -1017.695)" fill="#fff"/>
            </g>
            <g id="Group_6286" data-name="Group 6286" transform="translate(0 17.463)">
              <path id="Rectangle_4323" data-name="Rectangle 4323" d="M0,0H5.445a5.268,5.268,0,0,1,5.268,5.268v0a5.268,5.268,0,0,1-5.268,5.268H0a0,0,0,0,1,0,0V0A0,0,0,0,1,0,0Z" transform="matrix(-0.921, 0.39, -0.39, -0.921, 13.977, 9.7)" fill="#fff"/>
            </g>
            <g id="Group_6287" data-name="Group 6287" transform="translate(6.812 26.486)">
              <path id="Path_15508" data-name="Path 15508" d="M3203.438,1545.915a2.572,2.572,0,0,1-2.361-1.565l-.51-1.2a.25.25,0,1,1,.461-.2l.511,1.2a2.063,2.063,0,0,0,2.705,1.094l6.5-2.755a2.064,2.064,0,0,0,1.094-2.705.251.251,0,1,1,.461-.2,2.564,2.564,0,0,1-1.359,3.363l-6.5,2.756A2.554,2.554,0,0,1,3203.438,1545.915Z" transform="translate(-3200.546 -1539.439)" fill="#fff"/>
            </g>
            <g id="Group_6288" data-name="Group 6288" transform="translate(12.236 13.203)">
              <path id="Path_15509" data-name="Path 15509" d="M3310.5,1288.428l26.33-2.581-4.825-11.38-23.246,9.856Z" transform="translate(-3308.758 -1274.468)" fill="#eaeaea"/>
            </g>
            <g id="Group_6289" data-name="Group 6289" transform="translate(2.373 23.06)">
              <path id="Path_15510" data-name="Path 15510" d="M3116.682,1478.12l6.914-2.931-1.74-4.1-9.864,4.182.49,1.154A3.2,3.2,0,0,0,3116.682,1478.12Z" transform="translate(-3111.992 -1471.085)" fill="#eaeaea"/>
            </g>
            <g id="Group_6290" data-name="Group 6290" transform="translate(29.243)">
              <ellipse id="Ellipse_717" data-name="Ellipse 717" cx="0.85" cy="13.17" rx="0.85" ry="13.17" transform="translate(0 0.663) rotate(-22.977)" fill="#c9c3c3"/>
            </g>
            <g id="Group_6291" data-name="Group 6291" transform="translate(32.217 7.538)">
              <path id="Path_15511" data-name="Path 15511" d="M3707.349,1161.452h.419a3.188,3.188,0,0,1,2.936,1.943l2.005,4.73a3.187,3.187,0,0,1-.45,3.242l-.417.519S3708.547,1164.96,3707.349,1161.452Z" transform="translate(-3707.349 -1161.452)" fill="#011721"/>
            </g>
          </g>
          <g id="Group_6299" data-name="Group 6299" transform="translate(5.121 26.224)">
            <g id="Group_6293" data-name="Group 6293" transform="translate(0 3.98)">
              <path id="Path_15512" data-name="Path 15512" d="M1971.972,1616.191l-2.471.968c.479,3.486,3.1,19.88,3.1,19.88-8.083-9.608-16.016-12.793-21.181-13.787a20.883,20.883,0,0,0-2.206-.24,1.7,1.7,0,0,1-1.522-1.245h0a.857.857,0,0,1,.547-1.036l1.376-.473a.957.957,0,0,0,.623-.7l.635-2.873a.517.517,0,0,0-.194-.525l-3.412-2.561-5.07,3.337,2.6,6.333,0,0a18.633,18.633,0,0,0-3.984,1.247c-17.5,7.724-43.084,36.462-43.084,36.462l2.09,3.235c19.191-15.6,29.66-21,34.5-22.865a2.909,2.909,0,0,1,3.914,2.356c6.616,49.694-25.352,75.192-25.352,75.192l6.5,10.123c18.959-7.553,32.035-34.973,32.035-34.973,3.946,14.924,1.4,43.033,1.4,43.033l7.093.642c13.649-30.811-.407-99.356-.407-99.356,10.846,10.384,18.224,9.331,18.224,9.331C1983.417,1631.661,1971.972,1616.191,1971.972,1616.191Z" transform="translate(-1897.731 -1613.601)" fill="#05293c"/>
            </g>
            <g id="Group_6294" data-name="Group 6294" transform="translate(0 3.98)">
              <path id="Path_15513" data-name="Path 15513" d="M1937.266,1675.443s26.912,3.545,27.155-3.289c.619-17.374-4.918-33.785-4.918-33.785,10.846,10.384,18.224,9.331,18.224,9.331,5.69-16.038-5.755-31.509-5.755-31.509l-2.471.968c.479,3.486,3.1,19.88,3.1,19.88-8.083-9.608-16.016-12.793-21.181-13.787a20.879,20.879,0,0,0-2.206-.24,1.7,1.7,0,0,1-1.522-1.245.857.857,0,0,1,.547-1.036l1.376-.473a.957.957,0,0,0,.623-.7l.635-2.873a.517.517,0,0,0-.194-.525l-3.412-2.561-5.07,3.337,2.6,6.333,0,0a18.633,18.633,0,0,0-3.984,1.247c-17.5,7.724-43.084,36.462-43.084,36.462l2.09,3.235c19.191-15.6,29.66-21,34.5-22.865a2.909,2.909,0,0,1,3.914,2.356A93.892,93.892,0,0,1,1937.266,1675.443Z" transform="translate(-1897.731 -1613.601)" fill="#fff"/>
            </g>
            <g id="Group_6295" data-name="Group 6295" transform="translate(15.15 75.214)">
              <path id="Path_15514" data-name="Path 15514" d="M2199.954,3068.7l6.5,10.123c18.958-7.553,32.035-34.974,32.035-34.974,3.946,14.924,1.4,43.033,1.4,43.033l2.3.209s6.445-32.394.377-52.456C2239.415,3039.268,2222.654,3062.523,2199.954,3068.7Z" transform="translate(-2199.954 -3034.634)" fill="#011721"/>
            </g>
            <g id="Group_6296" data-name="Group 6296" transform="translate(39.515 32.257)">
              <path id="Path_15515" data-name="Path 15515" d="M2686,2177.7h0a2.922,2.922,0,0,1,.987,1.831,93.9,93.9,0,0,1-.967,31.733s26.911,3.545,27.156-3.289C2713.173,2207.976,2701.963,2179.267,2686,2177.7Z" transform="translate(-2685.997 -2177.701)" fill="#eaeaea"/>
            </g>
            <g id="Group_6297" data-name="Group 6297" transform="translate(59.292 23.9)">
              <path id="Path_15516" data-name="Path 15516" d="M3083.014,2016.081a.251.251,0,0,1-.226-.141l-2.229-4.6a.251.251,0,0,1,.452-.219l2.228,4.6a.251.251,0,0,1-.225.36Z" transform="translate(-3080.535 -2010.983)" fill="#011721"/>
            </g>
            <g id="Group_6298" data-name="Group 6298" transform="translate(15.651)">
              <path id="Path_15517" data-name="Path 15517" d="M2243.138,1535.588l.016-.02a1.445,1.445,0,0,1,2.524,1.2,63.155,63.155,0,0,1-3.267,11.58,9.891,9.891,0,0,1-8.867,6.081,15.841,15.841,0,0,1-4.484-.583s-8.425,6.107-12.622,9.864c0,0-8.786-1.23-5.913-8.531a11.611,11.611,0,0,1,3.909-5.012,39.621,39.621,0,0,1,9.94-5.6,11.4,11.4,0,0,0,6.5-5.7c1.689-3.363,5.11-6.643,11.817-3.2A.365.365,0,0,0,2243.138,1535.588Z" transform="translate(-2209.948 -1534.211)" fill="#011721"/>
            </g>
          </g>
          <g id="Group_6300" data-name="Group 6300" transform="translate(74.838 28.509)">
            <path id="Path_15518" data-name="Path 15518" d="M3290.554,1585.044l-1.631-1.24a1.067,1.067,0,0,1-.421-.875l.023-1.046a1.366,1.366,0,0,1,.8-1.21l1.653-.758a1.36,1.36,0,0,1,1.926,1.18l.125,2.98Z" transform="translate(-3288.502 -1579.791)" fill="#011721"/>
          </g>
          <g id="Group_6301" data-name="Group 6301" transform="translate(0 77.586)">
            <path id="Path_15519" data-name="Path 15519" d="M1800.7,2558.813l-4.693,4.359c-.286.273-.6.632-.319.913.075.075.729.417,2.161-.655,1.123-.84,2.788.716,4.942-1.382Z" transform="translate(-1795.575 -2558.813)" fill="#011721"/>
          </g>
          <g id="Group_6302" data-name="Group 6302" transform="translate(24.543 27.622)">
            <path id="Path_15520" data-name="Path 15520" d="M2285.229,1577.255a.063.063,0,0,1-.029-.118c4.154-2.219,12.077-1.242,14.407-.889.321.048.744.108,1.18.142,4.856.372,8.469-.722,10.748-3.257,3.746-4.168,2.554-10.881,2.542-10.949a.063.063,0,1,1,.123-.023c.013.068,1.216,6.84-2.572,11.055-2.3,2.566-5.952,3.677-10.851,3.3-.44-.034-.867-.094-1.189-.143-2.32-.351-10.208-1.326-14.329.876A.063.063,0,0,1,2285.229,1577.255Z" transform="translate(-2285.166 -1562.11)" fill="#fff"/>
          </g>
        </g>
      </g>
    </g>
    <g id="Group_6306" data-name="Group 6306" transform="translate(59.603 107.175)">
      <path id="Path_15522" data-name="Path 15522" d="M1753.271,3153.048a.071.071,0,0,1-.035-.01l-5.789-3.841a.063.063,0,0,1,.069-.1l5.79,3.84a.063.063,0,0,1,.017.087A.061.061,0,0,1,1753.271,3153.048Z" transform="translate(-1747.419 -3149.083)" fill="#fff"/>
    </g>
    <g id="Group_6307" data-name="Group 6307" transform="translate(83.089 120.699)">
      <path id="Path_15523" data-name="Path 15523" d="M2242.394,3437.1a.06.06,0,0,1-.035-.011l-26.4-18.118a.063.063,0,0,1-.016-.087.063.063,0,0,1,.087-.017l26.4,18.119a.063.063,0,0,1,.017.087A.064.064,0,0,1,2242.394,3437.1Z" transform="translate(-2215.933 -3418.855)" fill="#fff"/>
    </g>
    <g id="Group_6308" data-name="Group 6308" transform="translate(148.176 109.046)">
      <path id="Path_15524" data-name="Path 15524" d="M3522.973,3191.813a.058.058,0,0,1-.033-.01l-8.574-5.277a.063.063,0,0,1-.02-.086.061.061,0,0,1,.086-.02l8.574,5.277a.062.062,0,0,1,.021.086A.064.064,0,0,1,3522.973,3191.813Z" transform="translate(-3514.337 -3186.41)" fill="#fff"/>
    </g>
    <g id="Group_6309" data-name="Group 6309" transform="translate(60.951 42.445)">
      <path id="Path_15525" data-name="Path 15525" d="M1788.142,1866.518a.066.066,0,0,1-.033-.009l-13.777-8.6a.063.063,0,0,1-.02-.087.064.064,0,0,1,.086-.02l13.778,8.6a.063.063,0,0,1-.033.116Z" transform="translate(-1774.302 -1857.797)" fill="#fff"/>
    </g>
    <g id="Group_6310" data-name="Group 6310" transform="translate(49.485 62.1)">
      <path id="Path_15526" data-name="Path 15526" d="M1557.509,2258.263a.062.062,0,0,1-.036-.011l-11.875-8.237a.063.063,0,0,1,.071-.1l11.876,8.238a.062.062,0,0,1-.036.114Z" transform="translate(-1545.571 -2249.9)" fill="#fff"/>
    </g>
    <g id="Group_6311" data-name="Group 6311" transform="translate(71.546 82.915)">
      <path id="Path_15527" data-name="Path 15527" d="M1992.468,2669.552a.069.069,0,0,1-.034-.01l-6.747-4.3a.063.063,0,0,1,.068-.106l6.747,4.3a.063.063,0,0,1-.034.116Z" transform="translate(-1985.658 -2665.126)" fill="#fff"/>
    </g>
    <g id="Group_6312" data-name="Group 6312" transform="translate(126.95 132.063)">
      <path id="Path_15528" data-name="Path 15528" d="M3101.074,3652.244a.063.063,0,0,1-.034-.011l-10.114-6.567a.063.063,0,0,1-.018-.087.062.062,0,0,1,.087-.019l10.113,6.569a.062.062,0,0,1,.018.086A.065.065,0,0,1,3101.074,3652.244Z" transform="translate(-3090.898 -3645.551)" fill="#fff"/>
    </g>
    <g id="Group_6313" data-name="Group 6313" transform="translate(9.443 68.611)">
      <path id="Path_15529" data-name="Path 15529" d="M746.855,2387.224a.062.062,0,0,1-.024-.12l17.916-7.319a.062.062,0,0,1,.082.034.063.063,0,0,1-.034.082l-17.916,7.319A.067.067,0,0,1,746.855,2387.224Z" transform="translate(-746.793 -2379.779)" fill="#fff"/>
    </g>
    <g id="Group_6314" data-name="Group 6314" transform="translate(76.165 82.024)">
      <path id="Path_15530" data-name="Path 15530" d="M2077.876,2662.592a.062.062,0,0,1-.056-.035.063.063,0,0,1,.028-.084l30.442-15.11a.064.064,0,0,1,.084.028.063.063,0,0,1-.028.084l-30.442,15.111A.067.067,0,0,1,2077.876,2662.592Z" transform="translate(-2077.814 -2647.357)" fill="#fff"/>
    </g>
    <g id="Group_6315" data-name="Group 6315" transform="translate(130.383 138.53)">
      <path id="Path_15531" data-name="Path 15531" d="M3159.438,3782.277a.063.063,0,0,1-.027-.119l15.632-7.58a.063.063,0,0,1,.055.113l-15.632,7.581A.065.065,0,0,1,3159.438,3782.277Z" transform="translate(-3159.375 -3774.572)" fill="#fff"/>
    </g>
    <g id="Group_6316" data-name="Group 6316" transform="translate(21.296 95.16)">
      <path id="Path_15532" data-name="Path 15532" d="M1000.947,2922.448a.066.066,0,0,1-.037-.012l-17.641-12.926a.062.062,0,1,1,.074-.1l17.641,12.926a.062.062,0,0,1-.037.113Z" transform="translate(-983.243 -2909.396)" fill="rgba(248,135,50,0.5)"/>
    </g>
    <g id="Group_6317" data-name="Group 6317" transform="translate(25.328 48.65)">
      <path id="Path_15533" data-name="Path 15533" d="M1068.694,1986.121a1.836,1.836,0,0,1-.95-.264l-3.846-1.7a.461.461,0,0,1,.072-.831l4.434-1.643a1.817,1.817,0,0,1,1.574.146l3.825,1.657a.461.461,0,0,1-.066.83l-4.394,1.68A1.821,1.821,0,0,1,1068.694,1986.121Zm-.268-4.375.022.059-4.434,1.643a.336.336,0,0,0-.058.6l3.846,1.7a1.72,1.72,0,0,0,1.5.138l4.395-1.68a.336.336,0,0,0,.053-.6l-3.825-1.657a1.7,1.7,0,0,0-1.473-.14Z" transform="translate(-1063.669 -1981.573)" fill="#fff"/>
    </g>
    <g id="Group_6318" data-name="Group 6318" transform="translate(45.474 107.97)">
      <path id="Path_15534" data-name="Path 15534" d="M1472.883,3172.6a2.763,2.763,0,0,1-1.432-.4l-5.561-3.375a.671.671,0,0,1,.115-1.2l6.762-2.506a2.738,2.738,0,0,1,2.372.22l5.53,3.317a.671.671,0,0,1-.106,1.2l-6.7,2.561A2.734,2.734,0,0,1,1472.883,3172.6Zm-.073-7.364-6.762,2.506a.546.546,0,0,0-.094.978l5.561,3.375a2.645,2.645,0,0,0,2.3.208l6.7-2.562a.545.545,0,0,0,.086-.978l-5.53-3.317a2.613,2.613,0,0,0-2.263-.21Z" transform="translate(-1465.567 -3164.943)" fill="#fff"/>
    </g>
    <g id="Group_6333" data-name="Group 6333" transform="translate(16.805 72.739)">
      <g id="Group_6319" data-name="Group 6319" transform="translate(1.382 3.766)">
        <path id="Path_15535" data-name="Path 15535" d="M928.226,2541.708a.064.064,0,0,1-.033-.009l-6.932-4.325a.063.063,0,0,1,.066-.107l6.932,4.325a.063.063,0,0,1,.02.087A.061.061,0,0,1,928.226,2541.708Z" transform="translate(-921.231 -2537.258)" fill="#fff"/>
      </g>
      <g id="Group_6320" data-name="Group 6320" opacity="0.88">
        <path id="Path_15536" data-name="Path 15536" d="M951.51,2475.982l-20.6-13.189a4.186,4.186,0,0,0-3.755-.385l-32.609,12.478a1.384,1.384,0,0,0-.338,2.4l20.577,15.492a4.188,4.188,0,0,0,4.267.459l3.828-1.758a1.056,1.056,0,0,1,1.007.069l3.313,2.1a.939.939,0,0,0,1.505-.829l-.805-1.929a2.35,2.35,0,0,1,1.361-2.341l22.077-10.14A1.385,1.385,0,0,0,951.51,2475.982Z" transform="translate(-893.659 -2462.131)" fill="#fff"/>
      </g>
      <g id="Group_6332" data-name="Group 6332" transform="translate(16.862 7.719)">
        <g id="Group_6321" data-name="Group 6321" transform="translate(0.966)">
          <path id="Path_15537" data-name="Path 15537" d="M1249.368,2621.98a.062.062,0,0,1-.058-.038.063.063,0,0,1,.033-.082l13.639-5.744a.062.062,0,1,1,.048.115l-13.639,5.744A.057.057,0,0,1,1249.368,2621.98Z" transform="translate(-1249.306 -2616.11)" fill="rgba(248,135,50,0.6)"/>
        </g>
        <g id="Group_6322" data-name="Group 6322" transform="translate(2.9 0.23)">
          <path id="Path_15538" data-name="Path 15538" d="M1287.942,2623.945a.062.062,0,0,1-.058-.038.063.063,0,0,1,.033-.083l7.408-3.12a.063.063,0,0,1,.048.116l-7.408,3.12A.059.059,0,0,1,1287.942,2623.945Z" transform="translate(-1287.88 -2620.7)" fill="rgba(248,135,50,0.6)"/>
        </g>
        <g id="Group_6323" data-name="Group 6323" transform="translate(8.57 6.98)">
          <path id="Path_15539" data-name="Path 15539" d="M1401.047,2761.736a.063.063,0,0,1-.024-.121l14.845-6.252a.063.063,0,0,1,.082.033.063.063,0,0,1-.034.083l-14.845,6.252A.062.062,0,0,1,1401.047,2761.736Z" transform="translate(-1400.985 -2755.358)" fill="rgba(248,135,50,0.6)"/>
        </g>
        <g id="Group_6324" data-name="Group 6324" transform="translate(32.843 6.085)">
          <path id="Path_15540" data-name="Path 15540" d="M1886.742,2738.6a2.352,2.352,0,0,1-.556-.073,2.082,2.082,0,0,1-.716-.311c-.2-.143-.285-.3-.251-.436.067-.275.585-.368,1.2-.217s1.035.473.968.747h0C1887.343,2738.495,1887.092,2738.6,1886.742,2738.6Zm-.871-.981c-.3,0-.5.079-.53.191-.021.085.053.2.2.306a1.958,1.958,0,0,0,.672.29c.567.138,1.01.046,1.052-.124h0c.042-.171-.308-.457-.875-.6A2.228,2.228,0,0,0,1885.871,2737.616Z" transform="translate(-1885.211 -2737.489)" fill="rgba(248,135,50,0.6)"/>
        </g>
        <g id="Group_6325" data-name="Group 6325" transform="translate(31.081 6.82)">
          <path id="Path_15541" data-name="Path 15541" d="M1851.582,2753.256a2.345,2.345,0,0,1-.552-.071,2.087,2.087,0,0,1-.716-.31c-.2-.143-.285-.3-.251-.437s.184-.235.424-.271a2.31,2.31,0,0,1,1.495.365c.2.142.285.3.252.436s-.185.236-.425.272A1.5,1.5,0,0,1,1851.582,2753.256Zm-.869-.979a1.34,1.34,0,0,0-.208.014c-.183.027-.3.093-.321.177s.054.2.2.306a2.192,2.192,0,0,0,1.4.343c.183-.028.3-.092.321-.177s-.053-.2-.2-.305a1.959,1.959,0,0,0-.673-.29A2.233,2.233,0,0,0,1850.714,2752.276Z" transform="translate(-1850.056 -2752.15)" fill="rgba(248,135,50,0.6)"/>
        </g>
        <g id="Group_6331" data-name="Group 6331" transform="translate(0 1.232)">
          <g id="Group_6326" data-name="Group 6326" transform="translate(4.373 5.482)">
            <path id="Path_15542" data-name="Path 15542" d="M1318.219,2750.107l1.276.629a.393.393,0,0,0,.309.022l1.061-.455c.187-.08.49.069.442.219l-.271.846c-.021.066.032.145.133.194l1.275.631c.225.111.161.312-.094.292l-1.444-.105c-.114-.009-.205.031-.227.1l-.273.845c-.048.15-.391.124-.5-.037l-.621-.911a.376.376,0,0,0-.273-.135l-1.444-.108c-.254-.019-.4-.234-.215-.316l1.06-.457a.113.113,0,0,0,.058-.181l-.619-.911C1317.742,2750.1,1317.994,2750,1318.219,2750.107Z" transform="translate(-1317.268 -2750.062)" fill="rgba(248,135,50,0.6)"/>
          </g>
          <g id="Group_6327" data-name="Group 6327" transform="translate(0 7.295)">
            <path id="Path_15543" data-name="Path 15543" d="M1230.983,2786.263l1.276.629a.394.394,0,0,0,.309.023l1.062-.456c.187-.081.49.069.442.218l-.271.845c-.021.067.032.146.133.2l1.275.629c.225.111.16.312-.094.293l-1.444-.106c-.114-.008-.205.031-.227.1l-.273.845c-.048.149-.391.123-.5-.037l-.621-.912a.376.376,0,0,0-.273-.134l-1.444-.108c-.255-.019-.4-.235-.215-.316l1.06-.457a.114.114,0,0,0,.058-.181l-.619-.912C1230.506,2786.26,1230.758,2786.152,1230.983,2786.263Z" transform="translate(-1230.032 -2786.218)" fill="rgba(248,135,50,0.6)"/>
          </g>
          <g id="Group_6328" data-name="Group 6328" transform="translate(8.696 3.626)">
            <path id="Path_15544" data-name="Path 15544" d="M1404.451,2713.085l1.276.629a.4.4,0,0,0,.309.023l1.061-.456c.187-.08.49.069.442.218l-.271.845c-.021.067.032.145.132.195l1.275.63c.225.11.16.312-.094.292l-1.444-.106c-.114-.009-.205.031-.227.1l-.273.845c-.048.15-.391.124-.5-.037l-.621-.911a.373.373,0,0,0-.273-.135l-1.444-.108c-.255-.019-.4-.235-.215-.315l1.06-.457a.114.114,0,0,0,.058-.181l-.619-.912C1403.974,2713.083,1404.226,2712.974,1404.451,2713.085Z" transform="translate(-1403.5 -2713.04)" fill="rgba(248,135,50,0.6)"/>
          </g>
          <g id="Group_6329" data-name="Group 6329" transform="translate(13.013 1.796)">
            <path id="Path_15545" data-name="Path 15545" d="M1490.579,2676.572l1.276.629a.394.394,0,0,0,.309.023l1.061-.456c.187-.08.49.069.442.218l-.271.845c-.021.066.032.145.133.2l1.275.63c.225.111.161.312-.094.292l-1.444-.106c-.114-.008-.205.031-.227.1l-.273.845c-.048.149-.391.123-.5-.037l-.621-.911a.374.374,0,0,0-.273-.135l-1.444-.108c-.255-.019-.4-.236-.215-.316l1.06-.457a.114.114,0,0,0,.058-.181l-.619-.912C1490.1,2676.57,1490.354,2676.462,1490.579,2676.572Z" transform="translate(-1489.629 -2676.527)" fill="rgba(248,135,50,0.6)"/>
          </g>
          <g id="Group_6330" data-name="Group 6330" transform="translate(17.242)">
            <path id="Path_15546" data-name="Path 15546" d="M1574.93,2640.742l1.276.629a.4.4,0,0,0,.309.023l1.062-.456c.187-.081.49.069.442.218l-.271.846c-.021.067.033.146.133.2l1.275.629c.225.112.161.312-.094.294l-1.444-.107c-.114-.009-.205.031-.227.1l-.273.845c-.048.148-.391.123-.5-.037l-.621-.912a.379.379,0,0,0-.273-.134l-1.444-.108c-.254-.019-.4-.235-.215-.316l1.06-.457a.113.113,0,0,0,.058-.181l-.619-.912C1574.453,2640.739,1574.705,2640.631,1574.93,2640.742Z" transform="translate(-1573.979 -2640.697)" fill="rgba(248,135,50,0.6)"/>
          </g>
        </g>
      </g>
    </g>
    <g id="Group_6339" data-name="Group 6339" transform="translate(43.399 46.741)">
      <g id="Group_6334" data-name="Group 6334" opacity="0.88">
        <path id="Path_15547" data-name="Path 15547" d="M1456.422,1951.568l-12.084-7.615a2.928,2.928,0,0,0-2.42-.322l-17.014,6.081a1.036,1.036,0,0,0-.28,1.846l11.488,7.825a2.927,2.927,0,0,0,2.644.336l10.428-3.762a4.733,4.733,0,0,1,4.141.456h0a.521.521,0,0,0,.8-.393l.1-1.107a1.26,1.26,0,0,1,.828-1.072l1.171-.422A1.036,1.036,0,0,0,1456.422,1951.568Z" transform="translate(-1424.172 -1943.502)" fill="#fff"/>
      </g>
      <g id="Group_6335" data-name="Group 6335" transform="translate(5.029 4.312)" opacity="0.3">
        <path id="Path_15548" data-name="Path 15548" d="M1531.485,2037.64l-6.735-4.561a.546.546,0,0,1,.129-.979l6.889-2.426a2.3,2.3,0,0,1,2.266.325l6.777,4.563a.7.7,0,0,1-.173,1.254l-6.554,2.155A3.045,3.045,0,0,1,1531.485,2037.64Z" transform="translate(-1524.499 -2029.515)" fill="#5e5e5e"/>
      </g>
      <g id="Group_6336" data-name="Group 6336" transform="translate(16.203 2.867)">
        <path id="Path_15549" data-name="Path 15549" d="M1747.465,2002.133a.062.062,0,0,1-.018-.122l4.313-1.307a.063.063,0,0,1,.036.12l-4.313,1.307Z" transform="translate(-1747.402 -2000.702)" fill="#6d0707"/>
      </g>
      <g id="Group_6337" data-name="Group 6337" transform="translate(17.49 3.442)">
        <path id="Path_15550" data-name="Path 15550" d="M1773.135,2013.74a.063.063,0,0,1-.019-.122l4.375-1.442a.063.063,0,0,1,.039.119l-4.375,1.442A.058.058,0,0,1,1773.135,2013.74Z" transform="translate(-1773.072 -2012.173)" fill="#6d0707"/>
      </g>
      <g id="Group_6338" data-name="Group 6338" transform="translate(21.757 6.622)">
        <path id="Path_15551" data-name="Path 15551" d="M1858.26,2077.166a.063.063,0,0,1-.059-.042.061.061,0,0,1,.038-.079l4.038-1.435a.063.063,0,0,1,.042.118l-4.038,1.435A.072.072,0,0,1,1858.26,2077.166Z" transform="translate(-1858.197 -2075.606)" fill="#6d0707"/>
      </g>
    </g>
    <g id="Group_6343" data-name="Group 6343" transform="translate(0 55.195)">
      <g id="Group_6340" data-name="Group 6340" opacity="0.88">
        <path id="Path_15552" data-name="Path 15552" d="M576.822,2112.442l-17.5,5.417a1.287,1.287,0,0,0-.447,2.211l12.2,6.382c1.929,1.013,2.966,1.37,4.509.824l16.556-6.529a1.287,1.287,0,0,0,.411-2.188l-11.27-5.848A6.188,6.188,0,0,0,576.822,2112.442Z" transform="translate(-558.415 -2112.153)" fill="rgba(248,135,50,0.5)"/>
      </g>
      <g id="Group_6341" data-name="Group 6341" transform="translate(0.021 0.003)" opacity="0.57">
        <path id="Path_15553" data-name="Path 15553" d="M578.073,2119.257a.941.941,0,0,0,.981-.855l.417-4.594.143-1.581a6.425,6.425,0,0,0-2.4.268l-17.5,5.416a1.269,1.269,0,0,0-.883,1.046l2.533.03Z" transform="translate(-558.83 -2112.208)" fill="#011721"/>
      </g>
      <g id="Group_6342" data-name="Group 6342" transform="translate(2.586 1.443)">
        <path id="Path_15554" data-name="Path 15554" d="M626.718,2147.071c-.069,0-.111,0-.114,0l-16.548-.232a.063.063,0,0,1,0-.125h0l16.552.232c.057.006,1.314.1,1.517-.892l.457-5.054a.058.058,0,0,1,.068-.057.062.062,0,0,1,.057.068l-.458,5.061C628.063,2146.991,627.059,2147.071,626.718,2147.071Z" transform="translate(-609.995 -2140.938)" fill="#fff"/>
      </g>
    </g>
    <g id="Group_6347" data-name="Group 6347" transform="translate(82.001 71.954)">
      <g id="Group_6344" data-name="Group 6344" opacity="0.88">
        <path id="Path_15555" data-name="Path 15555" d="M2207.488,2446.827l-12.668,6.071a1.042,1.042,0,0,0-.115,1.823l8.388,5.322a3.728,3.728,0,0,0,3.708.165l12.111-6.209a1.043,1.043,0,0,0,.089-1.8l-7.9-5.124A3.728,3.728,0,0,0,2207.488,2446.827Z" transform="translate(-2194.221 -2446.473)" fill="rgba(248,135,50,0.5)"/>
      </g>
      <g id="Group_6345" data-name="Group 6345" transform="translate(9.41 4.018)" opacity="0.8">
        <path id="Path_15556" data-name="Path 15556" d="M2397.3,2528.324l-.327-.212h0l-10.385-1.495-.2,2.052-4.334-.617-.129,8.394a3.721,3.721,0,0,0,3.17-.113l12.111-6.208A1.043,1.043,0,0,0,2397.3,2528.324Z" transform="translate(-2381.93 -2526.617)" fill="#fff"/>
      </g>
      <g id="Group_6346" data-name="Group 6346" transform="translate(10.535 3.418)" opacity="0.8">
        <path id="Path_15557" data-name="Path 15557" d="M2406.21,2515.264c-.027.28-.456.467-.958.42s-.888-.313-.862-.593.455-.469.958-.421S2406.237,2514.984,2406.21,2515.264Z" transform="translate(-2404.389 -2514.663)" fill="#fff"/>
      </g>
    </g>
    <g id="Group_6350" data-name="Group 6350" transform="translate(67.389 101.225)">
      <g id="Group_6348" data-name="Group 6348" transform="translate(0 0)" style="mix-blend-mode: multiply;isolation: isolate">
        <ellipse id="Ellipse_718" data-name="Ellipse 718" cx="6.83" cy="9.282" rx="6.83" ry="9.282" transform="translate(0 12.994) rotate(-72.031)" fill="#05293c"/>
      </g>
      <g id="Group_6349" data-name="Group 6349" transform="translate(6.871 6.25)">
        <path id="Path_15558" data-name="Path 15558" d="M2045.478,3160.956a1.127,1.127,0,0,1-.594-.17l-4.546-2.82a1.128,1.128,0,0,1,.41-2.071l4.964-.819a1.106,1.106,0,0,1,.961.295,1.118,1.118,0,0,1,.343.946l-.418,3.639a1.129,1.129,0,0,1-1.121,1Zm-5.074-3.1,4.546,2.819a1,1,0,0,0,1.524-.738l.417-3.639a1,1,0,0,0-1.159-1.1l-4.964.819a1,1,0,0,0-.365,1.841Z" transform="translate(-2039.803 -3155.06)" fill="#fff"/>
      </g>
    </g>
    <g id="Group_6371" data-name="Group 6371" transform="translate(62.017 0)">
      <g id="Group_6358" data-name="Group 6358" transform="translate(63.617)">
        <g id="Group_6351" data-name="Group 6351" transform="translate(9.864 0.332)">
          <path id="Path_15559" data-name="Path 15559" d="M3291.867,1041.946l-26.331,2.581-4.113-9.7,20.161-17.132Z" transform="translate(-3261.423 -1017.695)" fill="#fff"/>
        </g>
        <g id="Group_6352" data-name="Group 6352" transform="translate(0 17.463)">
          <path id="Rectangle_4324" data-name="Rectangle 4324" d="M0,0H5.445a5.268,5.268,0,0,1,5.268,5.268v0a5.268,5.268,0,0,1-5.268,5.268H0a0,0,0,0,1,0,0V0A0,0,0,0,1,0,0Z" transform="matrix(-0.921, 0.39, -0.39, -0.921, 13.977, 9.7)" fill="#fff"/>
        </g>
        <g id="Group_6353" data-name="Group 6353" transform="translate(6.812 26.486)">
          <path id="Path_15560" data-name="Path 15560" d="M3203.438,1545.915a2.572,2.572,0,0,1-2.361-1.565l-.51-1.2a.25.25,0,1,1,.461-.2l.511,1.2a2.063,2.063,0,0,0,2.705,1.094l6.5-2.755a2.064,2.064,0,0,0,1.094-2.705.251.251,0,1,1,.461-.2,2.564,2.564,0,0,1-1.359,3.363l-6.5,2.756A2.554,2.554,0,0,1,3203.438,1545.915Z" transform="translate(-3200.546 -1539.439)" fill="#fff"/>
        </g>
        <g id="Group_6354" data-name="Group 6354" transform="translate(12.236 13.203)">
          <path id="Path_15561" data-name="Path 15561" d="M3310.5,1288.428l26.33-2.581-4.825-11.38-23.246,9.856Z" transform="translate(-3308.758 -1274.468)" fill="#eaeaea"/>
        </g>
        <g id="Group_6355" data-name="Group 6355" transform="translate(2.373 23.06)">
          <path id="Path_15562" data-name="Path 15562" d="M3116.2,1478.325l7.4-3.136-1.74-4.1-9.864,4.182.694,1.638A2.679,2.679,0,0,0,3116.2,1478.325Z" transform="translate(-3111.992 -1471.085)" fill="#eaeaea"/>
        </g>
        <g id="Group_6356" data-name="Group 6356" transform="translate(29.243)">
          <ellipse id="Ellipse_719" data-name="Ellipse 719" cx="0.85" cy="13.17" rx="0.85" ry="13.17" transform="translate(0 0.663) rotate(-22.977)" fill="#c9c3c3"/>
        </g>
        <g id="Group_6357" data-name="Group 6357" transform="translate(32.217 7.538)">
          <path id="Path_15563" data-name="Path 15563" d="M3707.349,1161.452h.419a3.188,3.188,0,0,1,2.936,1.943l2.005,4.73a3.187,3.187,0,0,1-.45,3.242l-.417.519S3708.547,1164.96,3707.349,1161.452Z" transform="translate(-3707.349 -1161.452)" fill="#011721"/>
        </g>
      </g>
      <g id="Group_6366" data-name="Group 6366" transform="translate(5.121 26.224)">
        <g id="Group_6359" data-name="Group 6359" transform="translate(0 3.98)">
          <path id="Path_15564" data-name="Path 15564" d="M1938.233,1643.709c3.5,26.314-3.812,45.843-11.472,58.394l17.821,3.624a102.466,102.466,0,0,0,6.834-11.677,72.654,72.654,0,0,1,1.911,13.455l12.228,2.486c1.981-32.434-6.052-71.623-6.052-71.623,5.444,5.213,10.015,7.543,13.217,8.572a4.827,4.827,0,0,0,6.2-3.835c2.4-14.274-6.946-26.914-6.946-26.914l-2.471.968c.479,3.486,3.1,19.88,3.1,19.88-8.083-9.608-16.016-12.793-21.181-13.787a20.879,20.879,0,0,0-2.206-.24,1.7,1.7,0,0,1-1.53-1.275.85.85,0,0,1,.555-1.005l1.376-.473a.957.957,0,0,0,.623-.7l.635-2.873a.517.517,0,0,0-.194-.525l-3.412-2.561-5.07,3.337,2.6,6.333,0,0a18.633,18.633,0,0,0-3.984,1.247c-17.5,7.724-43.084,36.462-43.084,36.462l2.09,3.235c19.191-15.6,29.66-21,34.5-22.865A2.909,2.909,0,0,1,1938.233,1643.709Z" transform="translate(-1897.731 -1613.601)" fill="#05293c"/>
        </g>
        <g id="Group_6360" data-name="Group 6360" transform="translate(0 3.98)">
          <path id="Path_15565" data-name="Path 15565" d="M1937.266,1675.443s26.912,3.545,27.155-3.289c.619-17.374-4.918-33.785-4.918-33.785,5.845,5.6,10.683,7.87,13.9,8.778a4.3,4.3,0,0,0,5.382-3.317c2.855-14.568-6.814-27.639-6.814-27.639l-2.471.968c.479,3.486,3.1,19.88,3.1,19.88-8.083-9.608-16.016-12.793-21.181-13.787a20.879,20.879,0,0,0-2.206-.24,1.7,1.7,0,0,1-1.53-1.276.85.85,0,0,1,.555-1.005l1.376-.473a.957.957,0,0,0,.623-.7l.635-2.873a.517.517,0,0,0-.194-.525l-3.412-2.561-5.07,3.337,2.6,6.333,0,0a18.633,18.633,0,0,0-3.984,1.247c-17.5,7.724-43.084,36.462-43.084,36.462l2.09,3.235c19.192-15.6,29.661-21,34.5-22.865a2.889,2.889,0,0,1,3.909,2.326A106.881,106.881,0,0,1,1937.266,1675.443Z" transform="translate(-1897.731 -1613.601)" fill="#fff"/>
        </g>
        <g id="Group_6361" data-name="Group 6361" transform="translate(39.515 32.257)">
          <path id="Path_15566" data-name="Path 15566" d="M2686,2177.7h0a2.922,2.922,0,0,1,.987,1.831c1.6,12,.056,24.259-.967,31.733,0,0,26.911,3.545,27.156-3.289C2713.173,2207.976,2701.963,2179.267,2686,2177.7Z" transform="translate(-2685.997 -2177.701)" fill="#eaeaea"/>
        </g>
        <g id="Group_6362" data-name="Group 6362" transform="translate(59.292 23.9)">
          <path id="Path_15567" data-name="Path 15567" d="M3083.014,2016.081a.251.251,0,0,1-.226-.141l-2.229-4.6a.251.251,0,0,1,.452-.219l2.228,4.6a.251.251,0,0,1-.225.36Z" transform="translate(-3080.535 -2010.983)" fill="#011721"/>
        </g>
        <g id="Group_6363" data-name="Group 6363" transform="translate(15.651)">
          <path id="Path_15568" data-name="Path 15568" d="M2243.138,1535.588l.016-.02a1.445,1.445,0,0,1,2.524,1.2,63.155,63.155,0,0,1-3.267,11.58,9.891,9.891,0,0,1-8.867,6.081,15.841,15.841,0,0,1-4.484-.583s-8.425,6.107-12.622,9.864c0,0-8.786-1.23-5.913-8.531a11.611,11.611,0,0,1,3.909-5.012,39.621,39.621,0,0,1,9.94-5.6,11.4,11.4,0,0,0,6.5-5.7c1.689-3.363,5.11-6.643,11.817-3.2A.365.365,0,0,0,2243.138,1535.588Z" transform="translate(-2209.948 -1534.211)" fill="#011721"/>
        </g>
        <g id="Group_6364" data-name="Group 6364" transform="translate(37.129 75.214)">
          <path id="Path_15569" data-name="Path 15569" d="M2646.068,3058.482a105.475,105.475,0,0,0,8.893-14.633,81.911,81.911,0,0,1,2.083,16.837l4.492.9c.351-9.061-.084-18.98-2.5-26.954a108.417,108.417,0,0,1-20.635,22.309Z" transform="translate(-2638.405 -3034.635)" fill="#011721"/>
        </g>
        <g id="Group_6365" data-name="Group 6365" transform="translate(23.529 0.004)">
          <path id="Path_15570" data-name="Path 15570" d="M2380.8,1545.787a8.937,8.937,0,0,0,2.427-.247c5.9-1.52,7.914-7.61,8.475-9.924-6.533-3.221-9.887.013-11.555,3.33a11.4,11.4,0,0,1-6.5,5.7,32.585,32.585,0,0,0-6.548,3.266C2371.9,1545.8,2378.45,1545.735,2380.8,1545.787Z" transform="translate(-2367.096 -1534.286)" fill="#05293c"/>
        </g>
      </g>
      <g id="Group_6367" data-name="Group 6367" transform="translate(74.838 28.509)">
        <path id="Path_15571" data-name="Path 15571" d="M3290.554,1585.044l-1.631-1.24a1.067,1.067,0,0,1-.421-.875l.023-1.046a1.366,1.366,0,0,1,.8-1.21l1.653-.758a1.36,1.36,0,0,1,1.926,1.18l.125,2.98Z" transform="translate(-3288.502 -1579.791)" fill="#011721"/>
      </g>
      <g id="Group_6368" data-name="Group 6368" transform="translate(24.543 27.622)">
        <path id="Path_15572" data-name="Path 15572" d="M2285.229,1577.255a.063.063,0,0,1-.029-.118c4.154-2.219,12.077-1.242,14.407-.889.321.048.744.108,1.18.142,4.856.372,8.469-.722,10.748-3.257,3.746-4.168,2.554-10.881,2.542-10.949a.063.063,0,1,1,.123-.023c.013.068,1.216,6.84-2.572,11.055-2.3,2.566-5.952,3.677-10.851,3.3-.44-.034-.867-.094-1.189-.143-2.32-.351-10.208-1.326-14.329.876A.063.063,0,0,1,2285.229,1577.255Z" transform="translate(-2285.166 -1562.11)" fill="#fff"/>
      </g>
      <g id="Group_6369" data-name="Group 6369" transform="translate(53.934 40.152)">
        <path id="Path_15573" data-name="Path 15573" d="M2880.189,1859.313h-.008a.063.063,0,0,1-.054-.07c2.471-19.765,0-30.909-2.513-36.776-2.719-6.352-6.062-8.056-6.1-8.073a.064.064,0,0,1-.034-.04.063.063,0,0,1,.009-.051l1.479-2.211a.062.062,0,1,1,.1.069l-1.44,2.154c.476.268,3.554,2.18,6.085,8.086,2.521,5.882,5.007,17.051,2.53,36.858A.062.062,0,0,1,2880.189,1859.313Z" transform="translate(-2871.483 -1812.063)" fill="#011721"/>
      </g>
      <g id="Group_6370" data-name="Group 6370" transform="translate(0 77.586)">
        <path id="Path_15574" data-name="Path 15574" d="M1800.7,2558.813l-4.693,4.359c-.286.273-.6.632-.319.913.075.075.729.417,2.161-.655,1.123-.84,2.788.716,4.942-1.382Z" transform="translate(-1795.575 -2558.813)" fill="#011721"/>
      </g>
    </g>
    <g id="Group_6375" data-name="Group 6375" transform="translate(125.816 119.398)">
      <g id="Group_6373" data-name="Group 6373" transform="translate(0 0)">
        <g id="Group_6372" data-name="Group 6372" opacity="0.88">
          <path id="Path_15575" data-name="Path 15575" d="M3081.915,3393.422l-12.8,6.082a1.471,1.471,0,0,0-.151,2.574l11.869,7.455a5.261,5.261,0,0,0,5.233.208l12.014-6.273a1.471,1.471,0,0,0,.114-2.541l-11.178-7.18A5.261,5.261,0,0,0,3081.915,3393.422Z" transform="translate(-3068.275 -3392.913)" fill="rgba(248,135,50,0.5)"/>
        </g>
      </g>
      <g id="Group_6374" data-name="Group 6374" transform="translate(9.327 4.584)">
        <path id="Path_15576" data-name="Path 15576" d="M3263.154,3485.035c-3.528-1.677-6.443.075-4.876,1.693-2.351-1.169-5.392.493-3.159,2.913,1.151,1.247,3.146,1.829,5.032,2.173a39.761,39.761,0,0,0,5.325.35c.265-.008.455-.122.495-.289a10.39,10.39,0,0,0-.072-3.383A4.874,4.874,0,0,0,3263.154,3485.035Z" transform="translate(-3254.339 -3484.354)" fill="#fff"/>
      </g>
    </g>
    <g id="Group_6379" data-name="Group 6379" transform="translate(138.017 102.895)">
      <g id="Group_6376" data-name="Group 6376" transform="translate(0 3.038)">
        <path id="Path_15577" data-name="Path 15577" d="M3315.14,3127.529a4.205,4.205,0,0,1-2.09-.66,2.684,2.684,0,0,1-1.376-1.654.727.727,0,0,1,.2-.617c.514-.519,1.875-.358,3.035.355a2.683,2.683,0,0,1,1.376,1.655.724.724,0,0,1-.2.617A1.313,1.313,0,0,1,3315.14,3127.529Zm-2.323-3.116a1.19,1.19,0,0,0-.855.273.594.594,0,0,0-.162.515,2.559,2.559,0,0,0,1.317,1.562c1.114.686,2.4.853,2.88.374l.045.044-.045-.044a.6.6,0,0,0,.163-.514,2.564,2.564,0,0,0-1.317-1.562A4.09,4.09,0,0,0,3312.817,3124.413Z" transform="translate(-3311.668 -3124.294)" fill="rgba(248,135,50,0.5)"/>
      </g>
      <g id="Group_6377" data-name="Group 6377" transform="translate(3.782 1.519)">
        <path id="Path_15578" data-name="Path 15578" d="M3390.595,3097.228a4.2,4.2,0,0,1-2.089-.66,2.681,2.681,0,0,1-1.375-1.655.721.721,0,0,1,.2-.617c.514-.519,1.875-.359,3.035.355a2.68,2.68,0,0,1,1.376,1.655.722.722,0,0,1-.2.617A1.317,1.317,0,0,1,3390.595,3097.228Zm-2.323-3.116a1.186,1.186,0,0,0-.855.273.594.594,0,0,0-.164.514,2.567,2.567,0,0,0,1.317,1.562c1.114.685,2.405.853,2.88.374a.6.6,0,0,0,.163-.514,2.567,2.567,0,0,0-1.317-1.563A4.093,4.093,0,0,0,3388.272,3094.112Z" transform="translate(-3387.124 -3093.992)" fill="rgba(248,135,50,0.5)"/>
      </g>
      <g id="Group_6378" data-name="Group 6378" transform="translate(7.564)">
        <path id="Path_15579" data-name="Path 15579" d="M3466.035,3066.933a4.2,4.2,0,0,1-2.09-.66,2.68,2.68,0,0,1-1.376-1.654.723.723,0,0,1,.2-.618c.514-.519,1.875-.358,3.035.356a2.68,2.68,0,0,1,1.376,1.654.722.722,0,0,1-.2.617h0A1.314,1.314,0,0,1,3466.035,3066.933Zm-2.322-3.116a1.192,1.192,0,0,0-.856.273.593.593,0,0,0-.163.514,2.565,2.565,0,0,0,1.317,1.563c1.114.686,2.405.853,2.879.374h0a.593.593,0,0,0,.164-.514,2.564,2.564,0,0,0-1.317-1.562A4.1,4.1,0,0,0,3463.712,3063.817Z" transform="translate(-3462.563 -3063.698)" fill="rgba(248,135,50,0.5)"/>
      </g>
    </g>
    <g id="Group_6035" data-name="Group 6035" transform="translate(30 156)">
      <ellipse id="Ellipse_693" data-name="Ellipse 693" cx="60" cy="3.285" rx="60" ry="3.285" transform="translate(0 0)" fill="rgba(14,39,86,0.16)"/>
    </g>
  </g>
</svg>
