<svg xmlns="http://www.w3.org/2000/svg" width="20.5" height="20.505" viewBox="0 0 20.5 20.505">
  <g id="wallet" transform="translate(0.247 0.254)">
    <g id="Group_6449" data-name="Group 6449" transform="translate(0.003 0)">
      <g id="Group_6448" data-name="Group 6448">
        <path id="Path_15682" data-name="Path 15682" d="M19.094,10.084V7.273a1.814,1.814,0,0,0-1.673-1.8L14.81.91A1.8,1.8,0,0,0,12.342.245L3.393,5.455H1.821A1.82,1.82,0,0,0,0,7.273V18.182A1.82,1.82,0,0,0,1.821,20H17.276a1.82,1.82,0,0,0,1.818-1.818V15.371A1.361,1.361,0,0,0,20,14.091V11.364A1.361,1.361,0,0,0,19.094,10.084Zm-2.73-4.629H12.4l2.971-1.73ZM14.922,2.936,10.6,5.455H8.8l5.672-3.3ZM12.8,1.031A.879.879,0,0,1,13.475.94a.891.891,0,0,1,.546.422v0L6.994,5.455H5.2Zm5.385,17.152a.91.91,0,0,1-.909.909H1.821a.91.91,0,0,1-.909-.909V7.273a.91.91,0,0,1,.909-.909H17.276a.91.91,0,0,1,.909.909V10H15.458a2.727,2.727,0,1,0,0,5.455h2.727Zm.909-4.091a.455.455,0,0,1-.455.455H15.458a1.818,1.818,0,1,1,0-3.636h3.182a.455.455,0,0,1,.455.455Z" transform="translate(-0.003 0)" fill="#1f4282" stroke="#1f4282" stroke-width="0.5"/>
        <path id="Path_15683" data-name="Path 15683" d="M342.246,277.341a.909.909,0,1,0,.909.909A.91.91,0,0,0,342.246,277.341Z" transform="translate(-326.791 -265.522)" fill="#1f4282" stroke="#1f4282" stroke-width="0.5"/>
      </g>
    </g>
  </g>
</svg>
