<svg xmlns="http://www.w3.org/2000/svg" xmlns:xlink="http://www.w3.org/1999/xlink" width="50" height="32.958" viewBox="0 0 50 32.958">
  <defs>
    <linearGradient id="linear-gradient" x1="0.286" y1="0.804" x2="0.652" y2="-0.158" gradientUnits="objectBoundingBox">
      <stop offset="0" stop-color="#00041d"/>
      <stop offset="1" stop-color="#0e2756"/>
    </linearGradient>
  </defs>
  <path id="Path_14979" data-name="Path 14979" d="M226.011-563.852l-17.426,17.427-1.3-1.3,17.427-17.426Zm-20.988,18.394-3.554,3.554-2.262-2.262,23.245-23.245-4.856-4.856-23.245,23.245-2.26-2.26,20.641-20.66h-9.694l-5.129,5.129-5.126-5.126H183.31l9.753,9.973-2.269,2.269-9.926-9.926-4.857,4.857,10.576,10.576,1.3-1.3-9.279-9.278,2.262-2.262,9.926,9.927,4.847-4.847-7.967-8.15,4.375,0,5.861,5.884,5.882-5.882h4.523L189.5-551.281l4.854,4.854L217.6-569.673l2.262,2.262-23.245,23.245,4.857,4.857,4.852-4.852Z" transform="translate(-176.011 572.267)" fill="url(#linear-gradient)"/>
</svg>
